G75*
%MOIN*%
%OFA0B0*%
%FSLAX25Y25*%
%IPPOS*%
%LPD*%
%AMOC8*
5,1,8,0,0,1.08239X$1,22.5*
%
%ADD10OC8,0.10800*%
%ADD11OC8,0.07800*%
%ADD12R,0.07800X0.07800*%
%ADD13OC8,0.07150*%
%ADD14C,0.12611*%
%ADD15C,0.07800*%
%ADD16C,0.07887*%
%ADD17R,0.07887X0.07887*%
%ADD18OC8,0.06706*%
%ADD19C,0.07950*%
%ADD20OC8,0.07400*%
%ADD21OC8,0.16548*%
D10*
X0193894Y0278991D03*
X0223894Y0278991D03*
D11*
X0226453Y0205927D03*
X0327241Y0165927D03*
X0327241Y0065927D03*
X0048934Y0101531D03*
X0048934Y0111531D03*
X0048934Y0121531D03*
X0048934Y0131531D03*
X0048934Y0141531D03*
X0048934Y0151531D03*
X0048934Y0161531D03*
D12*
X0048934Y0091531D03*
X0226453Y0195927D03*
X0327241Y0195927D03*
D13*
X0347910Y0214346D03*
X0357910Y0214346D03*
X0361020Y0083794D03*
X0361020Y0063794D03*
D14*
X0323894Y0053361D03*
X0229406Y0053361D03*
X0229406Y0236432D03*
X0323894Y0236432D03*
D15*
X0327241Y0205927D03*
X0327241Y0185927D03*
X0327241Y0175927D03*
X0327241Y0155927D03*
X0327241Y0145927D03*
X0327241Y0135927D03*
X0327241Y0125927D03*
X0327241Y0115927D03*
X0327241Y0105927D03*
X0327241Y0095927D03*
X0327241Y0085927D03*
X0327241Y0075927D03*
X0226453Y0075927D03*
X0226453Y0085927D03*
X0226453Y0095927D03*
X0226453Y0105927D03*
X0226453Y0115927D03*
X0226453Y0125927D03*
X0226453Y0135927D03*
X0226453Y0145927D03*
X0226453Y0155927D03*
X0226453Y0165927D03*
X0226453Y0175927D03*
X0226453Y0185927D03*
X0226453Y0065927D03*
D16*
X0166512Y0231078D03*
X0166512Y0241078D03*
X0166512Y0251078D03*
X0166512Y0261078D03*
X0166512Y0271078D03*
D17*
X0166512Y0221078D03*
D18*
X0268501Y0278794D03*
X0275607Y0283794D03*
X0268501Y0288794D03*
X0347241Y0193125D03*
X0364957Y0193125D03*
X0364957Y0163125D03*
X0347241Y0163125D03*
X0343304Y0088794D03*
X0343304Y0058794D03*
D19*
X0348183Y0102695D02*
X0348183Y0109845D01*
X0365983Y0109845D02*
X0365983Y0102695D01*
X0365983Y0128295D02*
X0365983Y0135445D01*
X0348183Y0135445D02*
X0348183Y0128295D01*
D20*
X0357083Y0138755D03*
X0357083Y0154503D03*
X0252753Y0195927D03*
X0252753Y0215527D03*
X0207477Y0193873D03*
X0189760Y0193873D03*
X0207477Y0158440D03*
X0189760Y0156472D03*
X0298028Y0258834D03*
X0298028Y0294267D03*
D21*
X0362989Y0294267D03*
X0040154Y0294267D03*
M02*
