G75*
%MOIN*%
%OFA0B0*%
%FSLAX25Y25*%
%IPPOS*%
%LPD*%
%AMOC8*
5,1,8,0,0,1.08239X$1,22.5*
%
%ADD10C,0.01000*%
%ADD11C,0.00000*%
D10*
X0024406Y0034424D02*
X0024406Y0310015D01*
X0378737Y0310015D01*
X0378737Y0034424D01*
X0024406Y0034424D01*
D11*
X0223500Y0053361D02*
X0223502Y0053514D01*
X0223508Y0053668D01*
X0223518Y0053821D01*
X0223532Y0053973D01*
X0223550Y0054126D01*
X0223572Y0054277D01*
X0223597Y0054428D01*
X0223627Y0054579D01*
X0223661Y0054729D01*
X0223698Y0054877D01*
X0223739Y0055025D01*
X0223784Y0055171D01*
X0223833Y0055317D01*
X0223886Y0055461D01*
X0223942Y0055603D01*
X0224002Y0055744D01*
X0224066Y0055884D01*
X0224133Y0056022D01*
X0224204Y0056158D01*
X0224279Y0056292D01*
X0224356Y0056424D01*
X0224438Y0056554D01*
X0224522Y0056682D01*
X0224610Y0056808D01*
X0224701Y0056931D01*
X0224795Y0057052D01*
X0224893Y0057170D01*
X0224993Y0057286D01*
X0225097Y0057399D01*
X0225203Y0057510D01*
X0225312Y0057618D01*
X0225424Y0057723D01*
X0225538Y0057824D01*
X0225656Y0057923D01*
X0225775Y0058019D01*
X0225897Y0058112D01*
X0226022Y0058201D01*
X0226149Y0058288D01*
X0226278Y0058370D01*
X0226409Y0058450D01*
X0226542Y0058526D01*
X0226677Y0058599D01*
X0226814Y0058668D01*
X0226953Y0058733D01*
X0227093Y0058795D01*
X0227235Y0058853D01*
X0227378Y0058908D01*
X0227523Y0058959D01*
X0227669Y0059006D01*
X0227816Y0059049D01*
X0227964Y0059088D01*
X0228113Y0059124D01*
X0228263Y0059155D01*
X0228414Y0059183D01*
X0228565Y0059207D01*
X0228718Y0059227D01*
X0228870Y0059243D01*
X0229023Y0059255D01*
X0229176Y0059263D01*
X0229329Y0059267D01*
X0229483Y0059267D01*
X0229636Y0059263D01*
X0229789Y0059255D01*
X0229942Y0059243D01*
X0230094Y0059227D01*
X0230247Y0059207D01*
X0230398Y0059183D01*
X0230549Y0059155D01*
X0230699Y0059124D01*
X0230848Y0059088D01*
X0230996Y0059049D01*
X0231143Y0059006D01*
X0231289Y0058959D01*
X0231434Y0058908D01*
X0231577Y0058853D01*
X0231719Y0058795D01*
X0231859Y0058733D01*
X0231998Y0058668D01*
X0232135Y0058599D01*
X0232270Y0058526D01*
X0232403Y0058450D01*
X0232534Y0058370D01*
X0232663Y0058288D01*
X0232790Y0058201D01*
X0232915Y0058112D01*
X0233037Y0058019D01*
X0233156Y0057923D01*
X0233274Y0057824D01*
X0233388Y0057723D01*
X0233500Y0057618D01*
X0233609Y0057510D01*
X0233715Y0057399D01*
X0233819Y0057286D01*
X0233919Y0057170D01*
X0234017Y0057052D01*
X0234111Y0056931D01*
X0234202Y0056808D01*
X0234290Y0056682D01*
X0234374Y0056554D01*
X0234456Y0056424D01*
X0234533Y0056292D01*
X0234608Y0056158D01*
X0234679Y0056022D01*
X0234746Y0055884D01*
X0234810Y0055744D01*
X0234870Y0055603D01*
X0234926Y0055461D01*
X0234979Y0055317D01*
X0235028Y0055171D01*
X0235073Y0055025D01*
X0235114Y0054877D01*
X0235151Y0054729D01*
X0235185Y0054579D01*
X0235215Y0054428D01*
X0235240Y0054277D01*
X0235262Y0054126D01*
X0235280Y0053973D01*
X0235294Y0053821D01*
X0235304Y0053668D01*
X0235310Y0053514D01*
X0235312Y0053361D01*
X0235310Y0053208D01*
X0235304Y0053054D01*
X0235294Y0052901D01*
X0235280Y0052749D01*
X0235262Y0052596D01*
X0235240Y0052445D01*
X0235215Y0052294D01*
X0235185Y0052143D01*
X0235151Y0051993D01*
X0235114Y0051845D01*
X0235073Y0051697D01*
X0235028Y0051551D01*
X0234979Y0051405D01*
X0234926Y0051261D01*
X0234870Y0051119D01*
X0234810Y0050978D01*
X0234746Y0050838D01*
X0234679Y0050700D01*
X0234608Y0050564D01*
X0234533Y0050430D01*
X0234456Y0050298D01*
X0234374Y0050168D01*
X0234290Y0050040D01*
X0234202Y0049914D01*
X0234111Y0049791D01*
X0234017Y0049670D01*
X0233919Y0049552D01*
X0233819Y0049436D01*
X0233715Y0049323D01*
X0233609Y0049212D01*
X0233500Y0049104D01*
X0233388Y0048999D01*
X0233274Y0048898D01*
X0233156Y0048799D01*
X0233037Y0048703D01*
X0232915Y0048610D01*
X0232790Y0048521D01*
X0232663Y0048434D01*
X0232534Y0048352D01*
X0232403Y0048272D01*
X0232270Y0048196D01*
X0232135Y0048123D01*
X0231998Y0048054D01*
X0231859Y0047989D01*
X0231719Y0047927D01*
X0231577Y0047869D01*
X0231434Y0047814D01*
X0231289Y0047763D01*
X0231143Y0047716D01*
X0230996Y0047673D01*
X0230848Y0047634D01*
X0230699Y0047598D01*
X0230549Y0047567D01*
X0230398Y0047539D01*
X0230247Y0047515D01*
X0230094Y0047495D01*
X0229942Y0047479D01*
X0229789Y0047467D01*
X0229636Y0047459D01*
X0229483Y0047455D01*
X0229329Y0047455D01*
X0229176Y0047459D01*
X0229023Y0047467D01*
X0228870Y0047479D01*
X0228718Y0047495D01*
X0228565Y0047515D01*
X0228414Y0047539D01*
X0228263Y0047567D01*
X0228113Y0047598D01*
X0227964Y0047634D01*
X0227816Y0047673D01*
X0227669Y0047716D01*
X0227523Y0047763D01*
X0227378Y0047814D01*
X0227235Y0047869D01*
X0227093Y0047927D01*
X0226953Y0047989D01*
X0226814Y0048054D01*
X0226677Y0048123D01*
X0226542Y0048196D01*
X0226409Y0048272D01*
X0226278Y0048352D01*
X0226149Y0048434D01*
X0226022Y0048521D01*
X0225897Y0048610D01*
X0225775Y0048703D01*
X0225656Y0048799D01*
X0225538Y0048898D01*
X0225424Y0048999D01*
X0225312Y0049104D01*
X0225203Y0049212D01*
X0225097Y0049323D01*
X0224993Y0049436D01*
X0224893Y0049552D01*
X0224795Y0049670D01*
X0224701Y0049791D01*
X0224610Y0049914D01*
X0224522Y0050040D01*
X0224438Y0050168D01*
X0224356Y0050298D01*
X0224279Y0050430D01*
X0224204Y0050564D01*
X0224133Y0050700D01*
X0224066Y0050838D01*
X0224002Y0050978D01*
X0223942Y0051119D01*
X0223886Y0051261D01*
X0223833Y0051405D01*
X0223784Y0051551D01*
X0223739Y0051697D01*
X0223698Y0051845D01*
X0223661Y0051993D01*
X0223627Y0052143D01*
X0223597Y0052294D01*
X0223572Y0052445D01*
X0223550Y0052596D01*
X0223532Y0052749D01*
X0223518Y0052901D01*
X0223508Y0053054D01*
X0223502Y0053208D01*
X0223500Y0053361D01*
X0317988Y0053361D02*
X0317990Y0053514D01*
X0317996Y0053668D01*
X0318006Y0053821D01*
X0318020Y0053973D01*
X0318038Y0054126D01*
X0318060Y0054277D01*
X0318085Y0054428D01*
X0318115Y0054579D01*
X0318149Y0054729D01*
X0318186Y0054877D01*
X0318227Y0055025D01*
X0318272Y0055171D01*
X0318321Y0055317D01*
X0318374Y0055461D01*
X0318430Y0055603D01*
X0318490Y0055744D01*
X0318554Y0055884D01*
X0318621Y0056022D01*
X0318692Y0056158D01*
X0318767Y0056292D01*
X0318844Y0056424D01*
X0318926Y0056554D01*
X0319010Y0056682D01*
X0319098Y0056808D01*
X0319189Y0056931D01*
X0319283Y0057052D01*
X0319381Y0057170D01*
X0319481Y0057286D01*
X0319585Y0057399D01*
X0319691Y0057510D01*
X0319800Y0057618D01*
X0319912Y0057723D01*
X0320026Y0057824D01*
X0320144Y0057923D01*
X0320263Y0058019D01*
X0320385Y0058112D01*
X0320510Y0058201D01*
X0320637Y0058288D01*
X0320766Y0058370D01*
X0320897Y0058450D01*
X0321030Y0058526D01*
X0321165Y0058599D01*
X0321302Y0058668D01*
X0321441Y0058733D01*
X0321581Y0058795D01*
X0321723Y0058853D01*
X0321866Y0058908D01*
X0322011Y0058959D01*
X0322157Y0059006D01*
X0322304Y0059049D01*
X0322452Y0059088D01*
X0322601Y0059124D01*
X0322751Y0059155D01*
X0322902Y0059183D01*
X0323053Y0059207D01*
X0323206Y0059227D01*
X0323358Y0059243D01*
X0323511Y0059255D01*
X0323664Y0059263D01*
X0323817Y0059267D01*
X0323971Y0059267D01*
X0324124Y0059263D01*
X0324277Y0059255D01*
X0324430Y0059243D01*
X0324582Y0059227D01*
X0324735Y0059207D01*
X0324886Y0059183D01*
X0325037Y0059155D01*
X0325187Y0059124D01*
X0325336Y0059088D01*
X0325484Y0059049D01*
X0325631Y0059006D01*
X0325777Y0058959D01*
X0325922Y0058908D01*
X0326065Y0058853D01*
X0326207Y0058795D01*
X0326347Y0058733D01*
X0326486Y0058668D01*
X0326623Y0058599D01*
X0326758Y0058526D01*
X0326891Y0058450D01*
X0327022Y0058370D01*
X0327151Y0058288D01*
X0327278Y0058201D01*
X0327403Y0058112D01*
X0327525Y0058019D01*
X0327644Y0057923D01*
X0327762Y0057824D01*
X0327876Y0057723D01*
X0327988Y0057618D01*
X0328097Y0057510D01*
X0328203Y0057399D01*
X0328307Y0057286D01*
X0328407Y0057170D01*
X0328505Y0057052D01*
X0328599Y0056931D01*
X0328690Y0056808D01*
X0328778Y0056682D01*
X0328862Y0056554D01*
X0328944Y0056424D01*
X0329021Y0056292D01*
X0329096Y0056158D01*
X0329167Y0056022D01*
X0329234Y0055884D01*
X0329298Y0055744D01*
X0329358Y0055603D01*
X0329414Y0055461D01*
X0329467Y0055317D01*
X0329516Y0055171D01*
X0329561Y0055025D01*
X0329602Y0054877D01*
X0329639Y0054729D01*
X0329673Y0054579D01*
X0329703Y0054428D01*
X0329728Y0054277D01*
X0329750Y0054126D01*
X0329768Y0053973D01*
X0329782Y0053821D01*
X0329792Y0053668D01*
X0329798Y0053514D01*
X0329800Y0053361D01*
X0329798Y0053208D01*
X0329792Y0053054D01*
X0329782Y0052901D01*
X0329768Y0052749D01*
X0329750Y0052596D01*
X0329728Y0052445D01*
X0329703Y0052294D01*
X0329673Y0052143D01*
X0329639Y0051993D01*
X0329602Y0051845D01*
X0329561Y0051697D01*
X0329516Y0051551D01*
X0329467Y0051405D01*
X0329414Y0051261D01*
X0329358Y0051119D01*
X0329298Y0050978D01*
X0329234Y0050838D01*
X0329167Y0050700D01*
X0329096Y0050564D01*
X0329021Y0050430D01*
X0328944Y0050298D01*
X0328862Y0050168D01*
X0328778Y0050040D01*
X0328690Y0049914D01*
X0328599Y0049791D01*
X0328505Y0049670D01*
X0328407Y0049552D01*
X0328307Y0049436D01*
X0328203Y0049323D01*
X0328097Y0049212D01*
X0327988Y0049104D01*
X0327876Y0048999D01*
X0327762Y0048898D01*
X0327644Y0048799D01*
X0327525Y0048703D01*
X0327403Y0048610D01*
X0327278Y0048521D01*
X0327151Y0048434D01*
X0327022Y0048352D01*
X0326891Y0048272D01*
X0326758Y0048196D01*
X0326623Y0048123D01*
X0326486Y0048054D01*
X0326347Y0047989D01*
X0326207Y0047927D01*
X0326065Y0047869D01*
X0325922Y0047814D01*
X0325777Y0047763D01*
X0325631Y0047716D01*
X0325484Y0047673D01*
X0325336Y0047634D01*
X0325187Y0047598D01*
X0325037Y0047567D01*
X0324886Y0047539D01*
X0324735Y0047515D01*
X0324582Y0047495D01*
X0324430Y0047479D01*
X0324277Y0047467D01*
X0324124Y0047459D01*
X0323971Y0047455D01*
X0323817Y0047455D01*
X0323664Y0047459D01*
X0323511Y0047467D01*
X0323358Y0047479D01*
X0323206Y0047495D01*
X0323053Y0047515D01*
X0322902Y0047539D01*
X0322751Y0047567D01*
X0322601Y0047598D01*
X0322452Y0047634D01*
X0322304Y0047673D01*
X0322157Y0047716D01*
X0322011Y0047763D01*
X0321866Y0047814D01*
X0321723Y0047869D01*
X0321581Y0047927D01*
X0321441Y0047989D01*
X0321302Y0048054D01*
X0321165Y0048123D01*
X0321030Y0048196D01*
X0320897Y0048272D01*
X0320766Y0048352D01*
X0320637Y0048434D01*
X0320510Y0048521D01*
X0320385Y0048610D01*
X0320263Y0048703D01*
X0320144Y0048799D01*
X0320026Y0048898D01*
X0319912Y0048999D01*
X0319800Y0049104D01*
X0319691Y0049212D01*
X0319585Y0049323D01*
X0319481Y0049436D01*
X0319381Y0049552D01*
X0319283Y0049670D01*
X0319189Y0049791D01*
X0319098Y0049914D01*
X0319010Y0050040D01*
X0318926Y0050168D01*
X0318844Y0050298D01*
X0318767Y0050430D01*
X0318692Y0050564D01*
X0318621Y0050700D01*
X0318554Y0050838D01*
X0318490Y0050978D01*
X0318430Y0051119D01*
X0318374Y0051261D01*
X0318321Y0051405D01*
X0318272Y0051551D01*
X0318227Y0051697D01*
X0318186Y0051845D01*
X0318149Y0051993D01*
X0318115Y0052143D01*
X0318085Y0052294D01*
X0318060Y0052445D01*
X0318038Y0052596D01*
X0318020Y0052749D01*
X0318006Y0052901D01*
X0317996Y0053054D01*
X0317990Y0053208D01*
X0317988Y0053361D01*
X0317988Y0236432D02*
X0317990Y0236585D01*
X0317996Y0236739D01*
X0318006Y0236892D01*
X0318020Y0237044D01*
X0318038Y0237197D01*
X0318060Y0237348D01*
X0318085Y0237499D01*
X0318115Y0237650D01*
X0318149Y0237800D01*
X0318186Y0237948D01*
X0318227Y0238096D01*
X0318272Y0238242D01*
X0318321Y0238388D01*
X0318374Y0238532D01*
X0318430Y0238674D01*
X0318490Y0238815D01*
X0318554Y0238955D01*
X0318621Y0239093D01*
X0318692Y0239229D01*
X0318767Y0239363D01*
X0318844Y0239495D01*
X0318926Y0239625D01*
X0319010Y0239753D01*
X0319098Y0239879D01*
X0319189Y0240002D01*
X0319283Y0240123D01*
X0319381Y0240241D01*
X0319481Y0240357D01*
X0319585Y0240470D01*
X0319691Y0240581D01*
X0319800Y0240689D01*
X0319912Y0240794D01*
X0320026Y0240895D01*
X0320144Y0240994D01*
X0320263Y0241090D01*
X0320385Y0241183D01*
X0320510Y0241272D01*
X0320637Y0241359D01*
X0320766Y0241441D01*
X0320897Y0241521D01*
X0321030Y0241597D01*
X0321165Y0241670D01*
X0321302Y0241739D01*
X0321441Y0241804D01*
X0321581Y0241866D01*
X0321723Y0241924D01*
X0321866Y0241979D01*
X0322011Y0242030D01*
X0322157Y0242077D01*
X0322304Y0242120D01*
X0322452Y0242159D01*
X0322601Y0242195D01*
X0322751Y0242226D01*
X0322902Y0242254D01*
X0323053Y0242278D01*
X0323206Y0242298D01*
X0323358Y0242314D01*
X0323511Y0242326D01*
X0323664Y0242334D01*
X0323817Y0242338D01*
X0323971Y0242338D01*
X0324124Y0242334D01*
X0324277Y0242326D01*
X0324430Y0242314D01*
X0324582Y0242298D01*
X0324735Y0242278D01*
X0324886Y0242254D01*
X0325037Y0242226D01*
X0325187Y0242195D01*
X0325336Y0242159D01*
X0325484Y0242120D01*
X0325631Y0242077D01*
X0325777Y0242030D01*
X0325922Y0241979D01*
X0326065Y0241924D01*
X0326207Y0241866D01*
X0326347Y0241804D01*
X0326486Y0241739D01*
X0326623Y0241670D01*
X0326758Y0241597D01*
X0326891Y0241521D01*
X0327022Y0241441D01*
X0327151Y0241359D01*
X0327278Y0241272D01*
X0327403Y0241183D01*
X0327525Y0241090D01*
X0327644Y0240994D01*
X0327762Y0240895D01*
X0327876Y0240794D01*
X0327988Y0240689D01*
X0328097Y0240581D01*
X0328203Y0240470D01*
X0328307Y0240357D01*
X0328407Y0240241D01*
X0328505Y0240123D01*
X0328599Y0240002D01*
X0328690Y0239879D01*
X0328778Y0239753D01*
X0328862Y0239625D01*
X0328944Y0239495D01*
X0329021Y0239363D01*
X0329096Y0239229D01*
X0329167Y0239093D01*
X0329234Y0238955D01*
X0329298Y0238815D01*
X0329358Y0238674D01*
X0329414Y0238532D01*
X0329467Y0238388D01*
X0329516Y0238242D01*
X0329561Y0238096D01*
X0329602Y0237948D01*
X0329639Y0237800D01*
X0329673Y0237650D01*
X0329703Y0237499D01*
X0329728Y0237348D01*
X0329750Y0237197D01*
X0329768Y0237044D01*
X0329782Y0236892D01*
X0329792Y0236739D01*
X0329798Y0236585D01*
X0329800Y0236432D01*
X0329798Y0236279D01*
X0329792Y0236125D01*
X0329782Y0235972D01*
X0329768Y0235820D01*
X0329750Y0235667D01*
X0329728Y0235516D01*
X0329703Y0235365D01*
X0329673Y0235214D01*
X0329639Y0235064D01*
X0329602Y0234916D01*
X0329561Y0234768D01*
X0329516Y0234622D01*
X0329467Y0234476D01*
X0329414Y0234332D01*
X0329358Y0234190D01*
X0329298Y0234049D01*
X0329234Y0233909D01*
X0329167Y0233771D01*
X0329096Y0233635D01*
X0329021Y0233501D01*
X0328944Y0233369D01*
X0328862Y0233239D01*
X0328778Y0233111D01*
X0328690Y0232985D01*
X0328599Y0232862D01*
X0328505Y0232741D01*
X0328407Y0232623D01*
X0328307Y0232507D01*
X0328203Y0232394D01*
X0328097Y0232283D01*
X0327988Y0232175D01*
X0327876Y0232070D01*
X0327762Y0231969D01*
X0327644Y0231870D01*
X0327525Y0231774D01*
X0327403Y0231681D01*
X0327278Y0231592D01*
X0327151Y0231505D01*
X0327022Y0231423D01*
X0326891Y0231343D01*
X0326758Y0231267D01*
X0326623Y0231194D01*
X0326486Y0231125D01*
X0326347Y0231060D01*
X0326207Y0230998D01*
X0326065Y0230940D01*
X0325922Y0230885D01*
X0325777Y0230834D01*
X0325631Y0230787D01*
X0325484Y0230744D01*
X0325336Y0230705D01*
X0325187Y0230669D01*
X0325037Y0230638D01*
X0324886Y0230610D01*
X0324735Y0230586D01*
X0324582Y0230566D01*
X0324430Y0230550D01*
X0324277Y0230538D01*
X0324124Y0230530D01*
X0323971Y0230526D01*
X0323817Y0230526D01*
X0323664Y0230530D01*
X0323511Y0230538D01*
X0323358Y0230550D01*
X0323206Y0230566D01*
X0323053Y0230586D01*
X0322902Y0230610D01*
X0322751Y0230638D01*
X0322601Y0230669D01*
X0322452Y0230705D01*
X0322304Y0230744D01*
X0322157Y0230787D01*
X0322011Y0230834D01*
X0321866Y0230885D01*
X0321723Y0230940D01*
X0321581Y0230998D01*
X0321441Y0231060D01*
X0321302Y0231125D01*
X0321165Y0231194D01*
X0321030Y0231267D01*
X0320897Y0231343D01*
X0320766Y0231423D01*
X0320637Y0231505D01*
X0320510Y0231592D01*
X0320385Y0231681D01*
X0320263Y0231774D01*
X0320144Y0231870D01*
X0320026Y0231969D01*
X0319912Y0232070D01*
X0319800Y0232175D01*
X0319691Y0232283D01*
X0319585Y0232394D01*
X0319481Y0232507D01*
X0319381Y0232623D01*
X0319283Y0232741D01*
X0319189Y0232862D01*
X0319098Y0232985D01*
X0319010Y0233111D01*
X0318926Y0233239D01*
X0318844Y0233369D01*
X0318767Y0233501D01*
X0318692Y0233635D01*
X0318621Y0233771D01*
X0318554Y0233909D01*
X0318490Y0234049D01*
X0318430Y0234190D01*
X0318374Y0234332D01*
X0318321Y0234476D01*
X0318272Y0234622D01*
X0318227Y0234768D01*
X0318186Y0234916D01*
X0318149Y0235064D01*
X0318115Y0235214D01*
X0318085Y0235365D01*
X0318060Y0235516D01*
X0318038Y0235667D01*
X0318020Y0235820D01*
X0318006Y0235972D01*
X0317996Y0236125D01*
X0317990Y0236279D01*
X0317988Y0236432D01*
X0223500Y0236432D02*
X0223502Y0236585D01*
X0223508Y0236739D01*
X0223518Y0236892D01*
X0223532Y0237044D01*
X0223550Y0237197D01*
X0223572Y0237348D01*
X0223597Y0237499D01*
X0223627Y0237650D01*
X0223661Y0237800D01*
X0223698Y0237948D01*
X0223739Y0238096D01*
X0223784Y0238242D01*
X0223833Y0238388D01*
X0223886Y0238532D01*
X0223942Y0238674D01*
X0224002Y0238815D01*
X0224066Y0238955D01*
X0224133Y0239093D01*
X0224204Y0239229D01*
X0224279Y0239363D01*
X0224356Y0239495D01*
X0224438Y0239625D01*
X0224522Y0239753D01*
X0224610Y0239879D01*
X0224701Y0240002D01*
X0224795Y0240123D01*
X0224893Y0240241D01*
X0224993Y0240357D01*
X0225097Y0240470D01*
X0225203Y0240581D01*
X0225312Y0240689D01*
X0225424Y0240794D01*
X0225538Y0240895D01*
X0225656Y0240994D01*
X0225775Y0241090D01*
X0225897Y0241183D01*
X0226022Y0241272D01*
X0226149Y0241359D01*
X0226278Y0241441D01*
X0226409Y0241521D01*
X0226542Y0241597D01*
X0226677Y0241670D01*
X0226814Y0241739D01*
X0226953Y0241804D01*
X0227093Y0241866D01*
X0227235Y0241924D01*
X0227378Y0241979D01*
X0227523Y0242030D01*
X0227669Y0242077D01*
X0227816Y0242120D01*
X0227964Y0242159D01*
X0228113Y0242195D01*
X0228263Y0242226D01*
X0228414Y0242254D01*
X0228565Y0242278D01*
X0228718Y0242298D01*
X0228870Y0242314D01*
X0229023Y0242326D01*
X0229176Y0242334D01*
X0229329Y0242338D01*
X0229483Y0242338D01*
X0229636Y0242334D01*
X0229789Y0242326D01*
X0229942Y0242314D01*
X0230094Y0242298D01*
X0230247Y0242278D01*
X0230398Y0242254D01*
X0230549Y0242226D01*
X0230699Y0242195D01*
X0230848Y0242159D01*
X0230996Y0242120D01*
X0231143Y0242077D01*
X0231289Y0242030D01*
X0231434Y0241979D01*
X0231577Y0241924D01*
X0231719Y0241866D01*
X0231859Y0241804D01*
X0231998Y0241739D01*
X0232135Y0241670D01*
X0232270Y0241597D01*
X0232403Y0241521D01*
X0232534Y0241441D01*
X0232663Y0241359D01*
X0232790Y0241272D01*
X0232915Y0241183D01*
X0233037Y0241090D01*
X0233156Y0240994D01*
X0233274Y0240895D01*
X0233388Y0240794D01*
X0233500Y0240689D01*
X0233609Y0240581D01*
X0233715Y0240470D01*
X0233819Y0240357D01*
X0233919Y0240241D01*
X0234017Y0240123D01*
X0234111Y0240002D01*
X0234202Y0239879D01*
X0234290Y0239753D01*
X0234374Y0239625D01*
X0234456Y0239495D01*
X0234533Y0239363D01*
X0234608Y0239229D01*
X0234679Y0239093D01*
X0234746Y0238955D01*
X0234810Y0238815D01*
X0234870Y0238674D01*
X0234926Y0238532D01*
X0234979Y0238388D01*
X0235028Y0238242D01*
X0235073Y0238096D01*
X0235114Y0237948D01*
X0235151Y0237800D01*
X0235185Y0237650D01*
X0235215Y0237499D01*
X0235240Y0237348D01*
X0235262Y0237197D01*
X0235280Y0237044D01*
X0235294Y0236892D01*
X0235304Y0236739D01*
X0235310Y0236585D01*
X0235312Y0236432D01*
X0235310Y0236279D01*
X0235304Y0236125D01*
X0235294Y0235972D01*
X0235280Y0235820D01*
X0235262Y0235667D01*
X0235240Y0235516D01*
X0235215Y0235365D01*
X0235185Y0235214D01*
X0235151Y0235064D01*
X0235114Y0234916D01*
X0235073Y0234768D01*
X0235028Y0234622D01*
X0234979Y0234476D01*
X0234926Y0234332D01*
X0234870Y0234190D01*
X0234810Y0234049D01*
X0234746Y0233909D01*
X0234679Y0233771D01*
X0234608Y0233635D01*
X0234533Y0233501D01*
X0234456Y0233369D01*
X0234374Y0233239D01*
X0234290Y0233111D01*
X0234202Y0232985D01*
X0234111Y0232862D01*
X0234017Y0232741D01*
X0233919Y0232623D01*
X0233819Y0232507D01*
X0233715Y0232394D01*
X0233609Y0232283D01*
X0233500Y0232175D01*
X0233388Y0232070D01*
X0233274Y0231969D01*
X0233156Y0231870D01*
X0233037Y0231774D01*
X0232915Y0231681D01*
X0232790Y0231592D01*
X0232663Y0231505D01*
X0232534Y0231423D01*
X0232403Y0231343D01*
X0232270Y0231267D01*
X0232135Y0231194D01*
X0231998Y0231125D01*
X0231859Y0231060D01*
X0231719Y0230998D01*
X0231577Y0230940D01*
X0231434Y0230885D01*
X0231289Y0230834D01*
X0231143Y0230787D01*
X0230996Y0230744D01*
X0230848Y0230705D01*
X0230699Y0230669D01*
X0230549Y0230638D01*
X0230398Y0230610D01*
X0230247Y0230586D01*
X0230094Y0230566D01*
X0229942Y0230550D01*
X0229789Y0230538D01*
X0229636Y0230530D01*
X0229483Y0230526D01*
X0229329Y0230526D01*
X0229176Y0230530D01*
X0229023Y0230538D01*
X0228870Y0230550D01*
X0228718Y0230566D01*
X0228565Y0230586D01*
X0228414Y0230610D01*
X0228263Y0230638D01*
X0228113Y0230669D01*
X0227964Y0230705D01*
X0227816Y0230744D01*
X0227669Y0230787D01*
X0227523Y0230834D01*
X0227378Y0230885D01*
X0227235Y0230940D01*
X0227093Y0230998D01*
X0226953Y0231060D01*
X0226814Y0231125D01*
X0226677Y0231194D01*
X0226542Y0231267D01*
X0226409Y0231343D01*
X0226278Y0231423D01*
X0226149Y0231505D01*
X0226022Y0231592D01*
X0225897Y0231681D01*
X0225775Y0231774D01*
X0225656Y0231870D01*
X0225538Y0231969D01*
X0225424Y0232070D01*
X0225312Y0232175D01*
X0225203Y0232283D01*
X0225097Y0232394D01*
X0224993Y0232507D01*
X0224893Y0232623D01*
X0224795Y0232741D01*
X0224701Y0232862D01*
X0224610Y0232985D01*
X0224522Y0233111D01*
X0224438Y0233239D01*
X0224356Y0233369D01*
X0224279Y0233501D01*
X0224204Y0233635D01*
X0224133Y0233771D01*
X0224066Y0233909D01*
X0224002Y0234049D01*
X0223942Y0234190D01*
X0223886Y0234332D01*
X0223833Y0234476D01*
X0223784Y0234622D01*
X0223739Y0234768D01*
X0223698Y0234916D01*
X0223661Y0235064D01*
X0223627Y0235214D01*
X0223597Y0235365D01*
X0223572Y0235516D01*
X0223550Y0235667D01*
X0223532Y0235820D01*
X0223518Y0235972D01*
X0223508Y0236125D01*
X0223502Y0236279D01*
X0223500Y0236432D01*
M02*
