M48
INCH,TZ
FMAT,2
ICI,OFF
T01C.0276
T02C.032
T03C.0354
T04C.0394
T05C.04
T06C.1181
T07C.126
%
T01
G05
X18976Y15647
X20748Y15844
X20748Y19387
X18976Y19387
X25275Y19593
X25275Y21553
X29803Y25883
X27561Y28379
X26850Y27879
X26850Y28879
X29803Y29427
X34724Y19313
X36496Y19313
X36496Y16313
X35708Y15450
X34724Y16313
X35708Y13875
X34330Y8879
X34330Y5879
T02
X36102Y6379
X36102Y8379
X35791Y21435
X34791Y21435
T03
X4893Y9153
X4893Y10153
X4893Y11153
X4893Y12153
X4893Y13153
X4893Y14153
X4893Y15153
X4893Y16153
X22645Y16593
X22645Y17593
X22645Y18593
X22645Y19593
X22645Y20593
X22645Y15593
X22645Y14593
X22645Y13593
X22645Y12593
X22645Y11593
X22645Y10593
X22645Y9593
X22645Y8593
X22645Y7593
X22645Y6593
X32724Y6593
X32724Y7593
X32724Y8593
X32724Y9593
X32724Y10593
X32724Y11593
X32724Y12593
X32724Y13593
X32724Y14593
X32724Y15593
X32724Y16593
X32724Y17593
X32724Y18593
X32724Y19593
X32724Y20593
T04
X16651Y22108
X16651Y23108
X16651Y24108
X16651Y25108
X16651Y26108
X16651Y27108
T05
X19389Y27899
X22389Y27899
X34818Y13187
X36598Y13187
X36598Y10627
X34818Y10627
T06
X32389Y5336
X22941Y5336
X22941Y23643
X32389Y23643
T07
X36299Y29427
X4015Y29427
M30
