G75*
%MOIN*%
%OFA0B0*%
%FSLAX25Y25*%
%IPPOS*%
%LPD*%
%AMOC8*
5,1,8,0,0,1.08239X$1,22.5*
%
%ADD10C,0.01000*%
%ADD11C,0.00600*%
%ADD12C,0.00500*%
%ADD13C,0.00400*%
%ADD14C,0.00700*%
%ADD15C,0.02000*%
%ADD16R,0.02000X0.01500*%
%ADD17C,0.00197*%
%ADD18C,0.00200*%
%ADD19C,0.01200*%
D10*
X0218579Y0039582D02*
X0218579Y0246275D01*
X0259918Y0246275D01*
X0259918Y0232495D01*
X0289446Y0232495D01*
X0289446Y0246275D01*
X0289446Y0250212D01*
X0259918Y0250212D01*
X0259918Y0246275D01*
X0289446Y0246275D02*
X0334721Y0246275D01*
X0334721Y0039582D01*
X0311099Y0039582D01*
X0311099Y0071078D01*
X0240233Y0071078D01*
X0240233Y0039582D01*
X0311099Y0039582D01*
X0305194Y0043519D02*
X0305194Y0066511D01*
X0295351Y0055330D02*
X0295351Y0043519D01*
X0305194Y0043519D01*
X0295351Y0055330D02*
X0283540Y0055330D01*
X0283540Y0043519D01*
X0271729Y0043519D01*
X0271729Y0055330D01*
X0259918Y0055330D01*
X0259918Y0043519D01*
X0248107Y0043519D01*
X0248107Y0065172D01*
X0244170Y0065172D02*
X0244170Y0043519D01*
X0248107Y0043519D01*
X0240233Y0039582D02*
X0218579Y0039582D01*
X0352910Y0206346D02*
X0353102Y0206348D01*
X0353294Y0206355D01*
X0353486Y0206367D01*
X0353678Y0206383D01*
X0353869Y0206404D01*
X0354059Y0206429D01*
X0354249Y0206459D01*
X0354438Y0206493D01*
X0354626Y0206532D01*
X0354813Y0206576D01*
X0354999Y0206624D01*
X0355184Y0206676D01*
X0355368Y0206733D01*
X0355550Y0206794D01*
X0355730Y0206860D01*
X0355909Y0206930D01*
X0356087Y0207004D01*
X0356262Y0207082D01*
X0356436Y0207165D01*
X0356607Y0207252D01*
X0356776Y0207342D01*
X0356943Y0207437D01*
X0357108Y0207536D01*
X0357271Y0207639D01*
X0357430Y0207746D01*
X0357588Y0207856D01*
X0357742Y0207970D01*
X0357894Y0208088D01*
X0358043Y0208210D01*
X0358189Y0208335D01*
X0358331Y0208463D01*
X0358471Y0208595D01*
X0358608Y0208730D01*
X0358741Y0208869D01*
X0358871Y0209010D01*
X0358997Y0209155D01*
X0359120Y0209303D01*
X0359239Y0209453D01*
X0359355Y0209607D01*
X0359467Y0209763D01*
X0359575Y0209922D01*
X0359680Y0210083D01*
X0359780Y0210247D01*
X0359876Y0210413D01*
X0359969Y0210581D01*
X0359856Y0218315D02*
X0359757Y0218484D01*
X0359653Y0218650D01*
X0359546Y0218814D01*
X0359435Y0218975D01*
X0359320Y0219133D01*
X0359201Y0219288D01*
X0359078Y0219441D01*
X0358952Y0219590D01*
X0358822Y0219736D01*
X0358688Y0219879D01*
X0358551Y0220019D01*
X0358411Y0220155D01*
X0358267Y0220288D01*
X0358120Y0220417D01*
X0357970Y0220543D01*
X0357817Y0220664D01*
X0357661Y0220783D01*
X0357502Y0220897D01*
X0357341Y0221007D01*
X0357176Y0221113D01*
X0357010Y0221216D01*
X0356840Y0221314D01*
X0356669Y0221408D01*
X0356495Y0221498D01*
X0356319Y0221583D01*
X0356141Y0221665D01*
X0355961Y0221741D01*
X0355779Y0221814D01*
X0355596Y0221882D01*
X0355411Y0221945D01*
X0355224Y0222004D01*
X0355036Y0222058D01*
X0354847Y0222108D01*
X0354657Y0222153D01*
X0354465Y0222193D01*
X0354273Y0222229D01*
X0354080Y0222260D01*
X0353886Y0222286D01*
X0353691Y0222308D01*
X0353496Y0222324D01*
X0353301Y0222336D01*
X0353105Y0222344D01*
X0352910Y0222346D01*
X0352717Y0222344D01*
X0352524Y0222337D01*
X0352332Y0222325D01*
X0352139Y0222309D01*
X0351947Y0222288D01*
X0351756Y0222262D01*
X0351566Y0222232D01*
X0351376Y0222197D01*
X0351187Y0222158D01*
X0350999Y0222114D01*
X0350812Y0222066D01*
X0350626Y0222013D01*
X0350442Y0221956D01*
X0350259Y0221894D01*
X0350078Y0221828D01*
X0349898Y0221757D01*
X0349720Y0221683D01*
X0349544Y0221604D01*
X0349370Y0221520D01*
X0349198Y0221433D01*
X0349028Y0221341D01*
X0348861Y0221245D01*
X0348695Y0221146D01*
X0348532Y0221042D01*
X0348372Y0220935D01*
X0348215Y0220823D01*
X0348060Y0220708D01*
X0347908Y0220589D01*
X0347759Y0220467D01*
X0347612Y0220341D01*
X0347469Y0220211D01*
X0347329Y0220078D01*
X0347193Y0219942D01*
X0347059Y0219802D01*
X0346930Y0219660D01*
X0346803Y0219514D01*
X0346764Y0209224D02*
X0346891Y0209076D01*
X0347021Y0208931D01*
X0347154Y0208790D01*
X0347291Y0208651D01*
X0347431Y0208516D01*
X0347575Y0208385D01*
X0347722Y0208257D01*
X0347871Y0208132D01*
X0348024Y0208011D01*
X0348179Y0207894D01*
X0348338Y0207781D01*
X0348499Y0207672D01*
X0348663Y0207567D01*
X0348829Y0207465D01*
X0348998Y0207368D01*
X0349168Y0207275D01*
X0349342Y0207186D01*
X0349517Y0207101D01*
X0349694Y0207021D01*
X0349873Y0206945D01*
X0350054Y0206873D01*
X0350237Y0206806D01*
X0350421Y0206743D01*
X0350607Y0206685D01*
X0350794Y0206631D01*
X0350982Y0206582D01*
X0351172Y0206537D01*
X0351362Y0206497D01*
X0351554Y0206462D01*
X0351746Y0206431D01*
X0351939Y0206405D01*
X0352133Y0206384D01*
X0352327Y0206367D01*
X0352521Y0206355D01*
X0352715Y0206348D01*
X0352910Y0206346D01*
X0196394Y0266991D02*
X0191394Y0266991D01*
X0193894Y0264491D02*
X0193894Y0269491D01*
D11*
X0188894Y0266991D02*
X0188896Y0267132D01*
X0188902Y0267273D01*
X0188912Y0267413D01*
X0188926Y0267553D01*
X0188944Y0267693D01*
X0188965Y0267832D01*
X0188991Y0267971D01*
X0189020Y0268109D01*
X0189054Y0268245D01*
X0189091Y0268381D01*
X0189132Y0268516D01*
X0189177Y0268650D01*
X0189226Y0268782D01*
X0189278Y0268913D01*
X0189334Y0269042D01*
X0189394Y0269169D01*
X0189457Y0269295D01*
X0189523Y0269419D01*
X0189594Y0269542D01*
X0189667Y0269662D01*
X0189744Y0269780D01*
X0189824Y0269896D01*
X0189908Y0270009D01*
X0189994Y0270120D01*
X0190084Y0270229D01*
X0190177Y0270335D01*
X0190272Y0270438D01*
X0190371Y0270539D01*
X0190472Y0270637D01*
X0190576Y0270732D01*
X0190683Y0270824D01*
X0190792Y0270913D01*
X0190904Y0270998D01*
X0191018Y0271081D01*
X0191134Y0271161D01*
X0191253Y0271237D01*
X0191374Y0271309D01*
X0191496Y0271379D01*
X0191621Y0271444D01*
X0191747Y0271507D01*
X0191875Y0271565D01*
X0192005Y0271620D01*
X0192136Y0271672D01*
X0192269Y0271719D01*
X0192403Y0271763D01*
X0192538Y0271804D01*
X0192674Y0271840D01*
X0192811Y0271872D01*
X0192949Y0271901D01*
X0193087Y0271926D01*
X0193227Y0271946D01*
X0193367Y0271963D01*
X0193507Y0271976D01*
X0193648Y0271985D01*
X0193788Y0271990D01*
X0193929Y0271991D01*
X0194070Y0271988D01*
X0194211Y0271981D01*
X0194351Y0271970D01*
X0194491Y0271955D01*
X0194631Y0271936D01*
X0194770Y0271914D01*
X0194908Y0271887D01*
X0195046Y0271857D01*
X0195182Y0271822D01*
X0195318Y0271784D01*
X0195452Y0271742D01*
X0195586Y0271696D01*
X0195718Y0271647D01*
X0195848Y0271593D01*
X0195977Y0271536D01*
X0196104Y0271476D01*
X0196230Y0271412D01*
X0196353Y0271344D01*
X0196475Y0271273D01*
X0196595Y0271199D01*
X0196712Y0271121D01*
X0196827Y0271040D01*
X0196940Y0270956D01*
X0197051Y0270869D01*
X0197159Y0270778D01*
X0197264Y0270685D01*
X0197367Y0270588D01*
X0197467Y0270489D01*
X0197564Y0270387D01*
X0197658Y0270282D01*
X0197749Y0270175D01*
X0197837Y0270065D01*
X0197922Y0269953D01*
X0198004Y0269838D01*
X0198083Y0269721D01*
X0198158Y0269602D01*
X0198230Y0269481D01*
X0198298Y0269358D01*
X0198363Y0269233D01*
X0198425Y0269106D01*
X0198482Y0268977D01*
X0198537Y0268847D01*
X0198587Y0268716D01*
X0198634Y0268583D01*
X0198677Y0268449D01*
X0198716Y0268313D01*
X0198751Y0268177D01*
X0198783Y0268040D01*
X0198810Y0267902D01*
X0198834Y0267763D01*
X0198854Y0267623D01*
X0198870Y0267483D01*
X0198882Y0267343D01*
X0198890Y0267202D01*
X0198894Y0267061D01*
X0198894Y0266921D01*
X0198890Y0266780D01*
X0198882Y0266639D01*
X0198870Y0266499D01*
X0198854Y0266359D01*
X0198834Y0266219D01*
X0198810Y0266080D01*
X0198783Y0265942D01*
X0198751Y0265805D01*
X0198716Y0265669D01*
X0198677Y0265533D01*
X0198634Y0265399D01*
X0198587Y0265266D01*
X0198537Y0265135D01*
X0198482Y0265005D01*
X0198425Y0264876D01*
X0198363Y0264749D01*
X0198298Y0264624D01*
X0198230Y0264501D01*
X0198158Y0264380D01*
X0198083Y0264261D01*
X0198004Y0264144D01*
X0197922Y0264029D01*
X0197837Y0263917D01*
X0197749Y0263807D01*
X0197658Y0263700D01*
X0197564Y0263595D01*
X0197467Y0263493D01*
X0197367Y0263394D01*
X0197264Y0263297D01*
X0197159Y0263204D01*
X0197051Y0263113D01*
X0196940Y0263026D01*
X0196827Y0262942D01*
X0196712Y0262861D01*
X0196595Y0262783D01*
X0196475Y0262709D01*
X0196353Y0262638D01*
X0196230Y0262570D01*
X0196104Y0262506D01*
X0195977Y0262446D01*
X0195848Y0262389D01*
X0195718Y0262335D01*
X0195586Y0262286D01*
X0195452Y0262240D01*
X0195318Y0262198D01*
X0195182Y0262160D01*
X0195046Y0262125D01*
X0194908Y0262095D01*
X0194770Y0262068D01*
X0194631Y0262046D01*
X0194491Y0262027D01*
X0194351Y0262012D01*
X0194211Y0262001D01*
X0194070Y0261994D01*
X0193929Y0261991D01*
X0193788Y0261992D01*
X0193648Y0261997D01*
X0193507Y0262006D01*
X0193367Y0262019D01*
X0193227Y0262036D01*
X0193087Y0262056D01*
X0192949Y0262081D01*
X0192811Y0262110D01*
X0192674Y0262142D01*
X0192538Y0262178D01*
X0192403Y0262219D01*
X0192269Y0262263D01*
X0192136Y0262310D01*
X0192005Y0262362D01*
X0191875Y0262417D01*
X0191747Y0262475D01*
X0191621Y0262538D01*
X0191496Y0262603D01*
X0191374Y0262673D01*
X0191253Y0262745D01*
X0191134Y0262821D01*
X0191018Y0262901D01*
X0190904Y0262984D01*
X0190792Y0263069D01*
X0190683Y0263158D01*
X0190576Y0263250D01*
X0190472Y0263345D01*
X0190371Y0263443D01*
X0190272Y0263544D01*
X0190177Y0263647D01*
X0190084Y0263753D01*
X0189994Y0263862D01*
X0189908Y0263973D01*
X0189824Y0264086D01*
X0189744Y0264202D01*
X0189667Y0264320D01*
X0189594Y0264440D01*
X0189523Y0264563D01*
X0189457Y0264687D01*
X0189394Y0264813D01*
X0189334Y0264940D01*
X0189278Y0265069D01*
X0189226Y0265200D01*
X0189177Y0265332D01*
X0189132Y0265466D01*
X0189091Y0265601D01*
X0189054Y0265737D01*
X0189020Y0265873D01*
X0188991Y0266011D01*
X0188965Y0266150D01*
X0188944Y0266289D01*
X0188926Y0266429D01*
X0188912Y0266569D01*
X0188902Y0266709D01*
X0188896Y0266850D01*
X0188894Y0266991D01*
X0203894Y0278991D02*
X0203896Y0279132D01*
X0203902Y0279273D01*
X0203912Y0279413D01*
X0203926Y0279553D01*
X0203944Y0279693D01*
X0203965Y0279832D01*
X0203991Y0279971D01*
X0204020Y0280109D01*
X0204054Y0280245D01*
X0204091Y0280381D01*
X0204132Y0280516D01*
X0204177Y0280650D01*
X0204226Y0280782D01*
X0204278Y0280913D01*
X0204334Y0281042D01*
X0204394Y0281169D01*
X0204457Y0281295D01*
X0204523Y0281419D01*
X0204594Y0281542D01*
X0204667Y0281662D01*
X0204744Y0281780D01*
X0204824Y0281896D01*
X0204908Y0282009D01*
X0204994Y0282120D01*
X0205084Y0282229D01*
X0205177Y0282335D01*
X0205272Y0282438D01*
X0205371Y0282539D01*
X0205472Y0282637D01*
X0205576Y0282732D01*
X0205683Y0282824D01*
X0205792Y0282913D01*
X0205904Y0282998D01*
X0206018Y0283081D01*
X0206134Y0283161D01*
X0206253Y0283237D01*
X0206374Y0283309D01*
X0206496Y0283379D01*
X0206621Y0283444D01*
X0206747Y0283507D01*
X0206875Y0283565D01*
X0207005Y0283620D01*
X0207136Y0283672D01*
X0207269Y0283719D01*
X0207403Y0283763D01*
X0207538Y0283804D01*
X0207674Y0283840D01*
X0207811Y0283872D01*
X0207949Y0283901D01*
X0208087Y0283926D01*
X0208227Y0283946D01*
X0208367Y0283963D01*
X0208507Y0283976D01*
X0208648Y0283985D01*
X0208788Y0283990D01*
X0208929Y0283991D01*
X0209070Y0283988D01*
X0209211Y0283981D01*
X0209351Y0283970D01*
X0209491Y0283955D01*
X0209631Y0283936D01*
X0209770Y0283914D01*
X0209908Y0283887D01*
X0210046Y0283857D01*
X0210182Y0283822D01*
X0210318Y0283784D01*
X0210452Y0283742D01*
X0210586Y0283696D01*
X0210718Y0283647D01*
X0210848Y0283593D01*
X0210977Y0283536D01*
X0211104Y0283476D01*
X0211230Y0283412D01*
X0211353Y0283344D01*
X0211475Y0283273D01*
X0211595Y0283199D01*
X0211712Y0283121D01*
X0211827Y0283040D01*
X0211940Y0282956D01*
X0212051Y0282869D01*
X0212159Y0282778D01*
X0212264Y0282685D01*
X0212367Y0282588D01*
X0212467Y0282489D01*
X0212564Y0282387D01*
X0212658Y0282282D01*
X0212749Y0282175D01*
X0212837Y0282065D01*
X0212922Y0281953D01*
X0213004Y0281838D01*
X0213083Y0281721D01*
X0213158Y0281602D01*
X0213230Y0281481D01*
X0213298Y0281358D01*
X0213363Y0281233D01*
X0213425Y0281106D01*
X0213482Y0280977D01*
X0213537Y0280847D01*
X0213587Y0280716D01*
X0213634Y0280583D01*
X0213677Y0280449D01*
X0213716Y0280313D01*
X0213751Y0280177D01*
X0213783Y0280040D01*
X0213810Y0279902D01*
X0213834Y0279763D01*
X0213854Y0279623D01*
X0213870Y0279483D01*
X0213882Y0279343D01*
X0213890Y0279202D01*
X0213894Y0279061D01*
X0213894Y0278921D01*
X0213890Y0278780D01*
X0213882Y0278639D01*
X0213870Y0278499D01*
X0213854Y0278359D01*
X0213834Y0278219D01*
X0213810Y0278080D01*
X0213783Y0277942D01*
X0213751Y0277805D01*
X0213716Y0277669D01*
X0213677Y0277533D01*
X0213634Y0277399D01*
X0213587Y0277266D01*
X0213537Y0277135D01*
X0213482Y0277005D01*
X0213425Y0276876D01*
X0213363Y0276749D01*
X0213298Y0276624D01*
X0213230Y0276501D01*
X0213158Y0276380D01*
X0213083Y0276261D01*
X0213004Y0276144D01*
X0212922Y0276029D01*
X0212837Y0275917D01*
X0212749Y0275807D01*
X0212658Y0275700D01*
X0212564Y0275595D01*
X0212467Y0275493D01*
X0212367Y0275394D01*
X0212264Y0275297D01*
X0212159Y0275204D01*
X0212051Y0275113D01*
X0211940Y0275026D01*
X0211827Y0274942D01*
X0211712Y0274861D01*
X0211595Y0274783D01*
X0211475Y0274709D01*
X0211353Y0274638D01*
X0211230Y0274570D01*
X0211104Y0274506D01*
X0210977Y0274446D01*
X0210848Y0274389D01*
X0210718Y0274335D01*
X0210586Y0274286D01*
X0210452Y0274240D01*
X0210318Y0274198D01*
X0210182Y0274160D01*
X0210046Y0274125D01*
X0209908Y0274095D01*
X0209770Y0274068D01*
X0209631Y0274046D01*
X0209491Y0274027D01*
X0209351Y0274012D01*
X0209211Y0274001D01*
X0209070Y0273994D01*
X0208929Y0273991D01*
X0208788Y0273992D01*
X0208648Y0273997D01*
X0208507Y0274006D01*
X0208367Y0274019D01*
X0208227Y0274036D01*
X0208087Y0274056D01*
X0207949Y0274081D01*
X0207811Y0274110D01*
X0207674Y0274142D01*
X0207538Y0274178D01*
X0207403Y0274219D01*
X0207269Y0274263D01*
X0207136Y0274310D01*
X0207005Y0274362D01*
X0206875Y0274417D01*
X0206747Y0274475D01*
X0206621Y0274538D01*
X0206496Y0274603D01*
X0206374Y0274673D01*
X0206253Y0274745D01*
X0206134Y0274821D01*
X0206018Y0274901D01*
X0205904Y0274984D01*
X0205792Y0275069D01*
X0205683Y0275158D01*
X0205576Y0275250D01*
X0205472Y0275345D01*
X0205371Y0275443D01*
X0205272Y0275544D01*
X0205177Y0275647D01*
X0205084Y0275753D01*
X0204994Y0275862D01*
X0204908Y0275973D01*
X0204824Y0276086D01*
X0204744Y0276202D01*
X0204667Y0276320D01*
X0204594Y0276440D01*
X0204523Y0276563D01*
X0204457Y0276687D01*
X0204394Y0276813D01*
X0204334Y0276940D01*
X0204278Y0277069D01*
X0204226Y0277200D01*
X0204177Y0277332D01*
X0204132Y0277466D01*
X0204091Y0277601D01*
X0204054Y0277737D01*
X0204020Y0277873D01*
X0203991Y0278011D01*
X0203965Y0278150D01*
X0203944Y0278289D01*
X0203926Y0278429D01*
X0203912Y0278569D01*
X0203902Y0278709D01*
X0203896Y0278850D01*
X0203894Y0278991D01*
X0181394Y0278991D02*
X0181402Y0279666D01*
X0181427Y0280340D01*
X0181469Y0281014D01*
X0181526Y0281686D01*
X0181601Y0282357D01*
X0181692Y0283026D01*
X0181799Y0283692D01*
X0181922Y0284356D01*
X0182062Y0285016D01*
X0182218Y0285673D01*
X0182390Y0286326D01*
X0182578Y0286974D01*
X0182782Y0287617D01*
X0183002Y0288255D01*
X0183237Y0288888D01*
X0183487Y0289515D01*
X0183753Y0290135D01*
X0184034Y0290749D01*
X0184330Y0291355D01*
X0184641Y0291954D01*
X0184967Y0292546D01*
X0185306Y0293129D01*
X0185661Y0293703D01*
X0186029Y0294269D01*
X0186410Y0294826D01*
X0186806Y0295373D01*
X0187214Y0295910D01*
X0187636Y0296437D01*
X0188071Y0296953D01*
X0188518Y0297459D01*
X0188977Y0297953D01*
X0189449Y0298436D01*
X0189932Y0298908D01*
X0190426Y0299367D01*
X0190932Y0299814D01*
X0191448Y0300249D01*
X0191975Y0300671D01*
X0192512Y0301079D01*
X0193059Y0301475D01*
X0193616Y0301856D01*
X0194182Y0302224D01*
X0194756Y0302579D01*
X0195339Y0302918D01*
X0195931Y0303244D01*
X0196530Y0303555D01*
X0197136Y0303851D01*
X0197750Y0304132D01*
X0198370Y0304398D01*
X0198997Y0304648D01*
X0199630Y0304883D01*
X0200268Y0305103D01*
X0200911Y0305307D01*
X0201559Y0305495D01*
X0202212Y0305667D01*
X0202869Y0305823D01*
X0203529Y0305963D01*
X0204193Y0306086D01*
X0204859Y0306193D01*
X0205528Y0306284D01*
X0206199Y0306359D01*
X0206871Y0306416D01*
X0207545Y0306458D01*
X0208219Y0306483D01*
X0208894Y0306491D01*
X0209569Y0306483D01*
X0210243Y0306458D01*
X0210917Y0306416D01*
X0211589Y0306359D01*
X0212260Y0306284D01*
X0212929Y0306193D01*
X0213595Y0306086D01*
X0214259Y0305963D01*
X0214919Y0305823D01*
X0215576Y0305667D01*
X0216229Y0305495D01*
X0216877Y0305307D01*
X0217520Y0305103D01*
X0218158Y0304883D01*
X0218791Y0304648D01*
X0219418Y0304398D01*
X0220038Y0304132D01*
X0220652Y0303851D01*
X0221258Y0303555D01*
X0221857Y0303244D01*
X0222449Y0302918D01*
X0223032Y0302579D01*
X0223606Y0302224D01*
X0224172Y0301856D01*
X0224729Y0301475D01*
X0225276Y0301079D01*
X0225813Y0300671D01*
X0226340Y0300249D01*
X0226856Y0299814D01*
X0227362Y0299367D01*
X0227856Y0298908D01*
X0228339Y0298436D01*
X0228811Y0297953D01*
X0229270Y0297459D01*
X0229717Y0296953D01*
X0230152Y0296437D01*
X0230574Y0295910D01*
X0230982Y0295373D01*
X0231378Y0294826D01*
X0231759Y0294269D01*
X0232127Y0293703D01*
X0232482Y0293129D01*
X0232821Y0292546D01*
X0233147Y0291954D01*
X0233458Y0291355D01*
X0233754Y0290749D01*
X0234035Y0290135D01*
X0234301Y0289515D01*
X0234551Y0288888D01*
X0234786Y0288255D01*
X0235006Y0287617D01*
X0235210Y0286974D01*
X0235398Y0286326D01*
X0235570Y0285673D01*
X0235726Y0285016D01*
X0235866Y0284356D01*
X0235989Y0283692D01*
X0236096Y0283026D01*
X0236187Y0282357D01*
X0236262Y0281686D01*
X0236319Y0281014D01*
X0236361Y0280340D01*
X0236386Y0279666D01*
X0236394Y0278991D01*
X0236386Y0278316D01*
X0236361Y0277642D01*
X0236319Y0276968D01*
X0236262Y0276296D01*
X0236187Y0275625D01*
X0236096Y0274956D01*
X0235989Y0274290D01*
X0235866Y0273626D01*
X0235726Y0272966D01*
X0235570Y0272309D01*
X0235398Y0271656D01*
X0235210Y0271008D01*
X0235006Y0270365D01*
X0234786Y0269727D01*
X0234551Y0269094D01*
X0234301Y0268467D01*
X0234035Y0267847D01*
X0233754Y0267233D01*
X0233458Y0266627D01*
X0233147Y0266028D01*
X0232821Y0265436D01*
X0232482Y0264853D01*
X0232127Y0264279D01*
X0231759Y0263713D01*
X0231378Y0263156D01*
X0230982Y0262609D01*
X0230574Y0262072D01*
X0230152Y0261545D01*
X0229717Y0261029D01*
X0229270Y0260523D01*
X0228811Y0260029D01*
X0228339Y0259546D01*
X0227856Y0259074D01*
X0227362Y0258615D01*
X0226856Y0258168D01*
X0226340Y0257733D01*
X0225813Y0257311D01*
X0225276Y0256903D01*
X0224729Y0256507D01*
X0224172Y0256126D01*
X0223606Y0255758D01*
X0223032Y0255403D01*
X0222449Y0255064D01*
X0221857Y0254738D01*
X0221258Y0254427D01*
X0220652Y0254131D01*
X0220038Y0253850D01*
X0219418Y0253584D01*
X0218791Y0253334D01*
X0218158Y0253099D01*
X0217520Y0252879D01*
X0216877Y0252675D01*
X0216229Y0252487D01*
X0215576Y0252315D01*
X0214919Y0252159D01*
X0214259Y0252019D01*
X0213595Y0251896D01*
X0212929Y0251789D01*
X0212260Y0251698D01*
X0211589Y0251623D01*
X0210917Y0251566D01*
X0210243Y0251524D01*
X0209569Y0251499D01*
X0208894Y0251491D01*
X0208219Y0251499D01*
X0207545Y0251524D01*
X0206871Y0251566D01*
X0206199Y0251623D01*
X0205528Y0251698D01*
X0204859Y0251789D01*
X0204193Y0251896D01*
X0203529Y0252019D01*
X0202869Y0252159D01*
X0202212Y0252315D01*
X0201559Y0252487D01*
X0200911Y0252675D01*
X0200268Y0252879D01*
X0199630Y0253099D01*
X0198997Y0253334D01*
X0198370Y0253584D01*
X0197750Y0253850D01*
X0197136Y0254131D01*
X0196530Y0254427D01*
X0195931Y0254738D01*
X0195339Y0255064D01*
X0194756Y0255403D01*
X0194182Y0255758D01*
X0193616Y0256126D01*
X0193059Y0256507D01*
X0192512Y0256903D01*
X0191975Y0257311D01*
X0191448Y0257733D01*
X0190932Y0258168D01*
X0190426Y0258615D01*
X0189932Y0259074D01*
X0189449Y0259546D01*
X0188977Y0260029D01*
X0188518Y0260523D01*
X0188071Y0261029D01*
X0187636Y0261545D01*
X0187214Y0262072D01*
X0186806Y0262609D01*
X0186410Y0263156D01*
X0186029Y0263713D01*
X0185661Y0264279D01*
X0185306Y0264853D01*
X0184967Y0265436D01*
X0184641Y0266028D01*
X0184330Y0266627D01*
X0184034Y0267233D01*
X0183753Y0267847D01*
X0183487Y0268467D01*
X0183237Y0269094D01*
X0183002Y0269727D01*
X0182782Y0270365D01*
X0182578Y0271008D01*
X0182390Y0271656D01*
X0182218Y0272309D01*
X0182062Y0272966D01*
X0181922Y0273626D01*
X0181799Y0274290D01*
X0181692Y0274956D01*
X0181601Y0275625D01*
X0181526Y0276296D01*
X0181469Y0276968D01*
X0181427Y0277642D01*
X0181402Y0278316D01*
X0181394Y0278991D01*
X0262394Y0275546D02*
X0262394Y0292042D01*
X0262394Y0292040D02*
X0262596Y0292195D01*
X0262801Y0292346D01*
X0263010Y0292491D01*
X0263223Y0292631D01*
X0263439Y0292766D01*
X0263658Y0292895D01*
X0263880Y0293019D01*
X0264105Y0293138D01*
X0264333Y0293252D01*
X0264563Y0293359D01*
X0264796Y0293461D01*
X0265032Y0293558D01*
X0265270Y0293649D01*
X0265510Y0293734D01*
X0265752Y0293813D01*
X0265995Y0293886D01*
X0266241Y0293953D01*
X0266488Y0294015D01*
X0266736Y0294070D01*
X0266986Y0294119D01*
X0267237Y0294162D01*
X0267488Y0294199D01*
X0267741Y0294230D01*
X0267994Y0294255D01*
X0268248Y0294274D01*
X0268502Y0294287D01*
X0268757Y0294293D01*
X0269011Y0294293D01*
X0269266Y0294287D01*
X0269520Y0294275D01*
X0269774Y0294257D01*
X0270027Y0294233D01*
X0270280Y0294202D01*
X0270531Y0294166D01*
X0270782Y0294123D01*
X0271032Y0294074D01*
X0271281Y0294019D01*
X0271528Y0293958D01*
X0271773Y0293892D01*
X0272017Y0293819D01*
X0272259Y0293740D01*
X0272499Y0293656D01*
X0272737Y0293565D01*
X0272973Y0293469D01*
X0273206Y0293368D01*
X0273437Y0293260D01*
X0273665Y0293147D01*
X0273890Y0293029D01*
X0274113Y0292905D01*
X0274332Y0292776D01*
X0274548Y0292642D01*
X0274761Y0292502D01*
X0274970Y0292357D01*
X0275176Y0292208D01*
X0275378Y0292053D01*
X0275576Y0291893D01*
X0275770Y0291729D01*
X0275961Y0291560D01*
X0276147Y0291386D01*
X0276329Y0291208D01*
X0276506Y0291026D01*
X0276679Y0290839D01*
X0276848Y0290649D01*
X0277012Y0290454D01*
X0277171Y0290255D01*
X0277325Y0290053D01*
X0277474Y0289847D01*
X0277618Y0289637D01*
X0277757Y0289424D01*
X0277891Y0289207D01*
X0278020Y0288988D01*
X0278143Y0288765D01*
X0278261Y0288539D01*
X0278373Y0288311D01*
X0278479Y0288080D01*
X0278581Y0287846D01*
X0278676Y0287610D01*
X0278766Y0287372D01*
X0278849Y0287132D01*
X0278927Y0286890D01*
X0278999Y0286649D01*
X0279064Y0286406D01*
X0279124Y0286162D01*
X0279177Y0285916D01*
X0279225Y0285669D01*
X0279267Y0285421D01*
X0279303Y0285173D01*
X0279333Y0284923D01*
X0279357Y0284673D01*
X0279375Y0284422D01*
X0279387Y0284171D01*
X0279393Y0283920D01*
X0279393Y0283668D01*
X0279387Y0283417D01*
X0279375Y0283166D01*
X0279357Y0282915D01*
X0279333Y0282665D01*
X0279303Y0282415D01*
X0279267Y0282167D01*
X0279225Y0281919D01*
X0279177Y0281672D01*
X0279124Y0281426D01*
X0279064Y0281182D01*
X0278999Y0280939D01*
X0278927Y0280698D01*
X0278927Y0280696D02*
X0278849Y0280454D01*
X0278765Y0280214D01*
X0278676Y0279976D01*
X0278581Y0279740D01*
X0278479Y0279506D01*
X0278373Y0279275D01*
X0278260Y0279047D01*
X0278143Y0278821D01*
X0278020Y0278598D01*
X0277891Y0278379D01*
X0277757Y0278162D01*
X0277618Y0277949D01*
X0277474Y0277739D01*
X0277325Y0277533D01*
X0277171Y0277331D01*
X0277012Y0277132D01*
X0276848Y0276937D01*
X0276679Y0276746D01*
X0276506Y0276560D01*
X0276329Y0276377D01*
X0276147Y0276199D01*
X0275961Y0276026D01*
X0275770Y0275857D01*
X0275576Y0275693D01*
X0275378Y0275533D01*
X0275176Y0275378D01*
X0274970Y0275229D01*
X0274761Y0275084D01*
X0274548Y0274944D01*
X0274332Y0274810D01*
X0274112Y0274681D01*
X0273890Y0274557D01*
X0273665Y0274438D01*
X0273437Y0274326D01*
X0273206Y0274218D01*
X0272973Y0274117D01*
X0272737Y0274021D01*
X0272499Y0273930D01*
X0272259Y0273846D01*
X0272017Y0273767D01*
X0271773Y0273694D01*
X0271527Y0273628D01*
X0271280Y0273567D01*
X0271032Y0273512D01*
X0270782Y0273463D01*
X0270531Y0273420D01*
X0270279Y0273384D01*
X0270027Y0273353D01*
X0269773Y0273329D01*
X0269520Y0273311D01*
X0269265Y0273299D01*
X0269011Y0273293D01*
X0268756Y0273293D01*
X0268502Y0273299D01*
X0268248Y0273312D01*
X0267994Y0273331D01*
X0267741Y0273356D01*
X0267488Y0273387D01*
X0267236Y0273424D01*
X0266986Y0273467D01*
X0266736Y0273516D01*
X0266487Y0273572D01*
X0266240Y0273633D01*
X0265995Y0273700D01*
X0265751Y0273773D01*
X0265509Y0273852D01*
X0265270Y0273937D01*
X0265032Y0274028D01*
X0264796Y0274125D01*
X0264563Y0274227D01*
X0264333Y0274335D01*
X0264105Y0274448D01*
X0263880Y0274567D01*
X0263658Y0274691D01*
X0263439Y0274821D01*
X0263223Y0274955D01*
X0263010Y0275095D01*
X0262801Y0275241D01*
X0262596Y0275391D01*
X0262394Y0275546D01*
X0352910Y0220346D02*
X0353062Y0220344D01*
X0353213Y0220338D01*
X0353364Y0220329D01*
X0353516Y0220315D01*
X0353666Y0220298D01*
X0353816Y0220277D01*
X0353966Y0220252D01*
X0354115Y0220224D01*
X0354263Y0220191D01*
X0354410Y0220155D01*
X0354557Y0220116D01*
X0354702Y0220072D01*
X0354846Y0220025D01*
X0354989Y0219974D01*
X0355130Y0219920D01*
X0355271Y0219862D01*
X0355409Y0219801D01*
X0355546Y0219736D01*
X0355682Y0219667D01*
X0355815Y0219596D01*
X0355947Y0219521D01*
X0356077Y0219442D01*
X0356204Y0219361D01*
X0356330Y0219276D01*
X0356454Y0219188D01*
X0356575Y0219097D01*
X0356694Y0219003D01*
X0356810Y0218905D01*
X0356924Y0218805D01*
X0357036Y0218703D01*
X0357144Y0218597D01*
X0357250Y0218489D01*
X0357354Y0218378D01*
X0357454Y0218264D01*
X0357552Y0218148D01*
X0357646Y0218029D01*
X0352910Y0208346D02*
X0352756Y0208348D01*
X0352602Y0208354D01*
X0352448Y0208364D01*
X0352294Y0208378D01*
X0352141Y0208395D01*
X0351989Y0208417D01*
X0351837Y0208443D01*
X0351685Y0208472D01*
X0351535Y0208506D01*
X0351385Y0208543D01*
X0351237Y0208584D01*
X0351089Y0208629D01*
X0350943Y0208678D01*
X0350798Y0208730D01*
X0350655Y0208786D01*
X0350512Y0208846D01*
X0350372Y0208909D01*
X0350233Y0208976D01*
X0350096Y0209047D01*
X0349961Y0209121D01*
X0349828Y0209198D01*
X0349696Y0209279D01*
X0349567Y0209363D01*
X0349440Y0209451D01*
X0349316Y0209542D01*
X0349194Y0209635D01*
X0349074Y0209733D01*
X0348957Y0209833D01*
X0348842Y0209936D01*
X0348730Y0210042D01*
X0348621Y0210150D01*
X0348515Y0210262D01*
X0348411Y0210376D01*
X0348311Y0210493D01*
X0348213Y0210612D01*
X0348119Y0210734D01*
X0348028Y0210859D01*
X0352910Y0208346D02*
X0353060Y0208348D01*
X0353211Y0208354D01*
X0353361Y0208363D01*
X0353510Y0208376D01*
X0353660Y0208393D01*
X0353809Y0208414D01*
X0353957Y0208438D01*
X0354105Y0208466D01*
X0354252Y0208498D01*
X0354398Y0208533D01*
X0354543Y0208573D01*
X0354687Y0208615D01*
X0354830Y0208662D01*
X0354972Y0208712D01*
X0355113Y0208765D01*
X0355252Y0208822D01*
X0355390Y0208882D01*
X0355526Y0208946D01*
X0355660Y0209013D01*
X0355793Y0209084D01*
X0355924Y0209158D01*
X0356053Y0209235D01*
X0356180Y0209316D01*
X0356305Y0209399D01*
X0356428Y0209486D01*
X0356549Y0209575D01*
X0356667Y0209668D01*
X0356783Y0209764D01*
X0356897Y0209862D01*
X0357008Y0209963D01*
X0357117Y0210068D01*
X0357222Y0210174D01*
X0357326Y0210284D01*
X0357426Y0210396D01*
X0357524Y0210510D01*
X0357618Y0210627D01*
X0357710Y0210746D01*
X0352910Y0220346D02*
X0352758Y0220344D01*
X0352607Y0220338D01*
X0352456Y0220329D01*
X0352304Y0220315D01*
X0352154Y0220298D01*
X0352004Y0220277D01*
X0351854Y0220252D01*
X0351705Y0220224D01*
X0351557Y0220191D01*
X0351410Y0220155D01*
X0351263Y0220116D01*
X0351118Y0220072D01*
X0350974Y0220025D01*
X0350831Y0219974D01*
X0350690Y0219920D01*
X0350549Y0219862D01*
X0350411Y0219801D01*
X0350274Y0219736D01*
X0350138Y0219667D01*
X0350005Y0219596D01*
X0349873Y0219521D01*
X0349743Y0219442D01*
X0349616Y0219361D01*
X0349490Y0219276D01*
X0349366Y0219188D01*
X0349245Y0219097D01*
X0349126Y0219003D01*
X0349010Y0218905D01*
X0348896Y0218805D01*
X0348784Y0218703D01*
X0348676Y0218597D01*
X0348570Y0218489D01*
X0348466Y0218378D01*
X0348366Y0218264D01*
X0348268Y0218148D01*
X0348174Y0218029D01*
X0350241Y0188125D02*
X0344241Y0188125D01*
X0344181Y0188123D01*
X0344120Y0188118D01*
X0344061Y0188109D01*
X0344002Y0188096D01*
X0343943Y0188080D01*
X0343886Y0188060D01*
X0343831Y0188037D01*
X0343776Y0188010D01*
X0343724Y0187981D01*
X0343673Y0187948D01*
X0343624Y0187912D01*
X0343578Y0187874D01*
X0343534Y0187832D01*
X0343492Y0187788D01*
X0343454Y0187742D01*
X0343418Y0187693D01*
X0343385Y0187642D01*
X0343356Y0187590D01*
X0343329Y0187535D01*
X0343306Y0187480D01*
X0343286Y0187423D01*
X0343270Y0187364D01*
X0343257Y0187305D01*
X0343248Y0187246D01*
X0343243Y0187185D01*
X0343241Y0187125D01*
X0343241Y0185625D01*
X0343741Y0185125D01*
X0343741Y0171125D01*
X0343241Y0170625D01*
X0343241Y0169125D01*
X0343243Y0169065D01*
X0343248Y0169004D01*
X0343257Y0168945D01*
X0343270Y0168886D01*
X0343286Y0168827D01*
X0343306Y0168770D01*
X0343329Y0168715D01*
X0343356Y0168660D01*
X0343385Y0168608D01*
X0343418Y0168557D01*
X0343454Y0168508D01*
X0343492Y0168462D01*
X0343534Y0168418D01*
X0343578Y0168376D01*
X0343624Y0168338D01*
X0343673Y0168302D01*
X0343724Y0168269D01*
X0343776Y0168240D01*
X0343831Y0168213D01*
X0343886Y0168190D01*
X0343943Y0168170D01*
X0344002Y0168154D01*
X0344061Y0168141D01*
X0344120Y0168132D01*
X0344181Y0168127D01*
X0344241Y0168125D01*
X0350241Y0168125D01*
X0350301Y0168127D01*
X0350362Y0168132D01*
X0350421Y0168141D01*
X0350480Y0168154D01*
X0350539Y0168170D01*
X0350596Y0168190D01*
X0350651Y0168213D01*
X0350706Y0168240D01*
X0350758Y0168269D01*
X0350809Y0168302D01*
X0350858Y0168338D01*
X0350904Y0168376D01*
X0350948Y0168418D01*
X0350990Y0168462D01*
X0351028Y0168508D01*
X0351064Y0168557D01*
X0351097Y0168608D01*
X0351126Y0168660D01*
X0351153Y0168715D01*
X0351176Y0168770D01*
X0351196Y0168827D01*
X0351212Y0168886D01*
X0351225Y0168945D01*
X0351234Y0169004D01*
X0351239Y0169065D01*
X0351241Y0169125D01*
X0351241Y0170625D01*
X0350741Y0171125D01*
X0350741Y0185125D01*
X0351241Y0185625D01*
X0351241Y0187125D01*
X0351239Y0187185D01*
X0351234Y0187246D01*
X0351225Y0187305D01*
X0351212Y0187364D01*
X0351196Y0187423D01*
X0351176Y0187480D01*
X0351153Y0187535D01*
X0351126Y0187590D01*
X0351097Y0187642D01*
X0351064Y0187693D01*
X0351028Y0187742D01*
X0350990Y0187788D01*
X0350948Y0187832D01*
X0350904Y0187874D01*
X0350858Y0187912D01*
X0350809Y0187948D01*
X0350758Y0187981D01*
X0350706Y0188010D01*
X0350651Y0188037D01*
X0350596Y0188060D01*
X0350539Y0188080D01*
X0350480Y0188096D01*
X0350421Y0188109D01*
X0350362Y0188118D01*
X0350301Y0188123D01*
X0350241Y0188125D01*
X0360957Y0187125D02*
X0360957Y0185625D01*
X0361457Y0185125D01*
X0361457Y0171125D01*
X0360957Y0170625D01*
X0360957Y0169125D01*
X0360959Y0169065D01*
X0360964Y0169004D01*
X0360973Y0168945D01*
X0360986Y0168886D01*
X0361002Y0168827D01*
X0361022Y0168770D01*
X0361045Y0168715D01*
X0361072Y0168660D01*
X0361101Y0168608D01*
X0361134Y0168557D01*
X0361170Y0168508D01*
X0361208Y0168462D01*
X0361250Y0168418D01*
X0361294Y0168376D01*
X0361340Y0168338D01*
X0361389Y0168302D01*
X0361440Y0168269D01*
X0361492Y0168240D01*
X0361547Y0168213D01*
X0361602Y0168190D01*
X0361659Y0168170D01*
X0361718Y0168154D01*
X0361777Y0168141D01*
X0361836Y0168132D01*
X0361897Y0168127D01*
X0361957Y0168125D01*
X0367957Y0168125D01*
X0368017Y0168127D01*
X0368078Y0168132D01*
X0368137Y0168141D01*
X0368196Y0168154D01*
X0368255Y0168170D01*
X0368312Y0168190D01*
X0368367Y0168213D01*
X0368422Y0168240D01*
X0368474Y0168269D01*
X0368525Y0168302D01*
X0368574Y0168338D01*
X0368620Y0168376D01*
X0368664Y0168418D01*
X0368706Y0168462D01*
X0368744Y0168508D01*
X0368780Y0168557D01*
X0368813Y0168608D01*
X0368842Y0168660D01*
X0368869Y0168715D01*
X0368892Y0168770D01*
X0368912Y0168827D01*
X0368928Y0168886D01*
X0368941Y0168945D01*
X0368950Y0169004D01*
X0368955Y0169065D01*
X0368957Y0169125D01*
X0368957Y0170625D01*
X0368457Y0171125D01*
X0368457Y0185125D01*
X0368957Y0185625D01*
X0368957Y0187125D01*
X0368955Y0187185D01*
X0368950Y0187246D01*
X0368941Y0187305D01*
X0368928Y0187364D01*
X0368912Y0187423D01*
X0368892Y0187480D01*
X0368869Y0187535D01*
X0368842Y0187590D01*
X0368813Y0187642D01*
X0368780Y0187693D01*
X0368744Y0187742D01*
X0368706Y0187788D01*
X0368664Y0187832D01*
X0368620Y0187874D01*
X0368574Y0187912D01*
X0368525Y0187948D01*
X0368474Y0187981D01*
X0368422Y0188010D01*
X0368367Y0188037D01*
X0368312Y0188060D01*
X0368255Y0188080D01*
X0368196Y0188096D01*
X0368137Y0188109D01*
X0368078Y0188118D01*
X0368017Y0188123D01*
X0367957Y0188125D01*
X0361957Y0188125D01*
X0361897Y0188123D01*
X0361836Y0188118D01*
X0361777Y0188109D01*
X0361718Y0188096D01*
X0361659Y0188080D01*
X0361602Y0188060D01*
X0361547Y0188037D01*
X0361492Y0188010D01*
X0361440Y0187981D01*
X0361389Y0187948D01*
X0361340Y0187912D01*
X0361294Y0187874D01*
X0361250Y0187832D01*
X0361208Y0187788D01*
X0361170Y0187742D01*
X0361134Y0187693D01*
X0361101Y0187642D01*
X0361072Y0187590D01*
X0361045Y0187535D01*
X0361022Y0187480D01*
X0361002Y0187423D01*
X0360986Y0187364D01*
X0360973Y0187305D01*
X0360964Y0187246D01*
X0360959Y0187185D01*
X0360957Y0187125D01*
X0360083Y0132070D02*
X0354083Y0132070D01*
X0354083Y0131070D01*
X0353083Y0131070D01*
X0360083Y0131070D02*
X0361083Y0131070D01*
X0360083Y0131070D02*
X0360083Y0132070D01*
X0369083Y0127570D02*
X0369083Y0124070D01*
X0369083Y0114070D01*
X0369083Y0110570D01*
X0361083Y0107070D02*
X0360083Y0107070D01*
X0360083Y0106070D01*
X0354083Y0106070D01*
X0354083Y0107070D01*
X0353083Y0107070D01*
X0345083Y0110570D02*
X0345083Y0114570D01*
X0345083Y0124070D01*
X0345083Y0127570D01*
X0356083Y0119070D02*
X0356085Y0119133D01*
X0356091Y0119195D01*
X0356101Y0119257D01*
X0356114Y0119319D01*
X0356132Y0119379D01*
X0356153Y0119438D01*
X0356178Y0119496D01*
X0356207Y0119552D01*
X0356239Y0119606D01*
X0356274Y0119658D01*
X0356312Y0119707D01*
X0356354Y0119755D01*
X0356398Y0119799D01*
X0356446Y0119841D01*
X0356495Y0119879D01*
X0356547Y0119914D01*
X0356601Y0119946D01*
X0356657Y0119975D01*
X0356715Y0120000D01*
X0356774Y0120021D01*
X0356834Y0120039D01*
X0356896Y0120052D01*
X0356958Y0120062D01*
X0357020Y0120068D01*
X0357083Y0120070D01*
X0357146Y0120068D01*
X0357208Y0120062D01*
X0357270Y0120052D01*
X0357332Y0120039D01*
X0357392Y0120021D01*
X0357451Y0120000D01*
X0357509Y0119975D01*
X0357565Y0119946D01*
X0357619Y0119914D01*
X0357671Y0119879D01*
X0357720Y0119841D01*
X0357768Y0119799D01*
X0357812Y0119755D01*
X0357854Y0119707D01*
X0357892Y0119658D01*
X0357927Y0119606D01*
X0357959Y0119552D01*
X0357988Y0119496D01*
X0358013Y0119438D01*
X0358034Y0119379D01*
X0358052Y0119319D01*
X0358065Y0119257D01*
X0358075Y0119195D01*
X0358081Y0119133D01*
X0358083Y0119070D01*
X0358081Y0119007D01*
X0358075Y0118945D01*
X0358065Y0118883D01*
X0358052Y0118821D01*
X0358034Y0118761D01*
X0358013Y0118702D01*
X0357988Y0118644D01*
X0357959Y0118588D01*
X0357927Y0118534D01*
X0357892Y0118482D01*
X0357854Y0118433D01*
X0357812Y0118385D01*
X0357768Y0118341D01*
X0357720Y0118299D01*
X0357671Y0118261D01*
X0357619Y0118226D01*
X0357565Y0118194D01*
X0357509Y0118165D01*
X0357451Y0118140D01*
X0357392Y0118119D01*
X0357332Y0118101D01*
X0357270Y0118088D01*
X0357208Y0118078D01*
X0357146Y0118072D01*
X0357083Y0118070D01*
X0357020Y0118072D01*
X0356958Y0118078D01*
X0356896Y0118088D01*
X0356834Y0118101D01*
X0356774Y0118119D01*
X0356715Y0118140D01*
X0356657Y0118165D01*
X0356601Y0118194D01*
X0356547Y0118226D01*
X0356495Y0118261D01*
X0356446Y0118299D01*
X0356398Y0118341D01*
X0356354Y0118385D01*
X0356312Y0118433D01*
X0356274Y0118482D01*
X0356239Y0118534D01*
X0356207Y0118588D01*
X0356178Y0118644D01*
X0356153Y0118702D01*
X0356132Y0118761D01*
X0356114Y0118821D01*
X0356101Y0118883D01*
X0356091Y0118945D01*
X0356085Y0119007D01*
X0356083Y0119070D01*
X0350083Y0119070D02*
X0350085Y0119242D01*
X0350091Y0119413D01*
X0350102Y0119585D01*
X0350117Y0119756D01*
X0350136Y0119927D01*
X0350159Y0120097D01*
X0350186Y0120267D01*
X0350218Y0120436D01*
X0350253Y0120604D01*
X0350293Y0120771D01*
X0350337Y0120937D01*
X0350384Y0121102D01*
X0350436Y0121266D01*
X0350492Y0121428D01*
X0350552Y0121589D01*
X0350616Y0121749D01*
X0350684Y0121907D01*
X0350755Y0122063D01*
X0350830Y0122217D01*
X0350910Y0122370D01*
X0350992Y0122520D01*
X0351079Y0122669D01*
X0351169Y0122815D01*
X0351263Y0122959D01*
X0351360Y0123101D01*
X0351461Y0123240D01*
X0351565Y0123377D01*
X0351672Y0123511D01*
X0351783Y0123642D01*
X0351896Y0123771D01*
X0352013Y0123897D01*
X0352133Y0124020D01*
X0352256Y0124140D01*
X0352382Y0124257D01*
X0352511Y0124370D01*
X0352642Y0124481D01*
X0352776Y0124588D01*
X0352913Y0124692D01*
X0353052Y0124793D01*
X0353194Y0124890D01*
X0353338Y0124984D01*
X0353484Y0125074D01*
X0353633Y0125161D01*
X0353783Y0125243D01*
X0353936Y0125323D01*
X0354090Y0125398D01*
X0354246Y0125469D01*
X0354404Y0125537D01*
X0354564Y0125601D01*
X0354725Y0125661D01*
X0354887Y0125717D01*
X0355051Y0125769D01*
X0355216Y0125816D01*
X0355382Y0125860D01*
X0355549Y0125900D01*
X0355717Y0125935D01*
X0355886Y0125967D01*
X0356056Y0125994D01*
X0356226Y0126017D01*
X0356397Y0126036D01*
X0356568Y0126051D01*
X0356740Y0126062D01*
X0356911Y0126068D01*
X0357083Y0126070D01*
X0357255Y0126068D01*
X0357426Y0126062D01*
X0357598Y0126051D01*
X0357769Y0126036D01*
X0357940Y0126017D01*
X0358110Y0125994D01*
X0358280Y0125967D01*
X0358449Y0125935D01*
X0358617Y0125900D01*
X0358784Y0125860D01*
X0358950Y0125816D01*
X0359115Y0125769D01*
X0359279Y0125717D01*
X0359441Y0125661D01*
X0359602Y0125601D01*
X0359762Y0125537D01*
X0359920Y0125469D01*
X0360076Y0125398D01*
X0360230Y0125323D01*
X0360383Y0125243D01*
X0360533Y0125161D01*
X0360682Y0125074D01*
X0360828Y0124984D01*
X0360972Y0124890D01*
X0361114Y0124793D01*
X0361253Y0124692D01*
X0361390Y0124588D01*
X0361524Y0124481D01*
X0361655Y0124370D01*
X0361784Y0124257D01*
X0361910Y0124140D01*
X0362033Y0124020D01*
X0362153Y0123897D01*
X0362270Y0123771D01*
X0362383Y0123642D01*
X0362494Y0123511D01*
X0362601Y0123377D01*
X0362705Y0123240D01*
X0362806Y0123101D01*
X0362903Y0122959D01*
X0362997Y0122815D01*
X0363087Y0122669D01*
X0363174Y0122520D01*
X0363256Y0122370D01*
X0363336Y0122217D01*
X0363411Y0122063D01*
X0363482Y0121907D01*
X0363550Y0121749D01*
X0363614Y0121589D01*
X0363674Y0121428D01*
X0363730Y0121266D01*
X0363782Y0121102D01*
X0363829Y0120937D01*
X0363873Y0120771D01*
X0363913Y0120604D01*
X0363948Y0120436D01*
X0363980Y0120267D01*
X0364007Y0120097D01*
X0364030Y0119927D01*
X0364049Y0119756D01*
X0364064Y0119585D01*
X0364075Y0119413D01*
X0364081Y0119242D01*
X0364083Y0119070D01*
X0364081Y0118898D01*
X0364075Y0118727D01*
X0364064Y0118555D01*
X0364049Y0118384D01*
X0364030Y0118213D01*
X0364007Y0118043D01*
X0363980Y0117873D01*
X0363948Y0117704D01*
X0363913Y0117536D01*
X0363873Y0117369D01*
X0363829Y0117203D01*
X0363782Y0117038D01*
X0363730Y0116874D01*
X0363674Y0116712D01*
X0363614Y0116551D01*
X0363550Y0116391D01*
X0363482Y0116233D01*
X0363411Y0116077D01*
X0363336Y0115923D01*
X0363256Y0115770D01*
X0363174Y0115620D01*
X0363087Y0115471D01*
X0362997Y0115325D01*
X0362903Y0115181D01*
X0362806Y0115039D01*
X0362705Y0114900D01*
X0362601Y0114763D01*
X0362494Y0114629D01*
X0362383Y0114498D01*
X0362270Y0114369D01*
X0362153Y0114243D01*
X0362033Y0114120D01*
X0361910Y0114000D01*
X0361784Y0113883D01*
X0361655Y0113770D01*
X0361524Y0113659D01*
X0361390Y0113552D01*
X0361253Y0113448D01*
X0361114Y0113347D01*
X0360972Y0113250D01*
X0360828Y0113156D01*
X0360682Y0113066D01*
X0360533Y0112979D01*
X0360383Y0112897D01*
X0360230Y0112817D01*
X0360076Y0112742D01*
X0359920Y0112671D01*
X0359762Y0112603D01*
X0359602Y0112539D01*
X0359441Y0112479D01*
X0359279Y0112423D01*
X0359115Y0112371D01*
X0358950Y0112324D01*
X0358784Y0112280D01*
X0358617Y0112240D01*
X0358449Y0112205D01*
X0358280Y0112173D01*
X0358110Y0112146D01*
X0357940Y0112123D01*
X0357769Y0112104D01*
X0357598Y0112089D01*
X0357426Y0112078D01*
X0357255Y0112072D01*
X0357083Y0112070D01*
X0356911Y0112072D01*
X0356740Y0112078D01*
X0356568Y0112089D01*
X0356397Y0112104D01*
X0356226Y0112123D01*
X0356056Y0112146D01*
X0355886Y0112173D01*
X0355717Y0112205D01*
X0355549Y0112240D01*
X0355382Y0112280D01*
X0355216Y0112324D01*
X0355051Y0112371D01*
X0354887Y0112423D01*
X0354725Y0112479D01*
X0354564Y0112539D01*
X0354404Y0112603D01*
X0354246Y0112671D01*
X0354090Y0112742D01*
X0353936Y0112817D01*
X0353783Y0112897D01*
X0353633Y0112979D01*
X0353484Y0113066D01*
X0353338Y0113156D01*
X0353194Y0113250D01*
X0353052Y0113347D01*
X0352913Y0113448D01*
X0352776Y0113552D01*
X0352642Y0113659D01*
X0352511Y0113770D01*
X0352382Y0113883D01*
X0352256Y0114000D01*
X0352133Y0114120D01*
X0352013Y0114243D01*
X0351896Y0114369D01*
X0351783Y0114498D01*
X0351672Y0114629D01*
X0351565Y0114763D01*
X0351461Y0114900D01*
X0351360Y0115039D01*
X0351263Y0115181D01*
X0351169Y0115325D01*
X0351079Y0115471D01*
X0350992Y0115620D01*
X0350910Y0115770D01*
X0350830Y0115923D01*
X0350755Y0116077D01*
X0350684Y0116233D01*
X0350616Y0116391D01*
X0350552Y0116551D01*
X0350492Y0116712D01*
X0350436Y0116874D01*
X0350384Y0117038D01*
X0350337Y0117203D01*
X0350293Y0117369D01*
X0350253Y0117536D01*
X0350218Y0117704D01*
X0350186Y0117873D01*
X0350159Y0118043D01*
X0350136Y0118213D01*
X0350117Y0118384D01*
X0350102Y0118555D01*
X0350091Y0118727D01*
X0350085Y0118898D01*
X0350083Y0119070D01*
X0357020Y0088294D02*
X0365020Y0088294D01*
X0365080Y0088292D01*
X0365141Y0088287D01*
X0365200Y0088278D01*
X0365259Y0088265D01*
X0365318Y0088249D01*
X0365375Y0088229D01*
X0365430Y0088206D01*
X0365485Y0088179D01*
X0365537Y0088150D01*
X0365588Y0088117D01*
X0365637Y0088081D01*
X0365683Y0088043D01*
X0365727Y0088001D01*
X0365769Y0087957D01*
X0365807Y0087911D01*
X0365843Y0087862D01*
X0365876Y0087811D01*
X0365905Y0087759D01*
X0365932Y0087704D01*
X0365955Y0087649D01*
X0365975Y0087592D01*
X0365991Y0087533D01*
X0366004Y0087474D01*
X0366013Y0087415D01*
X0366018Y0087354D01*
X0366020Y0087294D01*
X0366020Y0060294D01*
X0366018Y0060234D01*
X0366013Y0060173D01*
X0366004Y0060114D01*
X0365991Y0060055D01*
X0365975Y0059996D01*
X0365955Y0059939D01*
X0365932Y0059884D01*
X0365905Y0059829D01*
X0365876Y0059777D01*
X0365843Y0059726D01*
X0365807Y0059677D01*
X0365769Y0059631D01*
X0365727Y0059587D01*
X0365683Y0059545D01*
X0365637Y0059507D01*
X0365588Y0059471D01*
X0365537Y0059438D01*
X0365485Y0059409D01*
X0365430Y0059382D01*
X0365375Y0059359D01*
X0365318Y0059339D01*
X0365259Y0059323D01*
X0365200Y0059310D01*
X0365141Y0059301D01*
X0365080Y0059296D01*
X0365020Y0059294D01*
X0357020Y0059294D01*
X0356960Y0059296D01*
X0356899Y0059301D01*
X0356840Y0059310D01*
X0356781Y0059323D01*
X0356722Y0059339D01*
X0356665Y0059359D01*
X0356610Y0059382D01*
X0356555Y0059409D01*
X0356503Y0059438D01*
X0356452Y0059471D01*
X0356403Y0059507D01*
X0356357Y0059545D01*
X0356313Y0059587D01*
X0356271Y0059631D01*
X0356233Y0059677D01*
X0356197Y0059726D01*
X0356164Y0059777D01*
X0356135Y0059829D01*
X0356108Y0059884D01*
X0356085Y0059939D01*
X0356065Y0059996D01*
X0356049Y0060055D01*
X0356036Y0060114D01*
X0356027Y0060173D01*
X0356022Y0060234D01*
X0356020Y0060294D01*
X0356020Y0087294D01*
X0356022Y0087354D01*
X0356027Y0087415D01*
X0356036Y0087474D01*
X0356049Y0087533D01*
X0356065Y0087592D01*
X0356085Y0087649D01*
X0356108Y0087704D01*
X0356135Y0087759D01*
X0356164Y0087811D01*
X0356197Y0087862D01*
X0356233Y0087911D01*
X0356271Y0087957D01*
X0356313Y0088001D01*
X0356357Y0088043D01*
X0356403Y0088081D01*
X0356452Y0088117D01*
X0356503Y0088150D01*
X0356555Y0088179D01*
X0356610Y0088206D01*
X0356665Y0088229D01*
X0356722Y0088249D01*
X0356781Y0088265D01*
X0356840Y0088278D01*
X0356899Y0088287D01*
X0356960Y0088292D01*
X0357020Y0088294D01*
X0361020Y0079794D02*
X0361020Y0074994D01*
X0361020Y0072494D02*
X0361020Y0067794D01*
X0347304Y0066294D02*
X0347304Y0064794D01*
X0347302Y0064734D01*
X0347297Y0064673D01*
X0347288Y0064614D01*
X0347275Y0064555D01*
X0347259Y0064496D01*
X0347239Y0064439D01*
X0347216Y0064384D01*
X0347189Y0064329D01*
X0347160Y0064277D01*
X0347127Y0064226D01*
X0347091Y0064177D01*
X0347053Y0064131D01*
X0347011Y0064087D01*
X0346967Y0064045D01*
X0346921Y0064007D01*
X0346872Y0063971D01*
X0346821Y0063938D01*
X0346769Y0063909D01*
X0346714Y0063882D01*
X0346659Y0063859D01*
X0346602Y0063839D01*
X0346543Y0063823D01*
X0346484Y0063810D01*
X0346425Y0063801D01*
X0346364Y0063796D01*
X0346304Y0063794D01*
X0340304Y0063794D01*
X0340244Y0063796D01*
X0340183Y0063801D01*
X0340124Y0063810D01*
X0340065Y0063823D01*
X0340006Y0063839D01*
X0339949Y0063859D01*
X0339894Y0063882D01*
X0339839Y0063909D01*
X0339787Y0063938D01*
X0339736Y0063971D01*
X0339687Y0064007D01*
X0339641Y0064045D01*
X0339597Y0064087D01*
X0339555Y0064131D01*
X0339517Y0064177D01*
X0339481Y0064226D01*
X0339448Y0064277D01*
X0339419Y0064329D01*
X0339392Y0064384D01*
X0339369Y0064439D01*
X0339349Y0064496D01*
X0339333Y0064555D01*
X0339320Y0064614D01*
X0339311Y0064673D01*
X0339306Y0064734D01*
X0339304Y0064794D01*
X0339304Y0066294D01*
X0339804Y0066794D01*
X0339804Y0080794D01*
X0339304Y0081294D01*
X0339304Y0082794D01*
X0339306Y0082854D01*
X0339311Y0082915D01*
X0339320Y0082974D01*
X0339333Y0083033D01*
X0339349Y0083092D01*
X0339369Y0083149D01*
X0339392Y0083204D01*
X0339419Y0083259D01*
X0339448Y0083311D01*
X0339481Y0083362D01*
X0339517Y0083411D01*
X0339555Y0083457D01*
X0339597Y0083501D01*
X0339641Y0083543D01*
X0339687Y0083581D01*
X0339736Y0083617D01*
X0339787Y0083650D01*
X0339839Y0083679D01*
X0339894Y0083706D01*
X0339949Y0083729D01*
X0340006Y0083749D01*
X0340065Y0083765D01*
X0340124Y0083778D01*
X0340183Y0083787D01*
X0340244Y0083792D01*
X0340304Y0083794D01*
X0346304Y0083794D01*
X0346364Y0083792D01*
X0346425Y0083787D01*
X0346484Y0083778D01*
X0346543Y0083765D01*
X0346602Y0083749D01*
X0346659Y0083729D01*
X0346714Y0083706D01*
X0346769Y0083679D01*
X0346821Y0083650D01*
X0346872Y0083617D01*
X0346921Y0083581D01*
X0346967Y0083543D01*
X0347011Y0083501D01*
X0347053Y0083457D01*
X0347091Y0083411D01*
X0347127Y0083362D01*
X0347160Y0083311D01*
X0347189Y0083259D01*
X0347216Y0083204D01*
X0347239Y0083149D01*
X0347259Y0083092D01*
X0347275Y0083033D01*
X0347288Y0082974D01*
X0347297Y0082915D01*
X0347302Y0082854D01*
X0347304Y0082794D01*
X0347304Y0081294D01*
X0346804Y0080794D01*
X0346804Y0066794D01*
X0347304Y0066294D01*
X0138911Y0068402D02*
X0131905Y0068402D01*
X0133073Y0070729D02*
X0137743Y0070729D01*
X0138911Y0071897D01*
X0138911Y0074232D01*
X0137743Y0075400D01*
X0133073Y0075400D01*
X0131905Y0074232D01*
X0131905Y0071897D01*
X0133073Y0070729D01*
X0138911Y0068402D02*
X0131905Y0063731D01*
X0138911Y0063731D01*
X0137743Y0054406D02*
X0133073Y0054406D01*
X0131905Y0053238D01*
X0131905Y0049735D01*
X0138911Y0049735D01*
X0138911Y0053238D01*
X0137743Y0054406D01*
X0137743Y0047408D02*
X0138911Y0046240D01*
X0138911Y0043905D01*
X0137743Y0042737D01*
X0133073Y0042737D01*
X0131905Y0043905D01*
X0131905Y0046240D01*
X0133073Y0047408D01*
X0138911Y0040410D02*
X0138911Y0035739D01*
X0131905Y0035739D01*
X0131905Y0077727D02*
X0138911Y0077727D01*
X0136576Y0077727D02*
X0131905Y0082398D01*
X0131905Y0084725D02*
X0131905Y0087060D01*
X0131905Y0085893D02*
X0138911Y0085893D01*
X0138911Y0087060D02*
X0138911Y0084725D01*
X0138911Y0082398D02*
X0135408Y0078895D01*
X0135408Y0089390D02*
X0135408Y0094061D01*
X0134240Y0094061D02*
X0138911Y0094061D01*
X0138911Y0089390D02*
X0134240Y0089390D01*
X0131905Y0091726D01*
X0134240Y0094061D01*
X0135408Y0103386D02*
X0131905Y0103386D01*
X0131905Y0108057D01*
X0134240Y0106889D02*
X0135408Y0108057D01*
X0137743Y0108057D01*
X0138911Y0106889D01*
X0138911Y0104554D01*
X0137743Y0103386D01*
X0135408Y0103386D02*
X0134240Y0105722D01*
X0134240Y0106889D01*
X0134240Y0110384D02*
X0131905Y0112719D01*
X0138911Y0112719D01*
X0138911Y0110384D02*
X0138911Y0115055D01*
X0138911Y0117382D02*
X0138911Y0122053D01*
X0138911Y0119717D02*
X0131905Y0119717D01*
X0134240Y0117382D01*
X0133073Y0124380D02*
X0131905Y0125548D01*
X0131905Y0127883D01*
X0133073Y0129051D01*
X0137743Y0124380D01*
X0138911Y0125548D01*
X0138911Y0127883D01*
X0137743Y0129051D01*
X0133073Y0129051D01*
X0133073Y0124380D02*
X0137743Y0124380D01*
X0137743Y0138376D02*
X0136576Y0138376D01*
X0135408Y0139544D01*
X0135408Y0141879D01*
X0136576Y0143047D01*
X0137743Y0143047D01*
X0138911Y0141879D01*
X0138911Y0139544D01*
X0137743Y0138376D01*
X0135408Y0139544D02*
X0134240Y0138376D01*
X0133073Y0138376D01*
X0131905Y0139544D01*
X0131905Y0141879D01*
X0133073Y0143047D01*
X0134240Y0143047D01*
X0135408Y0141879D01*
X0135408Y0145374D02*
X0135408Y0150045D01*
X0134240Y0152372D02*
X0138911Y0157043D01*
X0135408Y0159370D02*
X0135408Y0164041D01*
X0136576Y0166368D02*
X0135408Y0167536D01*
X0135408Y0169871D01*
X0136576Y0171039D01*
X0137743Y0171039D01*
X0138911Y0169871D01*
X0138911Y0167536D01*
X0137743Y0166368D01*
X0136576Y0166368D01*
X0135408Y0167536D02*
X0134240Y0166368D01*
X0133073Y0166368D01*
X0131905Y0167536D01*
X0131905Y0169871D01*
X0133073Y0171039D01*
X0134240Y0171039D01*
X0135408Y0169871D01*
X0134240Y0173366D02*
X0134240Y0176869D01*
X0135408Y0178037D01*
X0137743Y0178037D01*
X0138911Y0176869D01*
X0138911Y0173366D01*
X0141246Y0173366D02*
X0134240Y0173366D01*
X0134240Y0180364D02*
X0138911Y0185035D01*
X0138911Y0180364D02*
X0134240Y0185035D01*
X0131905Y0162873D02*
X0135408Y0159370D01*
X0134240Y0157043D02*
X0138911Y0152372D01*
X0138911Y0148877D02*
X0131905Y0148877D01*
X0135408Y0145374D01*
X0138911Y0162873D02*
X0131905Y0162873D01*
X0053934Y0164031D02*
X0053934Y0159031D01*
X0051434Y0156531D01*
X0053934Y0154031D01*
X0053934Y0149031D01*
X0051434Y0146531D01*
X0053934Y0144031D01*
X0053934Y0139031D01*
X0051434Y0136531D01*
X0053934Y0134031D01*
X0053934Y0129031D01*
X0051434Y0126531D01*
X0053934Y0124031D01*
X0053934Y0119031D01*
X0051434Y0116531D01*
X0053934Y0114031D01*
X0053934Y0109031D01*
X0051434Y0106531D01*
X0053934Y0104031D01*
X0053934Y0099031D01*
X0053402Y0096531D01*
X0053934Y0094031D01*
X0053934Y0089031D01*
X0053402Y0086531D01*
X0044465Y0086531D01*
X0043934Y0089031D01*
X0043934Y0094031D01*
X0044465Y0096531D01*
X0043934Y0099031D01*
X0043934Y0104031D01*
X0046434Y0106531D01*
X0043934Y0109031D01*
X0043934Y0114031D01*
X0046434Y0116531D01*
X0043934Y0119031D01*
X0043934Y0124031D01*
X0046434Y0126531D01*
X0043934Y0129031D01*
X0043934Y0134031D01*
X0046434Y0136531D01*
X0043934Y0139031D01*
X0043934Y0144031D01*
X0046434Y0146531D01*
X0043934Y0149031D01*
X0043934Y0154031D01*
X0046434Y0156531D01*
X0043934Y0159031D01*
X0043934Y0164031D01*
X0046434Y0166531D01*
X0051434Y0166531D01*
X0053934Y0164031D01*
D12*
X0033186Y0039424D02*
X0214288Y0039424D01*
X0214288Y0208716D01*
X0033186Y0208716D01*
X0033186Y0039424D01*
X0070587Y0049267D02*
X0198540Y0049267D01*
X0198540Y0198873D01*
X0070587Y0198873D01*
X0070587Y0049267D01*
X0050291Y0081525D02*
X0049541Y0081525D01*
X0048790Y0082275D01*
X0048790Y0083777D01*
X0049541Y0084527D01*
X0050291Y0084527D01*
X0051042Y0083777D01*
X0051042Y0082275D01*
X0050291Y0081525D01*
X0048790Y0082275D02*
X0048039Y0081525D01*
X0047289Y0081525D01*
X0046538Y0082275D01*
X0046538Y0083777D01*
X0047289Y0084527D01*
X0048039Y0084527D01*
X0048790Y0083777D01*
X0048039Y0167051D02*
X0046538Y0168552D01*
X0051042Y0168552D01*
X0051042Y0167051D02*
X0051042Y0170053D01*
X0026512Y0213578D02*
X0171512Y0213578D01*
X0171512Y0218578D01*
X0169012Y0216078D01*
X0164012Y0216078D01*
X0161512Y0218578D01*
X0161512Y0223578D01*
X0164012Y0226078D01*
X0161512Y0228578D01*
X0161512Y0233578D01*
X0164012Y0236078D01*
X0161512Y0238578D01*
X0161512Y0243578D01*
X0164012Y0246078D01*
X0161512Y0248578D01*
X0161512Y0253578D01*
X0164012Y0256078D01*
X0161512Y0258578D01*
X0161512Y0263578D01*
X0164012Y0266078D01*
X0161512Y0268578D01*
X0161512Y0273578D01*
X0164012Y0276078D01*
X0169012Y0276078D01*
X0171512Y0273578D01*
X0171512Y0278578D02*
X0026512Y0278578D01*
X0026512Y0272078D01*
X0041512Y0272078D01*
X0041512Y0220078D01*
X0131512Y0220078D01*
X0131512Y0272078D01*
X0041512Y0272078D01*
X0036762Y0263809D02*
X0033093Y0263809D01*
X0031258Y0261974D01*
X0033093Y0260140D01*
X0036762Y0260140D01*
X0036762Y0258285D02*
X0031258Y0258285D01*
X0034010Y0260140D02*
X0034010Y0263809D01*
X0036762Y0258285D02*
X0031258Y0254615D01*
X0036762Y0254615D01*
X0036762Y0252760D02*
X0031258Y0252760D01*
X0031258Y0249090D02*
X0036762Y0252760D01*
X0036762Y0249090D02*
X0031258Y0249090D01*
X0031258Y0247235D02*
X0031258Y0243565D01*
X0036762Y0243565D01*
X0036762Y0247235D01*
X0034010Y0245400D02*
X0034010Y0243565D01*
X0031258Y0241711D02*
X0031258Y0238041D01*
X0031258Y0239876D02*
X0036762Y0239876D01*
X0036762Y0236186D02*
X0031258Y0236186D01*
X0031258Y0232516D02*
X0036762Y0236186D01*
X0036762Y0232516D02*
X0031258Y0232516D01*
X0033093Y0230661D02*
X0036762Y0230661D01*
X0034010Y0230661D02*
X0034010Y0226991D01*
X0033093Y0226991D02*
X0031258Y0228826D01*
X0033093Y0230661D01*
X0033093Y0226991D02*
X0036762Y0226991D01*
X0041512Y0220078D02*
X0026512Y0220078D01*
X0026512Y0213578D01*
X0026512Y0220078D02*
X0026512Y0272078D01*
X0169012Y0266078D02*
X0171512Y0263578D01*
X0169012Y0266078D02*
X0171512Y0268578D01*
X0171512Y0258578D02*
X0169012Y0256078D01*
X0171512Y0253578D01*
X0171512Y0248578D02*
X0169012Y0246078D01*
X0171512Y0243578D01*
X0171512Y0278578D01*
X0171512Y0243578D02*
X0171512Y0238578D01*
X0169012Y0236078D01*
X0171512Y0233578D01*
X0171512Y0238578D01*
X0171512Y0233578D02*
X0171512Y0228578D01*
X0169012Y0226078D01*
X0171512Y0223578D01*
X0171512Y0228578D01*
X0171512Y0223578D02*
X0171512Y0218578D01*
X0233239Y0206640D02*
X0233989Y0207391D01*
X0235491Y0207391D01*
X0236241Y0206640D01*
X0236241Y0205889D01*
X0235491Y0205139D01*
X0236241Y0204388D01*
X0236241Y0203638D01*
X0235491Y0202887D01*
X0233989Y0202887D01*
X0233239Y0203638D01*
X0234740Y0205139D02*
X0235491Y0205139D01*
X0237843Y0204388D02*
X0239344Y0202887D01*
X0240845Y0204388D01*
X0240845Y0207391D01*
X0242447Y0206640D02*
X0243197Y0207391D01*
X0244699Y0207391D01*
X0245449Y0206640D01*
X0245449Y0205889D01*
X0244699Y0205139D01*
X0245449Y0204388D01*
X0245449Y0203638D01*
X0244699Y0202887D01*
X0243197Y0202887D01*
X0242447Y0203638D01*
X0243948Y0205139D02*
X0244699Y0205139D01*
X0237843Y0204388D02*
X0237843Y0207391D01*
X0237843Y0197548D02*
X0240845Y0193044D01*
X0240845Y0197548D01*
X0242447Y0197548D02*
X0244699Y0197548D01*
X0245449Y0196798D01*
X0245449Y0193795D01*
X0244699Y0193044D01*
X0242447Y0193044D01*
X0242447Y0197548D01*
X0237843Y0197548D02*
X0237843Y0193044D01*
X0236241Y0193795D02*
X0236241Y0195296D01*
X0234740Y0195296D01*
X0233239Y0193795D02*
X0233989Y0193044D01*
X0235491Y0193044D01*
X0236241Y0193795D01*
X0233239Y0193795D02*
X0233239Y0196798D01*
X0233989Y0197548D01*
X0235491Y0197548D01*
X0236241Y0196798D01*
X0235491Y0187706D02*
X0233239Y0187706D01*
X0233239Y0183202D01*
X0235491Y0183202D01*
X0236241Y0183952D01*
X0236241Y0186955D01*
X0235491Y0187706D01*
X0237843Y0186204D02*
X0239344Y0187706D01*
X0239344Y0183202D01*
X0237843Y0183202D02*
X0240845Y0183202D01*
X0242447Y0183952D02*
X0243197Y0183202D01*
X0244699Y0183202D01*
X0245449Y0183952D01*
X0245449Y0185454D01*
X0244699Y0186204D01*
X0243948Y0186204D01*
X0242447Y0185454D01*
X0242447Y0187706D01*
X0245449Y0187706D01*
X0240095Y0177863D02*
X0238593Y0177863D01*
X0237843Y0177113D01*
X0236241Y0177113D02*
X0235491Y0177863D01*
X0233239Y0177863D01*
X0233239Y0173359D01*
X0235491Y0173359D01*
X0236241Y0174110D01*
X0236241Y0177113D01*
X0240095Y0177863D02*
X0240845Y0177113D01*
X0240845Y0176362D01*
X0237843Y0173359D01*
X0240845Y0173359D01*
X0240095Y0168021D02*
X0237843Y0165769D01*
X0240845Y0165769D01*
X0240095Y0163517D02*
X0240095Y0168021D01*
X0236241Y0167270D02*
X0235491Y0168021D01*
X0233239Y0168021D01*
X0233239Y0163517D01*
X0235491Y0163517D01*
X0236241Y0164267D01*
X0236241Y0167270D01*
X0235491Y0158178D02*
X0233239Y0158178D01*
X0233239Y0153674D01*
X0233239Y0155176D02*
X0235491Y0155176D01*
X0236241Y0155926D01*
X0236241Y0157427D01*
X0235491Y0158178D01*
X0237843Y0158178D02*
X0240845Y0153674D01*
X0242447Y0153674D02*
X0245449Y0156677D01*
X0245449Y0157427D01*
X0244699Y0158178D01*
X0243197Y0158178D01*
X0242447Y0157427D01*
X0240845Y0158178D02*
X0237843Y0153674D01*
X0236241Y0153674D02*
X0234740Y0155176D01*
X0242447Y0153674D02*
X0245449Y0153674D01*
X0244699Y0148336D02*
X0243197Y0148336D01*
X0242447Y0147585D01*
X0240845Y0148336D02*
X0237843Y0143832D01*
X0240845Y0143832D02*
X0237843Y0148336D01*
X0236241Y0148336D02*
X0233239Y0148336D01*
X0234740Y0148336D02*
X0234740Y0143832D01*
X0235491Y0138493D02*
X0233239Y0138493D01*
X0233239Y0133989D01*
X0235491Y0133989D01*
X0236241Y0134740D01*
X0236241Y0137742D01*
X0235491Y0138493D01*
X0237843Y0138493D02*
X0237843Y0136241D01*
X0239344Y0136992D01*
X0240095Y0136992D01*
X0240845Y0136241D01*
X0240845Y0134740D01*
X0240095Y0133989D01*
X0238593Y0133989D01*
X0237843Y0134740D01*
X0237843Y0138493D02*
X0240845Y0138493D01*
X0242447Y0143832D02*
X0245449Y0146834D01*
X0245449Y0147585D01*
X0244699Y0148336D01*
X0245449Y0143832D02*
X0242447Y0143832D01*
X0243197Y0127816D02*
X0242447Y0127065D01*
X0242447Y0126315D01*
X0243197Y0125564D01*
X0244699Y0125564D01*
X0245449Y0124813D01*
X0245449Y0124063D01*
X0244699Y0123312D01*
X0243197Y0123312D01*
X0242447Y0124063D01*
X0242447Y0124813D01*
X0243197Y0125564D01*
X0244699Y0125564D02*
X0245449Y0126315D01*
X0245449Y0127065D01*
X0244699Y0127816D01*
X0243197Y0127816D01*
X0239344Y0127816D02*
X0239344Y0123312D01*
X0237843Y0123312D02*
X0240845Y0123312D01*
X0237843Y0126315D02*
X0239344Y0127816D01*
X0236241Y0127065D02*
X0236241Y0124063D01*
X0235491Y0123312D01*
X0233239Y0123312D01*
X0233239Y0127816D01*
X0235491Y0127816D01*
X0236241Y0127065D01*
X0235491Y0117973D02*
X0233239Y0117973D01*
X0233239Y0113470D01*
X0235491Y0113470D01*
X0236241Y0114220D01*
X0236241Y0117223D01*
X0235491Y0117973D01*
X0237843Y0116472D02*
X0239344Y0117973D01*
X0239344Y0113470D01*
X0237843Y0113470D02*
X0240845Y0113470D01*
X0242447Y0114220D02*
X0243197Y0113470D01*
X0244699Y0113470D01*
X0245449Y0114220D01*
X0245449Y0117223D01*
X0244699Y0117973D01*
X0243197Y0117973D01*
X0242447Y0117223D01*
X0242447Y0116472D01*
X0243197Y0115721D01*
X0245449Y0115721D01*
X0243948Y0107832D02*
X0243948Y0103328D01*
X0242447Y0103328D02*
X0245449Y0103328D01*
X0242447Y0106330D02*
X0243948Y0107832D01*
X0240845Y0107081D02*
X0240095Y0107832D01*
X0238593Y0107832D01*
X0237843Y0107081D01*
X0236241Y0107081D02*
X0235491Y0107832D01*
X0233239Y0107832D01*
X0233239Y0103328D01*
X0235491Y0103328D01*
X0236241Y0104078D01*
X0236241Y0107081D01*
X0237843Y0103328D02*
X0240845Y0106330D01*
X0240845Y0107081D01*
X0240845Y0103328D02*
X0237843Y0103328D01*
X0237843Y0097989D02*
X0240845Y0093485D01*
X0242447Y0094236D02*
X0245449Y0097238D01*
X0245449Y0094236D01*
X0244699Y0093485D01*
X0243197Y0093485D01*
X0242447Y0094236D01*
X0242447Y0097238D01*
X0243197Y0097989D01*
X0244699Y0097989D01*
X0245449Y0097238D01*
X0240845Y0097989D02*
X0237843Y0093485D01*
X0236241Y0093485D02*
X0234740Y0094987D01*
X0235491Y0094987D02*
X0233239Y0094987D01*
X0233239Y0093485D02*
X0233239Y0097989D01*
X0235491Y0097989D01*
X0236241Y0097238D01*
X0236241Y0095737D01*
X0235491Y0094987D01*
X0236241Y0088147D02*
X0233239Y0088147D01*
X0234740Y0088147D02*
X0234740Y0083643D01*
X0237843Y0083643D02*
X0240845Y0088147D01*
X0242447Y0087396D02*
X0243197Y0088147D01*
X0244699Y0088147D01*
X0245449Y0087396D01*
X0242447Y0084393D01*
X0243197Y0083643D01*
X0244699Y0083643D01*
X0245449Y0084393D01*
X0245449Y0087396D01*
X0242447Y0087396D02*
X0242447Y0084393D01*
X0240845Y0083643D02*
X0237843Y0088147D01*
X0237255Y0078304D02*
X0236504Y0077553D01*
X0237255Y0078304D02*
X0238756Y0078304D01*
X0239507Y0077553D01*
X0239507Y0076803D01*
X0236504Y0073800D01*
X0239507Y0073800D01*
X0241108Y0073800D02*
X0244111Y0076803D01*
X0244111Y0077553D01*
X0243360Y0078304D01*
X0241859Y0078304D01*
X0241108Y0077553D01*
X0241108Y0073800D02*
X0244111Y0073800D01*
X0238003Y0070760D02*
X0238003Y0069259D01*
X0237252Y0068508D01*
X0238003Y0066907D02*
X0238003Y0063904D01*
X0235000Y0066907D01*
X0234249Y0066907D01*
X0233499Y0066156D01*
X0233499Y0064655D01*
X0234249Y0063904D01*
X0234249Y0062303D02*
X0233499Y0061552D01*
X0233499Y0059300D01*
X0238003Y0059300D01*
X0238003Y0061552D01*
X0237252Y0062303D01*
X0234249Y0062303D01*
X0234249Y0068508D02*
X0233499Y0069259D01*
X0233499Y0070760D01*
X0234249Y0071511D01*
X0235000Y0071511D01*
X0235751Y0070760D01*
X0236501Y0071511D01*
X0237252Y0071511D01*
X0238003Y0070760D01*
X0235751Y0070760D02*
X0235751Y0070009D01*
X0234152Y0073800D02*
X0234903Y0074551D01*
X0234903Y0077553D01*
X0234152Y0078304D01*
X0231900Y0078304D01*
X0231900Y0073800D01*
X0234152Y0073800D01*
X0307144Y0092958D02*
X0309395Y0092958D01*
X0310146Y0093708D01*
X0310146Y0096711D01*
X0309395Y0097462D01*
X0307144Y0097462D01*
X0307144Y0092958D01*
X0311748Y0093708D02*
X0312498Y0092958D01*
X0313999Y0092958D01*
X0314750Y0093708D01*
X0314750Y0094459D01*
X0313999Y0095210D01*
X0313249Y0095210D01*
X0313999Y0095210D02*
X0314750Y0095960D01*
X0314750Y0096711D01*
X0313999Y0097462D01*
X0312498Y0097462D01*
X0311748Y0096711D01*
X0316351Y0095210D02*
X0319354Y0095210D01*
X0318603Y0097462D02*
X0316351Y0095210D01*
X0318603Y0092958D02*
X0318603Y0097462D01*
X0318603Y0102800D02*
X0317102Y0102800D01*
X0316351Y0103551D01*
X0316351Y0105052D02*
X0317853Y0105803D01*
X0318603Y0105803D01*
X0319354Y0105052D01*
X0319354Y0103551D01*
X0318603Y0102800D01*
X0316351Y0105052D02*
X0316351Y0107304D01*
X0319354Y0107304D01*
X0314750Y0106553D02*
X0314750Y0105803D01*
X0313999Y0105052D01*
X0314750Y0104302D01*
X0314750Y0103551D01*
X0313999Y0102800D01*
X0312498Y0102800D01*
X0311748Y0103551D01*
X0310146Y0103551D02*
X0310146Y0106553D01*
X0309395Y0107304D01*
X0307144Y0107304D01*
X0307144Y0102800D01*
X0309395Y0102800D01*
X0310146Y0103551D01*
X0311748Y0106553D02*
X0312498Y0107304D01*
X0313999Y0107304D01*
X0314750Y0106553D01*
X0313999Y0105052D02*
X0313249Y0105052D01*
X0313999Y0112643D02*
X0312498Y0112643D01*
X0311748Y0113393D01*
X0310146Y0113393D02*
X0310146Y0116396D01*
X0309395Y0117147D01*
X0307144Y0117147D01*
X0307144Y0112643D01*
X0309395Y0112643D01*
X0310146Y0113393D01*
X0311748Y0116396D02*
X0312498Y0117147D01*
X0313999Y0117147D01*
X0314750Y0116396D01*
X0314750Y0115645D01*
X0313999Y0114895D01*
X0314750Y0114144D01*
X0314750Y0113393D01*
X0313999Y0112643D01*
X0313999Y0114895D02*
X0313249Y0114895D01*
X0316351Y0116396D02*
X0317102Y0117147D01*
X0318603Y0117147D01*
X0319354Y0116396D01*
X0319354Y0115645D01*
X0316351Y0112643D01*
X0319354Y0112643D01*
X0318603Y0122485D02*
X0317102Y0122485D01*
X0316351Y0123236D01*
X0314750Y0123236D02*
X0314750Y0123987D01*
X0313999Y0124737D01*
X0313249Y0124737D01*
X0313999Y0124737D02*
X0314750Y0125488D01*
X0314750Y0126238D01*
X0313999Y0126989D01*
X0312498Y0126989D01*
X0311748Y0126238D01*
X0310146Y0126238D02*
X0310146Y0123236D01*
X0309395Y0122485D01*
X0307144Y0122485D01*
X0307144Y0126989D01*
X0309395Y0126989D01*
X0310146Y0126238D01*
X0311748Y0123236D02*
X0312498Y0122485D01*
X0313999Y0122485D01*
X0314750Y0123236D01*
X0316351Y0126238D02*
X0317102Y0126989D01*
X0318603Y0126989D01*
X0319354Y0126238D01*
X0319354Y0125488D01*
X0318603Y0124737D01*
X0319354Y0123987D01*
X0319354Y0123236D01*
X0318603Y0122485D01*
X0318603Y0124737D02*
X0317853Y0124737D01*
X0318603Y0133162D02*
X0317102Y0133162D01*
X0316351Y0133913D01*
X0316351Y0135414D02*
X0317853Y0136165D01*
X0318603Y0136165D01*
X0319354Y0135414D01*
X0319354Y0133913D01*
X0318603Y0133162D01*
X0316351Y0135414D02*
X0316351Y0137666D01*
X0319354Y0137666D01*
X0314750Y0136916D02*
X0313999Y0137666D01*
X0312498Y0137666D01*
X0311748Y0136916D01*
X0310146Y0136916D02*
X0310146Y0133913D01*
X0309395Y0133162D01*
X0307144Y0133162D01*
X0307144Y0137666D01*
X0309395Y0137666D01*
X0310146Y0136916D01*
X0311748Y0133162D02*
X0314750Y0136165D01*
X0314750Y0136916D01*
X0314750Y0133162D02*
X0311748Y0133162D01*
X0311748Y0143005D02*
X0314750Y0146008D01*
X0314750Y0146758D01*
X0313999Y0147509D01*
X0312498Y0147509D01*
X0311748Y0146758D01*
X0310146Y0146758D02*
X0310146Y0143756D01*
X0309395Y0143005D01*
X0307144Y0143005D01*
X0307144Y0147509D01*
X0309395Y0147509D01*
X0310146Y0146758D01*
X0311748Y0143005D02*
X0314750Y0143005D01*
X0316351Y0143756D02*
X0317102Y0143005D01*
X0318603Y0143005D01*
X0319354Y0143756D01*
X0319354Y0144506D01*
X0318603Y0145257D01*
X0316351Y0145257D01*
X0316351Y0143756D01*
X0316351Y0145257D02*
X0317853Y0146758D01*
X0319354Y0147509D01*
X0316351Y0153147D02*
X0316351Y0153897D01*
X0319354Y0156900D01*
X0319354Y0157651D01*
X0316351Y0157651D01*
X0314750Y0156900D02*
X0313999Y0157651D01*
X0312498Y0157651D01*
X0311748Y0156900D01*
X0310146Y0156900D02*
X0310146Y0153897D01*
X0309395Y0153147D01*
X0307144Y0153147D01*
X0307144Y0157651D01*
X0309395Y0157651D01*
X0310146Y0156900D01*
X0311748Y0153147D02*
X0314750Y0156149D01*
X0314750Y0156900D01*
X0314750Y0153147D02*
X0311748Y0153147D01*
X0311748Y0162989D02*
X0314750Y0162989D01*
X0313249Y0162989D02*
X0313249Y0167493D01*
X0311748Y0165992D01*
X0310146Y0166742D02*
X0310146Y0163740D01*
X0309395Y0162989D01*
X0307144Y0162989D01*
X0307144Y0167493D01*
X0309395Y0167493D01*
X0310146Y0166742D01*
X0309395Y0172832D02*
X0307144Y0172832D01*
X0307144Y0177336D01*
X0309395Y0177336D01*
X0310146Y0176585D01*
X0310146Y0173582D01*
X0309395Y0172832D01*
X0311748Y0172832D02*
X0314750Y0172832D01*
X0313249Y0172832D02*
X0313249Y0177336D01*
X0311748Y0175834D01*
X0316351Y0176585D02*
X0317102Y0177336D01*
X0318603Y0177336D01*
X0319354Y0176585D01*
X0319354Y0175834D01*
X0316351Y0172832D01*
X0319354Y0172832D01*
X0318603Y0167493D02*
X0316351Y0165241D01*
X0319354Y0165241D01*
X0318603Y0162989D02*
X0318603Y0167493D01*
X0318603Y0182674D02*
X0317102Y0182674D01*
X0316351Y0183425D01*
X0314750Y0182674D02*
X0311748Y0182674D01*
X0313249Y0182674D02*
X0313249Y0187178D01*
X0311748Y0185677D01*
X0310146Y0186427D02*
X0309395Y0187178D01*
X0307144Y0187178D01*
X0307144Y0182674D01*
X0309395Y0182674D01*
X0310146Y0183425D01*
X0310146Y0186427D01*
X0309395Y0192517D02*
X0307894Y0192517D01*
X0307144Y0193267D01*
X0307144Y0196270D01*
X0307894Y0197021D01*
X0309395Y0197021D01*
X0310146Y0196270D01*
X0310146Y0194769D02*
X0308645Y0194769D01*
X0310146Y0194769D02*
X0310146Y0193267D01*
X0309395Y0192517D01*
X0311748Y0192517D02*
X0311748Y0197021D01*
X0314750Y0192517D01*
X0314750Y0197021D01*
X0316351Y0197021D02*
X0318603Y0197021D01*
X0319354Y0196270D01*
X0319354Y0193267D01*
X0318603Y0192517D01*
X0316351Y0192517D01*
X0316351Y0197021D01*
X0316351Y0202359D02*
X0316351Y0206863D01*
X0319354Y0202359D01*
X0319354Y0206863D01*
X0314783Y0206863D02*
X0313282Y0206863D01*
X0314033Y0206863D02*
X0314033Y0202359D01*
X0314783Y0202359D02*
X0313282Y0202359D01*
X0311681Y0203861D02*
X0311681Y0206863D01*
X0311681Y0203861D02*
X0310180Y0202359D01*
X0308678Y0203861D01*
X0308678Y0206863D01*
X0317102Y0187178D02*
X0318603Y0187178D01*
X0319354Y0186427D01*
X0319354Y0185677D01*
X0318603Y0184926D01*
X0319354Y0184176D01*
X0319354Y0183425D01*
X0318603Y0182674D01*
X0318603Y0184926D02*
X0317853Y0184926D01*
X0316351Y0186427D02*
X0317102Y0187178D01*
X0337387Y0181136D02*
X0337387Y0179635D01*
X0338138Y0178884D01*
X0338138Y0177283D02*
X0339639Y0177283D01*
X0340390Y0176532D01*
X0340390Y0174281D01*
X0341891Y0174281D02*
X0337387Y0174281D01*
X0337387Y0176532D01*
X0338138Y0177283D01*
X0340390Y0175782D02*
X0341891Y0177283D01*
X0341891Y0178884D02*
X0338888Y0181887D01*
X0338138Y0181887D01*
X0337387Y0181136D01*
X0341891Y0181887D02*
X0341891Y0178884D01*
X0355104Y0179635D02*
X0355104Y0181136D01*
X0355854Y0181887D01*
X0356605Y0181887D01*
X0357355Y0181136D01*
X0358106Y0181887D01*
X0358857Y0181887D01*
X0359607Y0181136D01*
X0359607Y0179635D01*
X0358857Y0178884D01*
X0359607Y0177283D02*
X0358106Y0175782D01*
X0358106Y0176532D02*
X0358106Y0174281D01*
X0359607Y0174281D02*
X0355104Y0174281D01*
X0355104Y0176532D01*
X0355854Y0177283D01*
X0357355Y0177283D01*
X0358106Y0176532D01*
X0355854Y0178884D02*
X0355104Y0179635D01*
X0357355Y0180386D02*
X0357355Y0181136D01*
X0356804Y0225812D02*
X0359807Y0225812D01*
X0358305Y0225812D02*
X0358305Y0230316D01*
X0356804Y0228815D01*
X0355203Y0229565D02*
X0354452Y0230316D01*
X0352200Y0230316D01*
X0352200Y0225812D01*
X0354452Y0225812D01*
X0355203Y0226563D01*
X0355203Y0229565D01*
X0350599Y0230316D02*
X0347596Y0230316D01*
X0347596Y0225812D01*
X0350599Y0225812D01*
X0349098Y0228064D02*
X0347596Y0228064D01*
X0345995Y0225812D02*
X0342992Y0225812D01*
X0342992Y0230316D01*
X0264957Y0273952D02*
X0264957Y0293637D01*
X0260396Y0285691D02*
X0260396Y0282688D01*
X0260396Y0284190D02*
X0255892Y0284190D01*
X0257394Y0282688D01*
X0256643Y0281087D02*
X0259646Y0281087D01*
X0260396Y0280336D01*
X0260396Y0278835D01*
X0259646Y0278085D01*
X0256643Y0278085D01*
X0255892Y0278835D01*
X0255892Y0280336D01*
X0256643Y0281087D01*
X0258895Y0279586D02*
X0260396Y0281087D01*
X0243192Y0281030D02*
X0243192Y0278028D01*
X0242441Y0278028D01*
X0239438Y0281030D01*
X0238688Y0281030D01*
X0238688Y0278028D01*
X0238688Y0276426D02*
X0239438Y0276426D01*
X0242441Y0273424D01*
X0243192Y0273424D01*
X0243192Y0276426D01*
X0238688Y0276426D02*
X0238688Y0273424D01*
X0238688Y0271823D02*
X0242441Y0271823D01*
X0243192Y0271072D01*
X0243192Y0269571D01*
X0242441Y0268820D01*
X0238688Y0268820D01*
X0239438Y0267219D02*
X0240189Y0267219D01*
X0240940Y0266468D01*
X0240940Y0264216D01*
X0243192Y0264216D02*
X0238688Y0264216D01*
X0238688Y0266468D01*
X0239438Y0267219D01*
X0240940Y0266468D02*
X0241690Y0267219D01*
X0242441Y0267219D01*
X0243192Y0266468D01*
X0243192Y0264216D01*
X0243192Y0282632D02*
X0238688Y0282632D01*
X0238688Y0285634D01*
X0238688Y0287236D02*
X0238688Y0289488D01*
X0239438Y0290238D01*
X0240940Y0290238D01*
X0241690Y0289488D01*
X0241690Y0287236D01*
X0241690Y0288737D02*
X0243192Y0290238D01*
X0243192Y0287236D02*
X0238688Y0287236D01*
X0240940Y0284133D02*
X0240940Y0282632D01*
X0243192Y0282632D02*
X0243192Y0285634D01*
X0338580Y0122800D02*
X0337829Y0122050D01*
X0337829Y0120549D01*
X0338580Y0119798D01*
X0338580Y0118197D02*
X0337829Y0117446D01*
X0337829Y0115945D01*
X0338580Y0115194D01*
X0339331Y0115194D01*
X0340081Y0115945D01*
X0340081Y0117446D01*
X0340832Y0118197D01*
X0341583Y0118197D01*
X0342333Y0117446D01*
X0342333Y0115945D01*
X0341583Y0115194D01*
X0342333Y0119798D02*
X0339331Y0122800D01*
X0338580Y0122800D01*
X0342333Y0122800D02*
X0342333Y0119798D01*
X0319354Y0087619D02*
X0319354Y0083115D01*
X0316351Y0087619D01*
X0316351Y0083115D01*
X0314750Y0084616D02*
X0314750Y0087619D01*
X0311748Y0087619D02*
X0311748Y0084616D01*
X0313249Y0083115D01*
X0314750Y0084616D01*
X0314750Y0077777D02*
X0314750Y0074774D01*
X0313249Y0073273D01*
X0311748Y0074774D01*
X0311748Y0077777D01*
X0316351Y0077777D02*
X0316351Y0073273D01*
X0316351Y0074774D02*
X0318603Y0074774D01*
X0319354Y0075525D01*
X0319354Y0077026D01*
X0318603Y0077777D01*
X0316351Y0077777D01*
X0316981Y0067934D02*
X0319984Y0063430D01*
X0319984Y0067934D01*
X0316981Y0067934D02*
X0316981Y0063430D01*
X0315380Y0063430D02*
X0312377Y0063430D01*
X0312377Y0067934D01*
X0315380Y0067934D01*
X0313879Y0065682D02*
X0312377Y0065682D01*
X0348650Y0070899D02*
X0348650Y0073151D01*
X0349401Y0073902D01*
X0350902Y0073902D01*
X0351653Y0073151D01*
X0351653Y0070899D01*
X0353154Y0070899D02*
X0348650Y0070899D01*
X0351653Y0072401D02*
X0353154Y0073902D01*
X0353154Y0075503D02*
X0353154Y0078506D01*
X0353154Y0077005D02*
X0348650Y0077005D01*
X0350151Y0075503D01*
X0367766Y0076568D02*
X0369268Y0075066D01*
X0368517Y0073465D02*
X0367766Y0072714D01*
X0367766Y0071213D01*
X0368517Y0070462D01*
X0371520Y0070462D01*
X0372270Y0071213D01*
X0372270Y0072714D01*
X0371520Y0073465D01*
X0372270Y0075066D02*
X0372270Y0078069D01*
X0372270Y0076568D02*
X0367766Y0076568D01*
D13*
X0178793Y0237070D02*
X0174189Y0237070D01*
X0175723Y0238605D01*
X0174189Y0240139D01*
X0178793Y0240139D01*
X0178025Y0241674D02*
X0174956Y0241674D01*
X0174189Y0242441D01*
X0174189Y0243976D01*
X0174956Y0244743D01*
X0178025Y0244743D01*
X0178793Y0243976D01*
X0178793Y0242441D01*
X0178025Y0241674D01*
X0178793Y0246278D02*
X0174189Y0246278D01*
X0174189Y0248580D01*
X0174956Y0249347D01*
X0178025Y0249347D01*
X0178793Y0248580D01*
X0178793Y0246278D01*
X0178793Y0250882D02*
X0175723Y0253951D01*
X0174956Y0253951D01*
X0174189Y0253184D01*
X0174189Y0251649D01*
X0174956Y0250882D01*
X0178793Y0250882D02*
X0178793Y0253951D01*
X0157678Y0252614D02*
X0157678Y0249545D01*
X0156910Y0248778D01*
X0154609Y0248778D01*
X0154609Y0253382D01*
X0156910Y0253382D01*
X0157678Y0252614D01*
X0153074Y0253382D02*
X0153074Y0248778D01*
X0150005Y0253382D01*
X0150005Y0248778D01*
X0148470Y0249545D02*
X0148470Y0251080D01*
X0146935Y0251080D01*
X0145401Y0252614D02*
X0145401Y0249545D01*
X0146168Y0248778D01*
X0147703Y0248778D01*
X0148470Y0249545D01*
X0148470Y0252614D02*
X0147703Y0253382D01*
X0146168Y0253382D01*
X0145401Y0252614D01*
X0150772Y0258778D02*
X0150005Y0259545D01*
X0150772Y0258778D02*
X0152307Y0258778D01*
X0153074Y0259545D01*
X0153074Y0261080D01*
X0152307Y0261847D01*
X0151539Y0261847D01*
X0150005Y0261080D01*
X0150005Y0263382D01*
X0153074Y0263382D01*
X0154609Y0263382D02*
X0154609Y0260312D01*
X0156143Y0258778D01*
X0157678Y0260312D01*
X0157678Y0263382D01*
X0157678Y0268778D02*
X0157678Y0273382D01*
X0154609Y0273382D02*
X0157678Y0268778D01*
X0154609Y0268778D02*
X0154609Y0273382D01*
X0153074Y0273382D02*
X0150005Y0273382D01*
X0150005Y0268778D01*
X0153074Y0268778D01*
X0151539Y0271080D02*
X0150005Y0271080D01*
X0146935Y0262614D02*
X0146935Y0259545D01*
X0145401Y0261080D02*
X0148470Y0261080D01*
X0150005Y0243382D02*
X0153074Y0243382D01*
X0154609Y0243382D02*
X0157678Y0238778D01*
X0154609Y0238778D02*
X0157678Y0243382D01*
X0151539Y0243382D02*
X0151539Y0238778D01*
X0152307Y0233382D02*
X0150005Y0233382D01*
X0150005Y0228778D01*
X0150005Y0230312D02*
X0152307Y0230312D01*
X0153074Y0231080D01*
X0153074Y0232614D01*
X0152307Y0233382D01*
X0154609Y0233382D02*
X0157678Y0228778D01*
X0154609Y0228778D02*
X0157678Y0233382D01*
X0153074Y0228778D02*
X0151539Y0230312D01*
X0151539Y0223382D02*
X0151539Y0218778D01*
X0148470Y0218778D02*
X0148470Y0221847D01*
X0146935Y0223382D01*
X0145401Y0221847D01*
X0145401Y0218778D01*
X0145401Y0221080D02*
X0148470Y0221080D01*
X0150005Y0223382D02*
X0153074Y0223382D01*
X0154608Y0223382D02*
X0154608Y0218778D01*
X0157678Y0218778D01*
X0156143Y0221080D02*
X0154608Y0221080D01*
X0154608Y0223382D02*
X0157678Y0223382D01*
X0143866Y0223382D02*
X0140797Y0223382D01*
X0142331Y0223382D02*
X0142331Y0218778D01*
X0139262Y0219545D02*
X0138495Y0218778D01*
X0136960Y0218778D01*
X0136193Y0219545D01*
X0136960Y0221080D02*
X0138495Y0221080D01*
X0139262Y0220312D01*
X0139262Y0219545D01*
X0136960Y0221080D02*
X0136193Y0221847D01*
X0136193Y0222614D01*
X0136960Y0223382D01*
X0138495Y0223382D01*
X0139262Y0222614D01*
X0067808Y0163815D02*
X0064739Y0163815D01*
X0066274Y0163815D02*
X0066274Y0159211D01*
X0063205Y0159978D02*
X0062437Y0159211D01*
X0060903Y0159211D01*
X0060135Y0159978D01*
X0058601Y0159211D02*
X0057066Y0160746D01*
X0057833Y0160746D02*
X0055531Y0160746D01*
X0055531Y0159211D02*
X0055531Y0163815D01*
X0057833Y0163815D01*
X0058601Y0163047D01*
X0058601Y0161513D01*
X0057833Y0160746D01*
X0060135Y0162280D02*
X0060903Y0161513D01*
X0062437Y0161513D01*
X0063205Y0160746D01*
X0063205Y0159978D01*
X0063205Y0163047D02*
X0062437Y0163815D01*
X0060903Y0163815D01*
X0060135Y0163047D01*
X0060135Y0162280D01*
X0060135Y0153480D02*
X0060135Y0148876D01*
X0063205Y0148876D01*
X0061670Y0151178D02*
X0060135Y0151178D01*
X0058601Y0149644D02*
X0057833Y0148876D01*
X0056299Y0148876D01*
X0055531Y0149644D01*
X0055531Y0152713D01*
X0056299Y0153480D01*
X0057833Y0153480D01*
X0058601Y0152713D01*
X0060135Y0153480D02*
X0063205Y0153480D01*
X0062437Y0143638D02*
X0060903Y0143638D01*
X0060135Y0142870D01*
X0060135Y0139801D01*
X0060903Y0139034D01*
X0062437Y0139034D01*
X0063205Y0139801D01*
X0063205Y0142870D02*
X0062437Y0143638D01*
X0058601Y0142870D02*
X0058601Y0139801D01*
X0057833Y0139034D01*
X0055531Y0139034D01*
X0055531Y0143638D01*
X0057833Y0143638D01*
X0058601Y0142870D01*
X0057833Y0133795D02*
X0055531Y0133795D01*
X0055531Y0129191D01*
X0057833Y0129191D01*
X0058601Y0129959D01*
X0058601Y0133028D01*
X0057833Y0133795D01*
X0060135Y0133795D02*
X0061670Y0133795D01*
X0060903Y0133795D02*
X0060903Y0129191D01*
X0061670Y0129191D02*
X0060135Y0129191D01*
X0063205Y0129191D02*
X0063205Y0133795D01*
X0066274Y0129191D01*
X0066274Y0133795D01*
X0067808Y0123953D02*
X0064739Y0120883D01*
X0065507Y0121651D02*
X0067808Y0119349D01*
X0064739Y0119349D02*
X0064739Y0123953D01*
X0060135Y0123953D02*
X0060135Y0119349D01*
X0063205Y0119349D01*
X0058601Y0120116D02*
X0057833Y0119349D01*
X0056299Y0119349D01*
X0055531Y0120116D01*
X0055531Y0123185D01*
X0056299Y0123953D01*
X0057833Y0123953D01*
X0058601Y0123185D01*
X0058601Y0114110D02*
X0058601Y0111041D01*
X0057066Y0109506D01*
X0055531Y0111041D01*
X0055531Y0114110D01*
X0060135Y0113343D02*
X0060135Y0110273D01*
X0060903Y0109506D01*
X0062437Y0109506D01*
X0063205Y0110273D01*
X0064739Y0110273D02*
X0065507Y0109506D01*
X0067041Y0109506D01*
X0067808Y0110273D01*
X0064739Y0110273D02*
X0064739Y0113343D01*
X0065507Y0114110D01*
X0067041Y0114110D01*
X0067808Y0113343D01*
X0063205Y0113343D02*
X0062437Y0114110D01*
X0060903Y0114110D01*
X0060135Y0113343D01*
X0060135Y0103775D02*
X0060135Y0099172D01*
X0063205Y0099172D01*
X0058601Y0099939D02*
X0057833Y0099172D01*
X0055531Y0099172D01*
X0055531Y0103775D01*
X0057833Y0103775D01*
X0058601Y0103008D01*
X0058601Y0102241D01*
X0057833Y0101473D01*
X0055531Y0101473D01*
X0057833Y0101473D02*
X0058601Y0100706D01*
X0058601Y0099939D01*
X0059643Y0093441D02*
X0062712Y0088837D01*
X0062712Y0093441D01*
X0064247Y0093441D02*
X0066549Y0093441D01*
X0067316Y0092673D01*
X0067316Y0089604D01*
X0066549Y0088837D01*
X0064247Y0088837D01*
X0064247Y0093441D01*
X0059643Y0093441D02*
X0059643Y0088837D01*
X0058109Y0089604D02*
X0058109Y0091139D01*
X0056574Y0091139D01*
X0058109Y0092673D02*
X0057341Y0093441D01*
X0055807Y0093441D01*
X0055039Y0092673D01*
X0055039Y0089604D01*
X0055807Y0088837D01*
X0057341Y0088837D01*
X0058109Y0089604D01*
D14*
X0043967Y0061886D02*
X0043967Y0057949D01*
X0043967Y0059917D02*
X0038062Y0059917D01*
X0040030Y0057949D01*
X0039046Y0055809D02*
X0038062Y0054824D01*
X0038062Y0051872D01*
X0043967Y0051872D01*
X0043967Y0054824D01*
X0042983Y0055809D01*
X0039046Y0055809D01*
X0039046Y0049731D02*
X0038062Y0048747D01*
X0038062Y0046779D01*
X0039046Y0045795D01*
X0042983Y0045795D01*
X0043967Y0046779D01*
X0043967Y0048747D01*
X0042983Y0049731D01*
X0043967Y0043654D02*
X0043967Y0039717D01*
X0038062Y0039717D01*
X0258299Y0254499D02*
X0258299Y0260404D01*
X0260268Y0258435D01*
X0262236Y0260404D01*
X0262236Y0254499D01*
X0264377Y0255483D02*
X0265361Y0254499D01*
X0267329Y0254499D01*
X0268313Y0255483D01*
X0268313Y0259420D01*
X0267329Y0260404D01*
X0265361Y0260404D01*
X0264377Y0259420D01*
X0264377Y0255483D01*
X0270454Y0254499D02*
X0270454Y0260404D01*
X0273406Y0260404D01*
X0274391Y0259420D01*
X0274391Y0255483D01*
X0273406Y0254499D01*
X0270454Y0254499D01*
X0276531Y0254499D02*
X0280468Y0254499D01*
X0278499Y0254499D02*
X0278499Y0260404D01*
X0276531Y0258435D01*
D15*
X0347241Y0193125D02*
X0347241Y0189625D01*
X0364957Y0189625D02*
X0364957Y0193125D01*
X0364957Y0166625D02*
X0364957Y0163125D01*
X0347241Y0163125D02*
X0347241Y0166625D01*
X0343304Y0088794D02*
X0343304Y0085294D01*
X0343304Y0062294D02*
X0343304Y0058794D01*
D16*
X0343304Y0063044D03*
X0343304Y0084544D03*
X0347241Y0167375D03*
X0364957Y0167375D03*
X0364957Y0188875D03*
X0347241Y0188875D03*
D17*
X0337695Y0254560D02*
X0338751Y0254717D01*
X0339797Y0254932D01*
X0340830Y0255204D01*
X0341846Y0255532D01*
X0342842Y0255916D01*
X0343815Y0256354D01*
X0344763Y0256844D01*
X0345684Y0257386D01*
X0346574Y0257976D01*
X0347430Y0258614D01*
X0348251Y0259296D01*
X0349035Y0260021D01*
X0349778Y0260787D01*
X0350479Y0261592D01*
X0351136Y0262433D01*
X0351747Y0263309D01*
X0352310Y0264216D01*
X0352823Y0265152D01*
X0353285Y0266114D01*
X0353693Y0267101D01*
X0354046Y0268108D01*
X0354344Y0269133D01*
X0354583Y0270174D01*
X0354765Y0271226D01*
X0354888Y0272286D01*
X0354952Y0273352D01*
X0354956Y0274419D01*
X0354901Y0275507D01*
X0354784Y0276590D01*
X0354605Y0277665D01*
X0354366Y0278727D01*
X0354066Y0279775D01*
X0353708Y0280803D01*
X0353292Y0281809D01*
X0352821Y0282791D01*
X0352295Y0283744D01*
X0351716Y0284667D01*
X0351088Y0285556D01*
X0350411Y0286410D01*
X0349689Y0287225D01*
X0348923Y0288000D01*
X0348116Y0288732D01*
X0347270Y0289419D01*
X0346388Y0290058D01*
X0345473Y0290649D01*
X0344528Y0291188D01*
X0343553Y0291675D01*
X0342553Y0292106D01*
X0341530Y0292480D01*
X0340489Y0292798D01*
X0339430Y0293056D01*
X0338359Y0293253D01*
X0337278Y0293390D01*
X0336192Y0293465D01*
X0335381Y0293475D01*
X0335381Y0289522D01*
X0336362Y0289502D01*
X0337427Y0289401D01*
X0338482Y0289224D01*
X0339521Y0288970D01*
X0340538Y0288643D01*
X0341530Y0288244D01*
X0342493Y0287777D01*
X0343421Y0287245D01*
X0344310Y0286652D01*
X0345159Y0286002D01*
X0345964Y0285298D01*
X0346722Y0284544D01*
X0347431Y0283743D01*
X0348087Y0282899D01*
X0348688Y0282015D01*
X0349231Y0281093D01*
X0349714Y0280138D01*
X0350133Y0279155D01*
X0350485Y0278145D01*
X0350766Y0277113D01*
X0350974Y0276065D01*
X0351106Y0275005D01*
X0351160Y0273936D01*
X0351133Y0272867D01*
X0351024Y0271803D01*
X0350830Y0270727D01*
X0350558Y0269669D01*
X0350209Y0268633D01*
X0349788Y0267624D01*
X0349296Y0266649D01*
X0348737Y0265709D01*
X0348115Y0264811D01*
X0347431Y0263959D01*
X0346689Y0263156D01*
X0345895Y0262407D01*
X0345049Y0261715D01*
X0344157Y0261083D01*
X0343223Y0260515D01*
X0342252Y0260015D01*
X0341248Y0259584D01*
X0340216Y0259223D01*
X0339162Y0258934D01*
X0338091Y0258718D01*
X0337007Y0258574D01*
X0337000Y0259451D01*
X0336993Y0260329D01*
X0336989Y0261206D01*
X0336986Y0262084D01*
X0337954Y0262181D01*
X0338910Y0262366D01*
X0339844Y0262637D01*
X0340749Y0262995D01*
X0341614Y0263440D01*
X0342431Y0263968D01*
X0343190Y0264576D01*
X0343927Y0265308D01*
X0344583Y0266113D01*
X0345152Y0266982D01*
X0345626Y0267905D01*
X0345232Y0268868D01*
X0344616Y0269708D01*
X0343858Y0270423D01*
X0343011Y0271031D01*
X0342103Y0271544D01*
X0341154Y0271976D01*
X0340175Y0272336D01*
X0339175Y0272627D01*
X0338156Y0272852D01*
X0337125Y0273012D01*
X0336087Y0273106D01*
X0335383Y0273124D01*
X0335383Y0254422D01*
X0335381Y0254429D01*
X0335565Y0254422D01*
X0336632Y0254462D01*
X0337695Y0254560D01*
X0337943Y0254597D02*
X0335383Y0254597D01*
X0335381Y0254597D02*
X0333156Y0254597D01*
X0333419Y0254559D02*
X0334489Y0254464D01*
X0335380Y0254433D01*
X0335381Y0254429D01*
X0335381Y0273131D01*
X0335042Y0273139D01*
X0333972Y0273056D01*
X0332914Y0272880D01*
X0331875Y0272616D01*
X0330860Y0272266D01*
X0329877Y0271839D01*
X0328928Y0271338D01*
X0328018Y0270772D01*
X0327148Y0270144D01*
X0326320Y0269462D01*
X0325537Y0268728D01*
X0324804Y0267945D01*
X0325291Y0267009D01*
X0325873Y0266129D01*
X0326544Y0265315D01*
X0327295Y0264575D01*
X0328122Y0263919D01*
X0328934Y0263398D01*
X0329792Y0262958D01*
X0330689Y0262604D01*
X0331616Y0262337D01*
X0332564Y0262160D01*
X0333524Y0262073D01*
X0333526Y0261203D01*
X0333529Y0260332D01*
X0333533Y0259462D01*
X0333534Y0258593D01*
X0332480Y0258743D01*
X0331438Y0258962D01*
X0330414Y0259252D01*
X0329413Y0259613D01*
X0328441Y0260046D01*
X0327502Y0260547D01*
X0326602Y0261116D01*
X0325746Y0261748D01*
X0324938Y0262440D01*
X0324180Y0263188D01*
X0323478Y0263988D01*
X0322833Y0264834D01*
X0322248Y0265723D01*
X0321724Y0266649D01*
X0321263Y0267608D01*
X0320868Y0268595D01*
X0320539Y0269609D01*
X0320279Y0270640D01*
X0320088Y0271688D01*
X0319970Y0272779D01*
X0319938Y0273877D01*
X0319991Y0274974D01*
X0320126Y0276064D01*
X0320341Y0277141D01*
X0320632Y0278200D01*
X0320995Y0279237D01*
X0321430Y0280245D01*
X0321930Y0281223D01*
X0322495Y0282166D01*
X0323120Y0283068D01*
X0323802Y0283929D01*
X0324540Y0284743D01*
X0325329Y0285507D01*
X0326168Y0286216D01*
X0327052Y0286866D01*
X0327979Y0287455D01*
X0328945Y0287977D01*
X0329946Y0288429D01*
X0330976Y0288807D01*
X0332032Y0289108D01*
X0333108Y0289330D01*
X0334197Y0289470D01*
X0335294Y0289527D01*
X0335382Y0289525D01*
X0335382Y0293478D01*
X0335103Y0293481D01*
X0334040Y0293433D01*
X0332979Y0293326D01*
X0331926Y0293160D01*
X0330885Y0292937D01*
X0329857Y0292656D01*
X0328846Y0292318D01*
X0327857Y0291926D01*
X0326889Y0291479D01*
X0325947Y0290981D01*
X0325033Y0290433D01*
X0324150Y0289837D01*
X0323300Y0289194D01*
X0322487Y0288507D01*
X0321711Y0287778D01*
X0320975Y0287008D01*
X0320280Y0286200D01*
X0319630Y0285357D01*
X0319026Y0284479D01*
X0318470Y0283571D01*
X0317964Y0282633D01*
X0317510Y0281669D01*
X0317110Y0280682D01*
X0316765Y0279674D01*
X0316476Y0278649D01*
X0316244Y0277609D01*
X0316071Y0276558D01*
X0315958Y0275498D01*
X0315904Y0274435D01*
X0315910Y0273360D01*
X0315977Y0272287D01*
X0316105Y0271220D01*
X0316294Y0270162D01*
X0316542Y0269116D01*
X0316848Y0268085D01*
X0317212Y0267073D01*
X0317631Y0266083D01*
X0318104Y0265118D01*
X0318629Y0264179D01*
X0319203Y0263271D01*
X0319826Y0262395D01*
X0320495Y0261554D01*
X0321208Y0260749D01*
X0321963Y0259984D01*
X0322758Y0259260D01*
X0323590Y0258579D01*
X0324458Y0257944D01*
X0325359Y0257357D01*
X0326289Y0256819D01*
X0327247Y0256332D01*
X0328230Y0255897D01*
X0329236Y0255517D01*
X0330261Y0255192D01*
X0331301Y0254924D01*
X0332355Y0254712D01*
X0333419Y0254559D01*
X0331957Y0254792D02*
X0335381Y0254792D01*
X0335383Y0254792D02*
X0339119Y0254792D01*
X0340010Y0254988D02*
X0335383Y0254988D01*
X0335381Y0254988D02*
X0331054Y0254988D01*
X0330295Y0255183D02*
X0335381Y0255183D01*
X0335383Y0255183D02*
X0340751Y0255183D01*
X0341369Y0255378D02*
X0335383Y0255378D01*
X0335381Y0255378D02*
X0329673Y0255378D01*
X0329086Y0255574D02*
X0335381Y0255574D01*
X0335383Y0255574D02*
X0341953Y0255574D01*
X0342460Y0255769D02*
X0335383Y0255769D01*
X0335381Y0255769D02*
X0328569Y0255769D01*
X0328078Y0255964D02*
X0335381Y0255964D01*
X0335383Y0255964D02*
X0342950Y0255964D01*
X0343384Y0256160D02*
X0335383Y0256160D01*
X0335381Y0256160D02*
X0327636Y0256160D01*
X0327201Y0256355D02*
X0335381Y0256355D01*
X0335383Y0256355D02*
X0343818Y0256355D01*
X0344196Y0256551D02*
X0335383Y0256551D01*
X0335381Y0256551D02*
X0326817Y0256551D01*
X0326433Y0256746D02*
X0335381Y0256746D01*
X0335383Y0256746D02*
X0344573Y0256746D01*
X0344928Y0256941D02*
X0335383Y0256941D01*
X0335381Y0256941D02*
X0326077Y0256941D01*
X0325740Y0257137D02*
X0335381Y0257137D01*
X0335383Y0257137D02*
X0345261Y0257137D01*
X0345593Y0257332D02*
X0335383Y0257332D01*
X0335381Y0257332D02*
X0325402Y0257332D01*
X0325097Y0257527D02*
X0335381Y0257527D01*
X0335383Y0257527D02*
X0345897Y0257527D01*
X0346192Y0257723D02*
X0335383Y0257723D01*
X0335381Y0257723D02*
X0324798Y0257723D01*
X0324498Y0257918D02*
X0335381Y0257918D01*
X0335383Y0257918D02*
X0346486Y0257918D01*
X0346758Y0258113D02*
X0335383Y0258113D01*
X0335381Y0258113D02*
X0324227Y0258113D01*
X0323960Y0258309D02*
X0335381Y0258309D01*
X0335383Y0258309D02*
X0347020Y0258309D01*
X0347283Y0258504D02*
X0335383Y0258504D01*
X0335381Y0258504D02*
X0323693Y0258504D01*
X0323443Y0258700D02*
X0332782Y0258700D01*
X0333534Y0258700D02*
X0335381Y0258700D01*
X0335383Y0258700D02*
X0337006Y0258700D01*
X0337004Y0258895D02*
X0335383Y0258895D01*
X0335381Y0258895D02*
X0333533Y0258895D01*
X0333533Y0259090D02*
X0335381Y0259090D01*
X0335383Y0259090D02*
X0337003Y0259090D01*
X0337001Y0259286D02*
X0335383Y0259286D01*
X0335381Y0259286D02*
X0333533Y0259286D01*
X0333533Y0259481D02*
X0335381Y0259481D01*
X0335383Y0259481D02*
X0336999Y0259481D01*
X0336998Y0259676D02*
X0335383Y0259676D01*
X0335381Y0259676D02*
X0333532Y0259676D01*
X0333531Y0259872D02*
X0335381Y0259872D01*
X0335383Y0259872D02*
X0336996Y0259872D01*
X0336995Y0260067D02*
X0335383Y0260067D01*
X0335381Y0260067D02*
X0333530Y0260067D01*
X0333530Y0260262D02*
X0335381Y0260262D01*
X0335383Y0260262D02*
X0336993Y0260262D01*
X0336992Y0260458D02*
X0335383Y0260458D01*
X0335381Y0260458D02*
X0333529Y0260458D01*
X0333528Y0260653D02*
X0335381Y0260653D01*
X0335383Y0260653D02*
X0336991Y0260653D01*
X0336990Y0260848D02*
X0335383Y0260848D01*
X0335381Y0260848D02*
X0333527Y0260848D01*
X0333527Y0261044D02*
X0335381Y0261044D01*
X0335383Y0261044D02*
X0336989Y0261044D01*
X0336988Y0261239D02*
X0335383Y0261239D01*
X0335381Y0261239D02*
X0333526Y0261239D01*
X0333525Y0261435D02*
X0335381Y0261435D01*
X0335383Y0261435D02*
X0336988Y0261435D01*
X0336987Y0261630D02*
X0335383Y0261630D01*
X0335381Y0261630D02*
X0333525Y0261630D01*
X0333524Y0261825D02*
X0335381Y0261825D01*
X0335383Y0261825D02*
X0336987Y0261825D01*
X0336986Y0262021D02*
X0335383Y0262021D01*
X0335381Y0262021D02*
X0333524Y0262021D01*
X0332264Y0262216D02*
X0335381Y0262216D01*
X0335383Y0262216D02*
X0338136Y0262216D01*
X0339066Y0262411D02*
X0335383Y0262411D01*
X0335381Y0262411D02*
X0331358Y0262411D01*
X0330682Y0262607D02*
X0335381Y0262607D01*
X0335383Y0262607D02*
X0339739Y0262607D01*
X0340260Y0262802D02*
X0335383Y0262802D01*
X0335381Y0262802D02*
X0330187Y0262802D01*
X0329715Y0262997D02*
X0335381Y0262997D01*
X0335383Y0262997D02*
X0340753Y0262997D01*
X0341133Y0263193D02*
X0335383Y0263193D01*
X0335381Y0263193D02*
X0329334Y0263193D01*
X0328952Y0263388D02*
X0335381Y0263388D01*
X0335383Y0263388D02*
X0341514Y0263388D01*
X0341837Y0263584D02*
X0335383Y0263584D01*
X0335381Y0263584D02*
X0328645Y0263584D01*
X0328341Y0263779D02*
X0335381Y0263779D01*
X0335383Y0263779D02*
X0342139Y0263779D01*
X0342439Y0263974D02*
X0335383Y0263974D01*
X0335381Y0263974D02*
X0328053Y0263974D01*
X0327807Y0264170D02*
X0335381Y0264170D01*
X0335383Y0264170D02*
X0342683Y0264170D01*
X0342927Y0264365D02*
X0335383Y0264365D01*
X0335381Y0264365D02*
X0327560Y0264365D01*
X0327314Y0264560D02*
X0335381Y0264560D01*
X0335383Y0264560D02*
X0343171Y0264560D01*
X0343371Y0264756D02*
X0335383Y0264756D01*
X0335381Y0264756D02*
X0327112Y0264756D01*
X0326913Y0264951D02*
X0335381Y0264951D01*
X0335383Y0264951D02*
X0343568Y0264951D01*
X0343764Y0265146D02*
X0335383Y0265146D01*
X0335381Y0265146D02*
X0326715Y0265146D01*
X0326521Y0265342D02*
X0335381Y0265342D01*
X0335383Y0265342D02*
X0343954Y0265342D01*
X0344113Y0265537D02*
X0335383Y0265537D01*
X0335381Y0265537D02*
X0326361Y0265537D01*
X0326200Y0265733D02*
X0335381Y0265733D01*
X0335383Y0265733D02*
X0344273Y0265733D01*
X0344432Y0265928D02*
X0335383Y0265928D01*
X0335381Y0265928D02*
X0326039Y0265928D01*
X0325879Y0266123D02*
X0335381Y0266123D01*
X0335383Y0266123D02*
X0344589Y0266123D01*
X0344717Y0266319D02*
X0335383Y0266319D01*
X0335381Y0266319D02*
X0325748Y0266319D01*
X0325619Y0266514D02*
X0335381Y0266514D01*
X0335383Y0266514D02*
X0344845Y0266514D01*
X0344973Y0266709D02*
X0335383Y0266709D01*
X0335381Y0266709D02*
X0325490Y0266709D01*
X0325360Y0266905D02*
X0335381Y0266905D01*
X0335383Y0266905D02*
X0345101Y0266905D01*
X0345212Y0267100D02*
X0335383Y0267100D01*
X0335381Y0267100D02*
X0325244Y0267100D01*
X0325142Y0267295D02*
X0335381Y0267295D01*
X0335383Y0267295D02*
X0345313Y0267295D01*
X0345413Y0267491D02*
X0335383Y0267491D01*
X0335381Y0267491D02*
X0325041Y0267491D01*
X0324939Y0267686D02*
X0335381Y0267686D01*
X0335383Y0267686D02*
X0345513Y0267686D01*
X0345613Y0267882D02*
X0335383Y0267882D01*
X0335381Y0267882D02*
X0324837Y0267882D01*
X0324928Y0268077D02*
X0335381Y0268077D01*
X0335383Y0268077D02*
X0345555Y0268077D01*
X0345476Y0268272D02*
X0335383Y0268272D01*
X0335381Y0268272D02*
X0325111Y0268272D01*
X0325294Y0268468D02*
X0335381Y0268468D01*
X0335383Y0268468D02*
X0345396Y0268468D01*
X0345316Y0268663D02*
X0335383Y0268663D01*
X0335381Y0268663D02*
X0325477Y0268663D01*
X0325676Y0268858D02*
X0335381Y0268858D01*
X0335383Y0268858D02*
X0345236Y0268858D01*
X0345096Y0269054D02*
X0335383Y0269054D01*
X0335381Y0269054D02*
X0325885Y0269054D01*
X0326093Y0269249D02*
X0335381Y0269249D01*
X0335383Y0269249D02*
X0344952Y0269249D01*
X0344809Y0269444D02*
X0335383Y0269444D01*
X0335381Y0269444D02*
X0326301Y0269444D01*
X0326536Y0269640D02*
X0335381Y0269640D01*
X0335383Y0269640D02*
X0344666Y0269640D01*
X0344481Y0269835D02*
X0335383Y0269835D01*
X0335381Y0269835D02*
X0326773Y0269835D01*
X0327010Y0270030D02*
X0335381Y0270030D01*
X0335383Y0270030D02*
X0344274Y0270030D01*
X0344067Y0270226D02*
X0335383Y0270226D01*
X0335381Y0270226D02*
X0327261Y0270226D01*
X0327532Y0270421D02*
X0335381Y0270421D01*
X0335383Y0270421D02*
X0343861Y0270421D01*
X0343589Y0270617D02*
X0335383Y0270617D01*
X0335381Y0270617D02*
X0327803Y0270617D01*
X0328082Y0270812D02*
X0335381Y0270812D01*
X0335383Y0270812D02*
X0343316Y0270812D01*
X0343043Y0271007D02*
X0335383Y0271007D01*
X0335381Y0271007D02*
X0328396Y0271007D01*
X0328710Y0271203D02*
X0335381Y0271203D01*
X0335383Y0271203D02*
X0342707Y0271203D01*
X0342362Y0271398D02*
X0335383Y0271398D01*
X0335381Y0271398D02*
X0329042Y0271398D01*
X0329412Y0271593D02*
X0335381Y0271593D01*
X0335383Y0271593D02*
X0341996Y0271593D01*
X0341567Y0271789D02*
X0335383Y0271789D01*
X0335381Y0271789D02*
X0329783Y0271789D01*
X0330212Y0271984D02*
X0335381Y0271984D01*
X0335383Y0271984D02*
X0341133Y0271984D01*
X0340601Y0272179D02*
X0335383Y0272179D01*
X0335381Y0272179D02*
X0330661Y0272179D01*
X0331175Y0272375D02*
X0335381Y0272375D01*
X0335383Y0272375D02*
X0340041Y0272375D01*
X0339369Y0272570D02*
X0335383Y0272570D01*
X0335381Y0272570D02*
X0331742Y0272570D01*
X0332463Y0272766D02*
X0335381Y0272766D01*
X0335383Y0272766D02*
X0338546Y0272766D01*
X0337451Y0272961D02*
X0335383Y0272961D01*
X0335381Y0272961D02*
X0333401Y0272961D01*
X0333151Y0274915D02*
X0323811Y0274915D01*
X0323833Y0275110D02*
X0335624Y0275110D01*
X0335625Y0275110D02*
X0347105Y0275110D01*
X0347089Y0275305D02*
X0335625Y0275305D01*
X0335624Y0275305D02*
X0323860Y0275305D01*
X0323845Y0275223D02*
X0323730Y0274186D01*
X0323690Y0273143D01*
X0323722Y0272100D01*
X0323825Y0271062D01*
X0323999Y0270033D01*
X0324724Y0270768D01*
X0325498Y0271450D01*
X0326312Y0272082D01*
X0327165Y0272661D01*
X0328053Y0273187D01*
X0328972Y0273655D01*
X0329920Y0274060D01*
X0330894Y0274402D01*
X0331888Y0274677D01*
X0332899Y0274882D01*
X0333922Y0275015D01*
X0334951Y0275078D01*
X0335623Y0275072D01*
X0335624Y0275072D01*
X0335625Y0275072D01*
X0335625Y0285742D01*
X0336483Y0285733D01*
X0337514Y0285623D01*
X0338533Y0285427D01*
X0339532Y0285147D01*
X0340503Y0284781D01*
X0341437Y0284328D01*
X0342322Y0283786D01*
X0343149Y0283160D01*
X0343952Y0282409D01*
X0344671Y0281576D01*
X0345300Y0280673D01*
X0345837Y0279713D01*
X0346281Y0278707D01*
X0346634Y0277664D01*
X0346897Y0276595D01*
X0347072Y0275508D01*
X0347162Y0274411D01*
X0347170Y0273311D01*
X0347098Y0272213D01*
X0346951Y0271123D01*
X0346729Y0270044D01*
X0345953Y0270824D01*
X0345122Y0271543D01*
X0344244Y0272204D01*
X0343325Y0272807D01*
X0342368Y0273348D01*
X0341376Y0273822D01*
X0340353Y0274227D01*
X0339303Y0274556D01*
X0338233Y0274808D01*
X0337147Y0274979D01*
X0336052Y0275069D01*
X0335624Y0275072D01*
X0335624Y0285742D01*
X0335390Y0285744D01*
X0334302Y0285656D01*
X0333225Y0285479D01*
X0332167Y0285212D01*
X0331135Y0284855D01*
X0330141Y0284405D01*
X0329194Y0283864D01*
X0328304Y0283232D01*
X0327516Y0282550D01*
X0326794Y0281797D01*
X0326143Y0280981D01*
X0325568Y0280111D01*
X0325069Y0279195D01*
X0324646Y0278242D01*
X0324303Y0277257D01*
X0324036Y0276249D01*
X0323845Y0275223D01*
X0323897Y0275501D02*
X0335624Y0275501D01*
X0335625Y0275501D02*
X0347072Y0275501D01*
X0347041Y0275696D02*
X0335625Y0275696D01*
X0335624Y0275696D02*
X0323933Y0275696D01*
X0323969Y0275891D02*
X0335624Y0275891D01*
X0335625Y0275891D02*
X0347010Y0275891D01*
X0346978Y0276087D02*
X0335625Y0276087D01*
X0335624Y0276087D02*
X0324006Y0276087D01*
X0324045Y0276282D02*
X0335624Y0276282D01*
X0335625Y0276282D02*
X0346947Y0276282D01*
X0346915Y0276477D02*
X0335625Y0276477D01*
X0335624Y0276477D02*
X0324096Y0276477D01*
X0324148Y0276673D02*
X0335624Y0276673D01*
X0335625Y0276673D02*
X0346877Y0276673D01*
X0346829Y0276868D02*
X0335625Y0276868D01*
X0335624Y0276868D02*
X0324200Y0276868D01*
X0324251Y0277064D02*
X0335624Y0277064D01*
X0335625Y0277064D02*
X0346782Y0277064D01*
X0346734Y0277259D02*
X0335625Y0277259D01*
X0335624Y0277259D02*
X0324303Y0277259D01*
X0324371Y0277454D02*
X0335624Y0277454D01*
X0335625Y0277454D02*
X0346686Y0277454D01*
X0346638Y0277650D02*
X0335625Y0277650D01*
X0335624Y0277650D02*
X0324440Y0277650D01*
X0324508Y0277845D02*
X0335624Y0277845D01*
X0335625Y0277845D02*
X0346573Y0277845D01*
X0346507Y0278040D02*
X0335625Y0278040D01*
X0335624Y0278040D02*
X0324576Y0278040D01*
X0324644Y0278236D02*
X0335624Y0278236D01*
X0335625Y0278236D02*
X0346441Y0278236D01*
X0346375Y0278431D02*
X0335625Y0278431D01*
X0335624Y0278431D02*
X0324730Y0278431D01*
X0324817Y0278626D02*
X0335624Y0278626D01*
X0335625Y0278626D02*
X0346309Y0278626D01*
X0346231Y0278822D02*
X0335625Y0278822D01*
X0335624Y0278822D02*
X0324903Y0278822D01*
X0324990Y0279017D02*
X0335624Y0279017D01*
X0335625Y0279017D02*
X0346144Y0279017D01*
X0346058Y0279213D02*
X0335625Y0279213D01*
X0335624Y0279213D02*
X0325078Y0279213D01*
X0325185Y0279408D02*
X0335624Y0279408D01*
X0335625Y0279408D02*
X0345972Y0279408D01*
X0345886Y0279603D02*
X0335625Y0279603D01*
X0335624Y0279603D02*
X0325291Y0279603D01*
X0325398Y0279799D02*
X0335624Y0279799D01*
X0335625Y0279799D02*
X0345789Y0279799D01*
X0345680Y0279994D02*
X0335625Y0279994D01*
X0335624Y0279994D02*
X0325504Y0279994D01*
X0325620Y0280189D02*
X0335624Y0280189D01*
X0335625Y0280189D02*
X0345571Y0280189D01*
X0345462Y0280385D02*
X0335625Y0280385D01*
X0335624Y0280385D02*
X0325749Y0280385D01*
X0325878Y0280580D02*
X0335624Y0280580D01*
X0335625Y0280580D02*
X0345353Y0280580D01*
X0345229Y0280775D02*
X0335625Y0280775D01*
X0335624Y0280775D02*
X0326007Y0280775D01*
X0326137Y0280971D02*
X0335624Y0280971D01*
X0335625Y0280971D02*
X0345093Y0280971D01*
X0344957Y0281166D02*
X0335625Y0281166D01*
X0335624Y0281166D02*
X0326291Y0281166D01*
X0326447Y0281361D02*
X0335624Y0281361D01*
X0335625Y0281361D02*
X0344821Y0281361D01*
X0344684Y0281557D02*
X0335625Y0281557D01*
X0335624Y0281557D02*
X0326603Y0281557D01*
X0326758Y0281752D02*
X0335624Y0281752D01*
X0335625Y0281752D02*
X0344519Y0281752D01*
X0344350Y0281948D02*
X0335625Y0281948D01*
X0335624Y0281948D02*
X0326939Y0281948D01*
X0327126Y0282143D02*
X0335624Y0282143D01*
X0335625Y0282143D02*
X0344182Y0282143D01*
X0344013Y0282338D02*
X0335625Y0282338D01*
X0335624Y0282338D02*
X0327313Y0282338D01*
X0327501Y0282534D02*
X0335624Y0282534D01*
X0335625Y0282534D02*
X0343818Y0282534D01*
X0343610Y0282729D02*
X0335625Y0282729D01*
X0335624Y0282729D02*
X0327723Y0282729D01*
X0327949Y0282924D02*
X0335624Y0282924D01*
X0335625Y0282924D02*
X0343401Y0282924D01*
X0343192Y0283120D02*
X0335625Y0283120D01*
X0335624Y0283120D02*
X0328174Y0283120D01*
X0328421Y0283315D02*
X0335624Y0283315D01*
X0335625Y0283315D02*
X0342944Y0283315D01*
X0342686Y0283510D02*
X0335625Y0283510D01*
X0335624Y0283510D02*
X0328696Y0283510D01*
X0328971Y0283706D02*
X0335624Y0283706D01*
X0335625Y0283706D02*
X0342428Y0283706D01*
X0342134Y0283901D02*
X0335625Y0283901D01*
X0335624Y0283901D02*
X0329259Y0283901D01*
X0329601Y0284097D02*
X0335624Y0284097D01*
X0335625Y0284097D02*
X0341815Y0284097D01*
X0341495Y0284292D02*
X0335625Y0284292D01*
X0335624Y0284292D02*
X0329943Y0284292D01*
X0330323Y0284487D02*
X0335624Y0284487D01*
X0335625Y0284487D02*
X0341108Y0284487D01*
X0340705Y0284683D02*
X0335625Y0284683D01*
X0335624Y0284683D02*
X0330755Y0284683D01*
X0331202Y0284878D02*
X0335624Y0284878D01*
X0335625Y0284878D02*
X0340245Y0284878D01*
X0339727Y0285073D02*
X0335625Y0285073D01*
X0335624Y0285073D02*
X0331767Y0285073D01*
X0332392Y0285269D02*
X0335624Y0285269D01*
X0335625Y0285269D02*
X0339097Y0285269D01*
X0338339Y0285464D02*
X0335625Y0285464D01*
X0335624Y0285464D02*
X0333167Y0285464D01*
X0334343Y0285659D02*
X0335624Y0285659D01*
X0335625Y0285659D02*
X0337173Y0285659D01*
X0337606Y0289371D02*
X0347329Y0289371D01*
X0347570Y0289176D02*
X0338679Y0289176D01*
X0339479Y0288981D02*
X0347810Y0288981D01*
X0348051Y0288785D02*
X0340096Y0288785D01*
X0340670Y0288590D02*
X0348273Y0288590D01*
X0348488Y0288395D02*
X0341156Y0288395D01*
X0341623Y0288199D02*
X0348704Y0288199D01*
X0348919Y0288004D02*
X0342025Y0288004D01*
X0342427Y0287808D02*
X0349112Y0287808D01*
X0349306Y0287613D02*
X0342778Y0287613D01*
X0343120Y0287418D02*
X0349499Y0287418D01*
X0349692Y0287222D02*
X0343455Y0287222D01*
X0343748Y0287027D02*
X0349864Y0287027D01*
X0350037Y0286832D02*
X0344041Y0286832D01*
X0344331Y0286636D02*
X0350210Y0286636D01*
X0350383Y0286441D02*
X0344586Y0286441D01*
X0344841Y0286246D02*
X0350541Y0286246D01*
X0350696Y0286050D02*
X0345096Y0286050D01*
X0345327Y0285855D02*
X0350851Y0285855D01*
X0351006Y0285659D02*
X0345551Y0285659D01*
X0345774Y0285464D02*
X0351153Y0285464D01*
X0351291Y0285269D02*
X0345994Y0285269D01*
X0346190Y0285073D02*
X0351429Y0285073D01*
X0351567Y0284878D02*
X0346387Y0284878D01*
X0346583Y0284683D02*
X0351705Y0284683D01*
X0351829Y0284487D02*
X0346773Y0284487D01*
X0346946Y0284292D02*
X0351951Y0284292D01*
X0352074Y0284097D02*
X0347119Y0284097D01*
X0347291Y0283901D02*
X0352196Y0283901D01*
X0352316Y0283706D02*
X0347460Y0283706D01*
X0347612Y0283510D02*
X0352424Y0283510D01*
X0352531Y0283315D02*
X0347764Y0283315D01*
X0347915Y0283120D02*
X0352639Y0283120D01*
X0352747Y0282924D02*
X0348067Y0282924D01*
X0348202Y0282729D02*
X0352850Y0282729D01*
X0352944Y0282534D02*
X0348335Y0282534D01*
X0348468Y0282338D02*
X0353038Y0282338D01*
X0353132Y0282143D02*
X0348601Y0282143D01*
X0348727Y0281948D02*
X0353226Y0281948D01*
X0353316Y0281752D02*
X0348843Y0281752D01*
X0348958Y0281557D02*
X0353397Y0281557D01*
X0353477Y0281361D02*
X0349073Y0281361D01*
X0349188Y0281166D02*
X0353558Y0281166D01*
X0353639Y0280971D02*
X0349293Y0280971D01*
X0349392Y0280775D02*
X0353718Y0280775D01*
X0353786Y0280580D02*
X0349491Y0280580D01*
X0349590Y0280385D02*
X0353854Y0280385D01*
X0353922Y0280189D02*
X0349688Y0280189D01*
X0349776Y0279994D02*
X0353990Y0279994D01*
X0354058Y0279799D02*
X0349859Y0279799D01*
X0349942Y0279603D02*
X0354115Y0279603D01*
X0354171Y0279408D02*
X0350025Y0279408D01*
X0350109Y0279213D02*
X0354227Y0279213D01*
X0354283Y0279017D02*
X0350181Y0279017D01*
X0350249Y0278822D02*
X0354339Y0278822D01*
X0354389Y0278626D02*
X0350317Y0278626D01*
X0350385Y0278431D02*
X0354433Y0278431D01*
X0354477Y0278236D02*
X0350453Y0278236D01*
X0350513Y0278040D02*
X0354521Y0278040D01*
X0354565Y0277845D02*
X0350567Y0277845D01*
X0350620Y0277650D02*
X0354608Y0277650D01*
X0354640Y0277454D02*
X0350673Y0277454D01*
X0350726Y0277259D02*
X0354673Y0277259D01*
X0354705Y0277064D02*
X0350776Y0277064D01*
X0350815Y0276868D02*
X0354738Y0276868D01*
X0354770Y0276673D02*
X0350853Y0276673D01*
X0350892Y0276477D02*
X0354796Y0276477D01*
X0354817Y0276282D02*
X0350931Y0276282D01*
X0350970Y0276087D02*
X0354838Y0276087D01*
X0354859Y0275891D02*
X0350996Y0275891D01*
X0351020Y0275696D02*
X0354880Y0275696D01*
X0354901Y0275501D02*
X0351045Y0275501D01*
X0351069Y0275305D02*
X0354911Y0275305D01*
X0354921Y0275110D02*
X0351093Y0275110D01*
X0351111Y0274915D02*
X0354931Y0274915D01*
X0354941Y0274719D02*
X0351121Y0274719D01*
X0351131Y0274524D02*
X0354951Y0274524D01*
X0354956Y0274328D02*
X0351141Y0274328D01*
X0351151Y0274133D02*
X0354955Y0274133D01*
X0354954Y0273938D02*
X0351160Y0273938D01*
X0351155Y0273742D02*
X0354953Y0273742D01*
X0354952Y0273547D02*
X0351150Y0273547D01*
X0351145Y0273352D02*
X0354951Y0273352D01*
X0354940Y0273156D02*
X0351140Y0273156D01*
X0351135Y0272961D02*
X0354928Y0272961D01*
X0354916Y0272766D02*
X0351123Y0272766D01*
X0351102Y0272570D02*
X0354905Y0272570D01*
X0354893Y0272375D02*
X0351082Y0272375D01*
X0351062Y0272179D02*
X0354875Y0272179D01*
X0354853Y0271984D02*
X0351042Y0271984D01*
X0351021Y0271789D02*
X0354830Y0271789D01*
X0354808Y0271593D02*
X0350986Y0271593D01*
X0350951Y0271398D02*
X0354785Y0271398D01*
X0354761Y0271203D02*
X0350915Y0271203D01*
X0350880Y0271007D02*
X0354727Y0271007D01*
X0354694Y0270812D02*
X0350845Y0270812D01*
X0350801Y0270617D02*
X0354660Y0270617D01*
X0354626Y0270421D02*
X0350751Y0270421D01*
X0350701Y0270226D02*
X0354592Y0270226D01*
X0354550Y0270030D02*
X0350650Y0270030D01*
X0350600Y0269835D02*
X0354505Y0269835D01*
X0354461Y0269640D02*
X0350548Y0269640D01*
X0350482Y0269444D02*
X0354416Y0269444D01*
X0354371Y0269249D02*
X0350416Y0269249D01*
X0350351Y0269054D02*
X0354321Y0269054D01*
X0354264Y0268858D02*
X0350285Y0268858D01*
X0350219Y0268663D02*
X0354208Y0268663D01*
X0354151Y0268468D02*
X0350140Y0268468D01*
X0350059Y0268272D02*
X0354094Y0268272D01*
X0354035Y0268077D02*
X0349977Y0268077D01*
X0349895Y0267882D02*
X0353967Y0267882D01*
X0353898Y0267686D02*
X0349814Y0267686D01*
X0349721Y0267491D02*
X0353830Y0267491D01*
X0353761Y0267295D02*
X0349622Y0267295D01*
X0349524Y0267100D02*
X0353692Y0267100D01*
X0353612Y0266905D02*
X0349425Y0266905D01*
X0349327Y0266709D02*
X0353531Y0266709D01*
X0353450Y0266514D02*
X0349216Y0266514D01*
X0349100Y0266319D02*
X0353369Y0266319D01*
X0353289Y0266123D02*
X0348984Y0266123D01*
X0348867Y0265928D02*
X0353195Y0265928D01*
X0353102Y0265733D02*
X0348751Y0265733D01*
X0348618Y0265537D02*
X0353008Y0265537D01*
X0352914Y0265342D02*
X0348483Y0265342D01*
X0348347Y0265146D02*
X0352820Y0265146D01*
X0352713Y0264951D02*
X0348212Y0264951D01*
X0348070Y0264756D02*
X0352606Y0264756D01*
X0352499Y0264560D02*
X0347914Y0264560D01*
X0347757Y0264365D02*
X0352392Y0264365D01*
X0352282Y0264170D02*
X0347600Y0264170D01*
X0347444Y0263974D02*
X0352160Y0263974D01*
X0352039Y0263779D02*
X0347265Y0263779D01*
X0347084Y0263584D02*
X0351918Y0263584D01*
X0351796Y0263388D02*
X0346904Y0263388D01*
X0346723Y0263193D02*
X0351666Y0263193D01*
X0351530Y0262997D02*
X0346521Y0262997D01*
X0346314Y0262802D02*
X0351394Y0262802D01*
X0351257Y0262607D02*
X0346107Y0262607D01*
X0345899Y0262411D02*
X0351119Y0262411D01*
X0350967Y0262216D02*
X0345662Y0262216D01*
X0345423Y0262021D02*
X0350814Y0262021D01*
X0350661Y0261825D02*
X0345184Y0261825D01*
X0344930Y0261630D02*
X0350509Y0261630D01*
X0350342Y0261435D02*
X0344654Y0261435D01*
X0344378Y0261239D02*
X0350172Y0261239D01*
X0350002Y0261044D02*
X0344093Y0261044D01*
X0343772Y0260848D02*
X0349831Y0260848D01*
X0349648Y0260653D02*
X0343450Y0260653D01*
X0343112Y0260458D02*
X0349458Y0260458D01*
X0349269Y0260262D02*
X0342733Y0260262D01*
X0342354Y0260067D02*
X0349080Y0260067D01*
X0348873Y0259872D02*
X0341919Y0259872D01*
X0341464Y0259676D02*
X0348662Y0259676D01*
X0348451Y0259481D02*
X0340954Y0259481D01*
X0340395Y0259286D02*
X0348239Y0259286D01*
X0348004Y0259090D02*
X0339731Y0259090D01*
X0338967Y0258895D02*
X0347769Y0258895D01*
X0347534Y0258700D02*
X0337950Y0258700D01*
X0331756Y0258895D02*
X0323204Y0258895D01*
X0322965Y0259090D02*
X0330985Y0259090D01*
X0330321Y0259286D02*
X0322730Y0259286D01*
X0322515Y0259481D02*
X0329780Y0259481D01*
X0329272Y0259676D02*
X0322301Y0259676D01*
X0322086Y0259872D02*
X0328832Y0259872D01*
X0328401Y0260067D02*
X0321881Y0260067D01*
X0321688Y0260262D02*
X0328035Y0260262D01*
X0327669Y0260458D02*
X0321495Y0260458D01*
X0321303Y0260653D02*
X0327334Y0260653D01*
X0327025Y0260848D02*
X0321120Y0260848D01*
X0320947Y0261044D02*
X0326716Y0261044D01*
X0326435Y0261239D02*
X0320774Y0261239D01*
X0320600Y0261435D02*
X0326170Y0261435D01*
X0325905Y0261630D02*
X0320434Y0261630D01*
X0320279Y0261825D02*
X0325655Y0261825D01*
X0325427Y0262021D02*
X0320123Y0262021D01*
X0319968Y0262216D02*
X0325199Y0262216D01*
X0324971Y0262411D02*
X0319814Y0262411D01*
X0319675Y0262607D02*
X0324769Y0262607D01*
X0324571Y0262802D02*
X0319536Y0262802D01*
X0319397Y0262997D02*
X0324373Y0262997D01*
X0324176Y0263193D02*
X0319259Y0263193D01*
X0319129Y0263388D02*
X0324005Y0263388D01*
X0323833Y0263584D02*
X0319005Y0263584D01*
X0318882Y0263779D02*
X0323661Y0263779D01*
X0323490Y0263974D02*
X0318758Y0263974D01*
X0318635Y0264170D02*
X0323339Y0264170D01*
X0323190Y0264365D02*
X0318525Y0264365D01*
X0318416Y0264560D02*
X0323042Y0264560D01*
X0322893Y0264756D02*
X0318306Y0264756D01*
X0318197Y0264951D02*
X0322756Y0264951D01*
X0322627Y0265146D02*
X0318090Y0265146D01*
X0317994Y0265342D02*
X0322499Y0265342D01*
X0322370Y0265537D02*
X0317898Y0265537D01*
X0317803Y0265733D02*
X0322242Y0265733D01*
X0322132Y0265928D02*
X0317707Y0265928D01*
X0317614Y0266123D02*
X0322021Y0266123D01*
X0321911Y0266319D02*
X0317531Y0266319D01*
X0317449Y0266514D02*
X0321800Y0266514D01*
X0321695Y0266709D02*
X0317366Y0266709D01*
X0317283Y0266905D02*
X0321601Y0266905D01*
X0321507Y0267100D02*
X0317202Y0267100D01*
X0317132Y0267295D02*
X0321413Y0267295D01*
X0321320Y0267491D02*
X0317062Y0267491D01*
X0316992Y0267686D02*
X0321232Y0267686D01*
X0321154Y0267882D02*
X0316922Y0267882D01*
X0316851Y0268077D02*
X0321075Y0268077D01*
X0320997Y0268272D02*
X0316793Y0268272D01*
X0316735Y0268468D02*
X0320919Y0268468D01*
X0320846Y0268663D02*
X0316677Y0268663D01*
X0316618Y0268858D02*
X0320782Y0268858D01*
X0320719Y0269054D02*
X0316560Y0269054D01*
X0316510Y0269249D02*
X0320656Y0269249D01*
X0320592Y0269444D02*
X0316464Y0269444D01*
X0316418Y0269640D02*
X0320531Y0269640D01*
X0320482Y0269835D02*
X0316371Y0269835D01*
X0316325Y0270030D02*
X0320433Y0270030D01*
X0320383Y0270226D02*
X0316282Y0270226D01*
X0316248Y0270421D02*
X0320334Y0270421D01*
X0320285Y0270617D02*
X0316213Y0270617D01*
X0316178Y0270812D02*
X0320248Y0270812D01*
X0320212Y0271007D02*
X0316143Y0271007D01*
X0316108Y0271203D02*
X0320177Y0271203D01*
X0320141Y0271398D02*
X0316084Y0271398D01*
X0316061Y0271593D02*
X0320105Y0271593D01*
X0320077Y0271789D02*
X0316037Y0271789D01*
X0316014Y0271984D02*
X0320056Y0271984D01*
X0320035Y0272179D02*
X0315990Y0272179D01*
X0315972Y0272375D02*
X0320014Y0272375D01*
X0319993Y0272570D02*
X0315960Y0272570D01*
X0315948Y0272766D02*
X0319972Y0272766D01*
X0319965Y0272961D02*
X0315935Y0272961D01*
X0315923Y0273156D02*
X0319959Y0273156D01*
X0319954Y0273352D02*
X0315911Y0273352D01*
X0315909Y0273547D02*
X0319948Y0273547D01*
X0319942Y0273742D02*
X0315908Y0273742D01*
X0315907Y0273938D02*
X0319941Y0273938D01*
X0319951Y0274133D02*
X0315905Y0274133D01*
X0315904Y0274328D02*
X0319960Y0274328D01*
X0319969Y0274524D02*
X0315908Y0274524D01*
X0315918Y0274719D02*
X0319979Y0274719D01*
X0319988Y0274915D02*
X0315928Y0274915D01*
X0315938Y0275110D02*
X0320008Y0275110D01*
X0320032Y0275305D02*
X0315948Y0275305D01*
X0315958Y0275501D02*
X0320056Y0275501D01*
X0320080Y0275696D02*
X0315979Y0275696D01*
X0316000Y0275891D02*
X0320104Y0275891D01*
X0320130Y0276087D02*
X0316021Y0276087D01*
X0316042Y0276282D02*
X0320169Y0276282D01*
X0320208Y0276477D02*
X0316063Y0276477D01*
X0316090Y0276673D02*
X0320247Y0276673D01*
X0320286Y0276868D02*
X0316122Y0276868D01*
X0316154Y0277064D02*
X0320325Y0277064D01*
X0320373Y0277259D02*
X0316187Y0277259D01*
X0316219Y0277454D02*
X0320427Y0277454D01*
X0320480Y0277650D02*
X0316253Y0277650D01*
X0316297Y0277845D02*
X0320534Y0277845D01*
X0320588Y0278040D02*
X0316340Y0278040D01*
X0316384Y0278236D02*
X0320644Y0278236D01*
X0320713Y0278431D02*
X0316427Y0278431D01*
X0316471Y0278626D02*
X0320781Y0278626D01*
X0320850Y0278822D02*
X0316524Y0278822D01*
X0316579Y0279017D02*
X0320918Y0279017D01*
X0320987Y0279213D02*
X0316635Y0279213D01*
X0316690Y0279408D02*
X0321069Y0279408D01*
X0321153Y0279603D02*
X0316745Y0279603D01*
X0316807Y0279799D02*
X0321237Y0279799D01*
X0321322Y0279994D02*
X0316874Y0279994D01*
X0316941Y0280189D02*
X0321406Y0280189D01*
X0321501Y0280385D02*
X0317008Y0280385D01*
X0317075Y0280580D02*
X0321601Y0280580D01*
X0321701Y0280775D02*
X0317148Y0280775D01*
X0317227Y0280971D02*
X0321801Y0280971D01*
X0321901Y0281166D02*
X0317306Y0281166D01*
X0317385Y0281361D02*
X0322013Y0281361D01*
X0322130Y0281557D02*
X0317464Y0281557D01*
X0317549Y0281752D02*
X0322247Y0281752D01*
X0322364Y0281948D02*
X0317641Y0281948D01*
X0317733Y0282143D02*
X0322481Y0282143D01*
X0322614Y0282338D02*
X0317825Y0282338D01*
X0317917Y0282534D02*
X0322750Y0282534D01*
X0322885Y0282729D02*
X0318016Y0282729D01*
X0318121Y0282924D02*
X0323020Y0282924D01*
X0323160Y0283120D02*
X0318227Y0283120D01*
X0318332Y0283315D02*
X0323315Y0283315D01*
X0323470Y0283510D02*
X0318437Y0283510D01*
X0318552Y0283706D02*
X0323625Y0283706D01*
X0323780Y0283901D02*
X0318672Y0283901D01*
X0318791Y0284097D02*
X0323954Y0284097D01*
X0324131Y0284292D02*
X0318911Y0284292D01*
X0319031Y0284487D02*
X0324308Y0284487D01*
X0324485Y0284683D02*
X0319165Y0284683D01*
X0319300Y0284878D02*
X0324679Y0284878D01*
X0324881Y0285073D02*
X0319434Y0285073D01*
X0319569Y0285269D02*
X0325083Y0285269D01*
X0325285Y0285464D02*
X0319712Y0285464D01*
X0319863Y0285659D02*
X0325509Y0285659D01*
X0325741Y0285855D02*
X0320014Y0285855D01*
X0320164Y0286050D02*
X0325972Y0286050D01*
X0326208Y0286246D02*
X0320319Y0286246D01*
X0320487Y0286441D02*
X0326474Y0286441D01*
X0326740Y0286636D02*
X0320655Y0286636D01*
X0320823Y0286832D02*
X0327005Y0286832D01*
X0327305Y0287027D02*
X0320992Y0287027D01*
X0321179Y0287222D02*
X0327613Y0287222D01*
X0327921Y0287418D02*
X0321366Y0287418D01*
X0321553Y0287613D02*
X0328272Y0287613D01*
X0328633Y0287808D02*
X0321744Y0287808D01*
X0321951Y0288004D02*
X0329003Y0288004D01*
X0329436Y0288199D02*
X0322159Y0288199D01*
X0322367Y0288395D02*
X0329869Y0288395D01*
X0330384Y0288590D02*
X0322585Y0288590D01*
X0322816Y0288785D02*
X0330916Y0288785D01*
X0331584Y0288981D02*
X0323047Y0288981D01*
X0323279Y0289176D02*
X0332361Y0289176D01*
X0333431Y0289371D02*
X0323535Y0289371D01*
X0323793Y0289567D02*
X0335382Y0289567D01*
X0335381Y0289567D02*
X0347067Y0289567D01*
X0346797Y0289762D02*
X0335381Y0289762D01*
X0335382Y0289762D02*
X0324051Y0289762D01*
X0324329Y0289957D02*
X0335382Y0289957D01*
X0335381Y0289957D02*
X0346528Y0289957D01*
X0346242Y0290153D02*
X0335381Y0290153D01*
X0335382Y0290153D02*
X0324618Y0290153D01*
X0324907Y0290348D02*
X0335382Y0290348D01*
X0335381Y0290348D02*
X0345940Y0290348D01*
X0345637Y0290543D02*
X0335381Y0290543D01*
X0335382Y0290543D02*
X0325217Y0290543D01*
X0325543Y0290739D02*
X0335382Y0290739D01*
X0335381Y0290739D02*
X0345316Y0290739D01*
X0344974Y0290934D02*
X0335381Y0290934D01*
X0335382Y0290934D02*
X0325869Y0290934D01*
X0326228Y0291130D02*
X0335382Y0291130D01*
X0335381Y0291130D02*
X0344631Y0291130D01*
X0344254Y0291325D02*
X0335381Y0291325D01*
X0335382Y0291325D02*
X0326597Y0291325D01*
X0326977Y0291520D02*
X0335382Y0291520D01*
X0335381Y0291520D02*
X0343862Y0291520D01*
X0343458Y0291716D02*
X0335381Y0291716D01*
X0335382Y0291716D02*
X0327401Y0291716D01*
X0327824Y0291911D02*
X0335382Y0291911D01*
X0335381Y0291911D02*
X0343004Y0291911D01*
X0342551Y0292106D02*
X0335381Y0292106D01*
X0335382Y0292106D02*
X0328312Y0292106D01*
X0328805Y0292302D02*
X0335382Y0292302D01*
X0335381Y0292302D02*
X0342018Y0292302D01*
X0341475Y0292497D02*
X0335381Y0292497D01*
X0335382Y0292497D02*
X0329382Y0292497D01*
X0329992Y0292692D02*
X0335382Y0292692D01*
X0335381Y0292692D02*
X0340834Y0292692D01*
X0340119Y0292888D02*
X0335381Y0292888D01*
X0335382Y0292888D02*
X0330706Y0292888D01*
X0331567Y0293083D02*
X0335382Y0293083D01*
X0335381Y0293083D02*
X0339281Y0293083D01*
X0338158Y0293279D02*
X0335381Y0293279D01*
X0335382Y0293279D02*
X0332678Y0293279D01*
X0334942Y0293474D02*
X0335382Y0293474D01*
X0335381Y0293474D02*
X0335444Y0293474D01*
X0337554Y0274915D02*
X0347121Y0274915D01*
X0347137Y0274719D02*
X0338610Y0274719D01*
X0339407Y0274524D02*
X0347153Y0274524D01*
X0347163Y0274328D02*
X0340029Y0274328D01*
X0340590Y0274133D02*
X0347164Y0274133D01*
X0347166Y0273938D02*
X0341084Y0273938D01*
X0341543Y0273742D02*
X0347167Y0273742D01*
X0347168Y0273547D02*
X0341952Y0273547D01*
X0342361Y0273352D02*
X0347170Y0273352D01*
X0347160Y0273156D02*
X0342707Y0273156D01*
X0343053Y0272961D02*
X0347147Y0272961D01*
X0347134Y0272766D02*
X0343388Y0272766D01*
X0343686Y0272570D02*
X0347122Y0272570D01*
X0347109Y0272375D02*
X0343984Y0272375D01*
X0344277Y0272179D02*
X0347094Y0272179D01*
X0347067Y0271984D02*
X0344536Y0271984D01*
X0344795Y0271789D02*
X0347041Y0271789D01*
X0347014Y0271593D02*
X0345054Y0271593D01*
X0345289Y0271398D02*
X0346988Y0271398D01*
X0346961Y0271203D02*
X0345515Y0271203D01*
X0345741Y0271007D02*
X0346927Y0271007D01*
X0346887Y0270812D02*
X0345965Y0270812D01*
X0346159Y0270617D02*
X0346847Y0270617D01*
X0346806Y0270421D02*
X0346354Y0270421D01*
X0346548Y0270226D02*
X0346766Y0270226D01*
X0332098Y0274719D02*
X0323789Y0274719D01*
X0323768Y0274524D02*
X0331335Y0274524D01*
X0330684Y0274328D02*
X0323746Y0274328D01*
X0323728Y0274133D02*
X0330127Y0274133D01*
X0329634Y0273938D02*
X0323721Y0273938D01*
X0323713Y0273742D02*
X0329177Y0273742D01*
X0328760Y0273547D02*
X0323705Y0273547D01*
X0323698Y0273352D02*
X0328376Y0273352D01*
X0328000Y0273156D02*
X0323690Y0273156D01*
X0323695Y0272961D02*
X0327671Y0272961D01*
X0327341Y0272766D02*
X0323701Y0272766D01*
X0323707Y0272570D02*
X0327031Y0272570D01*
X0326744Y0272375D02*
X0323713Y0272375D01*
X0323719Y0272179D02*
X0326456Y0272179D01*
X0326186Y0271984D02*
X0323733Y0271984D01*
X0323753Y0271789D02*
X0325934Y0271789D01*
X0325683Y0271593D02*
X0323772Y0271593D01*
X0323792Y0271398D02*
X0325439Y0271398D01*
X0325217Y0271203D02*
X0323811Y0271203D01*
X0323834Y0271007D02*
X0324996Y0271007D01*
X0324774Y0270812D02*
X0323868Y0270812D01*
X0323901Y0270617D02*
X0324575Y0270617D01*
X0324382Y0270421D02*
X0323934Y0270421D01*
X0323967Y0270226D02*
X0324189Y0270226D01*
D18*
X0345083Y0124070D02*
X0346083Y0124070D01*
X0346083Y0114570D01*
X0345083Y0114570D01*
X0368083Y0114070D02*
X0369083Y0114070D01*
X0368083Y0114070D02*
X0368083Y0124070D01*
X0369083Y0124070D01*
D19*
X0363520Y0074994D02*
X0361020Y0074994D01*
X0358520Y0074994D01*
X0358520Y0072494D02*
X0361020Y0072494D01*
X0363520Y0072494D01*
M02*
